<svg xmlns="http://www.w3.org/2000/svg" xmlns:xlink="http://www.w3.org/1999/xlink" viewBox="0 0 600 450"><defs><style>.a,.ai{fill:none;}.b,.c{fill:#543042;}.ac,.ad,.c,.i,.l,.m,.o,.p,.q,.r,.s,.t,.u{fill-rule:evenodd;}.af,.aj,.d,.z{fill:#2b2b2b;}.d{opacity:0.1;}.al,.e,.o{fill:#594165;}.f,.m{fill:#734d60;}.g,.q{fill:#96637c;}.h,.r{fill:#dfbda5;}.i,.n{fill:#8f8f8f;}.ad,.j{fill:#c4c4c4;}.ac,.k{fill:#dddddc;}.l,.w{fill:#8b6651;}.ae,.p{fill:#785d88;}.s,.y{fill:#c3987b;}.am,.t{fill:#b3889d;}.ag,.u{fill:#fff;}.v{fill:#e8cab6;}.x{fill:#9075a0;}.aa{fill:#a3a3a3;}.ab{fill:#ececeb;}.af{opacity:0.2;}.ah{clip-path:url(#a);}.ai{stroke:#8f8f8f;stroke-miterlimit:10;stroke-width:2px;}.aj{opacity:0.15;}.ak{fill:#cececd;}.al{opacity:0.3;}.an{fill:#4f5253;}</style><clipPath id="a"><polygon class="a" points="172.55 419.88 207.72 439.68 213.47 425.16 177.66 406.97 172.55 419.88"/></clipPath></defs><title>scene_trait_turbulent</title><polygon class="b" points="93.94 357.36 90.97 377.76 108.12 377.76 105.57 353.69 93.94 357.36"/><polygon class="c" points="51.42 403.56 67.16 393.92 77.51 352.96 65.87 355.74 51.42 403.56"/><polygon class="d" points="22 403.56 320.31 450 543.31 408.79 469.32 377.94 391.45 367.66 155.2 370.85 90.97 377.76 67.16 393.92 22 403.56"/><polygon class="e" points="428.04 403.56 394.11 375.1 382.58 342.81 408.04 343 428.04 403.56"/><path class="b" d="M381.91,409.75a11.34,11.34,0,0,1-1.51-.1h-7.84v-4.13l8.37,0c.58.1,2.47.21,3.39-.57a2.09,2.09,0,0,0,.63-1.8c0-3.35-1.47-4-4-4-2.7,0-4.16-3.1-4.16-6a6.32,6.32,0,0,1,.86-3.37,4.07,4.07,0,0,1,3.57-2h8.9c1.48,0,2.49-.33,3-1a4.21,4.21,0,0,0,.33-3.13L379.24,339.8l3.93-1.27,14.21,44c.13.47,1.08,4.08-1,6.82-1.32,1.74-3.43,2.63-6.28,2.63h-8.9c-.09,0-.3.38-.3,1.16a4.13,4.13,0,0,0,.43,1.95c6.72.19,7.74,5.15,7.74,8.13a6.21,6.21,0,0,1-2.12,5A7.92,7.92,0,0,1,381.91,409.75Z"/><path class="b" d="M369.83,361.32H339.08v-4.13h30.75a3.91,3.91,0,0,0,2.79-.77c1.05-1.07,1-3.95.92-7,0-.83,0-1.69,0-2.56V316.11h4.13v30.76c0,.84,0,1.67,0,2.47.09,4.11.16,7.66-2.1,10A7.61,7.61,0,0,1,369.83,361.32Z"/><polygon class="b" points="376.56 416.63 365.21 416.63 365.21 401.31 373.98 401.31 376.56 416.63"/><polygon class="b" points="368.3 367.58 356.95 367.58 356.95 352.26 365.72 352.26 368.3 367.58"/><polygon class="f" points="112.12 221.17 22 228.71 44.45 331.99 22 403.56 51.42 403.56 65.87 355.74 102.84 357.88 106.9 403.56 127.41 403.56 136.56 340.56 123.81 271.77 112.12 221.17"/><polygon class="g" points="70.58 332.84 82.22 335 132.97 321.21 123.81 271.77 112.12 221.17 62.08 236.29 70.58 332.84"/><polygon class="h" points="126.69 379.77 126.69 384.28 128.31 387.71 142.6 384.58 144.6 375.1 126.69 379.77"/><polygon class="i" points="155.2 366.83 184.15 359.17 160.28 344.04 156.13 340.56 150.88 354.42 155.2 366.83"/><polygon class="j" points="159.88 237.72 206.69 241.33 158.82 275.48 159.88 237.72"/><polygon class="e" points="116.02 316.68 134.89 328.04 139.38 253.03 128.5 241.5 118.47 249.1 111.08 293.63 116.02 316.68"/><polygon class="k" points="145.7 229.63 134.89 269.64 134.89 321.32 150.68 302.4 164.02 264.04 159.88 237.72 145.7 229.63"/><polygon class="l" points="144.6 375.1 156.13 340.56 148.49 343.52 127.48 359.19 126.69 379.77 126.69 384.28 144.6 375.1"/><polygon class="m" points="126.69 384.28 142.6 384.58 164.53 403.56 135.79 403.56 126.69 384.28"/><polygon class="n" points="134.89 290.49 157.95 280.62 150.68 309.28 134.89 321.32 134.89 290.49"/><polygon class="o" points="132.27 403.56 133.81 398.85 126.69 384.28 127.41 403.56 132.27 403.56"/><polygon class="p" points="154.92 375.1 170.83 375.39 192.76 394.37 164.02 394.37 154.92 375.1"/><polygon class="o" points="160.49 394.37 162.03 389.67 154.92 375.1 155.63 394.37 160.49 394.37"/><polygon class="q" points="51.32 210.62 41.96 180.75 65.33 189.73 109.87 200.79 51.32 210.62"/><polygon class="q" points="131.85 119.28 65.92 146.01 109.87 200.79 131.85 119.28"/><polygon class="r" points="204.61 154.45 206.69 161.29 184.77 228.87 156.84 221.84 128.5 241.5 112.12 221.17 105.57 161.74 140.68 116.35 198.23 130.02 204.61 154.45"/><polygon class="s" points="128.5 241.5 136 236.29 136 236.29 124.12 213.67 134.68 216.31 153.37 149.47 150.73 136.84 105.57 161.74 112.12 221.17 128.5 241.5"/><polygon class="l" points="124.12 213.67 136 236.29 136 236.29 156.84 221.84 124.12 213.67"/><polygon class="t" points="150.73 136.84 204.61 154.45 200.18 128.22 139.2 113.32 92.78 151.02 108.12 184.86 105.57 161.74 118.97 154.35 120.35 176.82 131.11 173.29 130.78 147.84 150.73 136.84"/><polygon class="l" points="108.12 184.86 115.96 182.52 109.87 200.79 108.12 184.86"/><polygon class="r" points="108.12 184.86 120.79 181.08 118.97 154.35 105.57 161.74 108.12 184.86"/><polygon class="l" points="115.95 161.41 117.11 169.98 109.65 163.53 115.95 161.41"/><polygon class="u" points="121.55 187.26 116.64 187.89 115.31 177.44 120.49 176.77 121.55 187.26"/><polygon class="v" points="178.27 198.74 168.78 195.69 176.83 167.44 186.31 170.49 178.27 198.74"/><polygon class="w" points="178.27 198.74 172.83 201.29 168.78 195.69 178.27 198.74"/><path class="e" d="M176.83,167.44l-26.15-8.38L145.1,179l26,8.29Zm-23.19-2.88,17.86,5.72-3.32,11.51-17.79-5.67Z"/><path class="e" d="M210.31,178.2l-24-7.71-5.58,19.91L204.58,198Zm-21-2.22L205,181l-3.33,11.51-15.63-5Z"/><polygon class="e" points="197.39 178.48 198.63 174.35 173.44 166.4 172.25 170.55 197.39 178.48"/><polygon class="b" points="157.16 156.73 161.58 159.01 166.59 157.81 172.15 162.12 166.07 154.59 157.16 156.73"/><polygon class="b" points="187.62 168.3 191.37 169.61 196.99 166.46 201.29 169.79 196.81 163.67 187.62 168.3"/><polygon class="e" points="148.29 198.9 157.55 202.78 162.72 210.06 162.08 202.59 158.91 201.37 158.53 199.02 148.29 198.9"/><polygon class="x" points="148.79 199.1 151.82 203.81 160.88 207.47 157.55 202.78 148.79 199.1"/><polygon class="y" points="195.7 195.19 191.88 206.95 180.73 190.4 195.7 195.19"/><polygon class="y" points="148.65 180.11 169.92 191.67 171.1 187.26 148.65 180.11"/><polygon class="y" points="153.63 164.56 168.18 181.79 171.5 170.28 153.63 164.56"/><polygon class="y" points="197 191.15 186.03 187.54 189.16 175.88 195.7 177.95 197 191.15"/><polygon class="q" points="200.18 128.22 180.31 146.51 204.61 154.45 200.18 128.22"/><polygon class="m" points="118.97 154.35 120.49 176.77 131.11 173.29 130.78 147.84 150.73 136.84 139.2 113.32 92.78 151.02 105.57 161.74 118.97 154.35"/><polygon class="e" points="118.97 154.35 111.88 158.26 115.5 148.9 150.68 159.06 148.02 168.54 118.97 154.35"/><polygon class="c" points="92.78 151.02 108.12 184.86 105.57 161.74 92.78 151.02"/><polygon class="c" points="109.87 200.79 51.32 210.62 81.57 165.52 109.87 200.79"/><polygon class="m" points="65.92 146.01 92.78 151.02 108.12 184.86 109.87 200.79 65.92 146.01"/><polygon class="t" points="131.85 119.28 65.92 146.01 105.55 108 131.85 119.28"/><polygon class="z" points="166.76 179.83 158.82 176.99 159.46 175.21 162.51 176.3 160.57 172.89 161.56 170.9 166.76 179.83"/><polygon class="z" points="195.34 188.82 187.51 186.27 197.1 182.42 196.49 184.71 193.04 186.09 195.94 187.01 195.34 188.82"/><polygon class="x" points="128.5 241.5 139.33 253.03 145.7 229.63 128.5 241.5"/><polygon class="k" points="112.12 221.17 91.16 234.62 86.34 276.17 119.23 297.19 123.81 271.77 112.12 221.17"/><polygon class="x" points="128.5 241.5 112.12 221.17 118.47 249.1 128.5 241.5"/><polygon class="aa" points="91.16 234.62 75.92 271.78 119.23 297.19 91.16 234.62"/><polygon class="j" points="119.23 297.19 157.95 280.62 164.02 264.04 109.1 274.6 119.23 297.19"/><polygon class="ab" points="112.12 221.17 98.36 250.66 123.81 271.77 112.12 221.17"/><polygon class="ab" points="145.7 229.63 162.42 253.6 134.89 269.64 145.7 229.63"/><polygon class="ac" points="116.02 316.68 148.49 343.52 155.2 366.83 126.69 379.77 125.31 360.81 82.22 335 90.73 305.58 116.02 316.68"/><polygon class="i" points="90.73 305.58 116.02 316.68 119.23 297.19 86.63 278.06 90.73 305.58"/><polygon class="aa" points="191.88 206.95 184.15 257.59 207.97 246.47 204.58 198.03 191.88 206.95"/><polygon class="x" points="207.36 237.72 134.89 300.97 294.63 317.24 487.32 314.26 450.36 249.64 207.36 237.72"/><polygon class="ad" points="82.22 335 148.49 343.52 125.31 360.81 82.22 335"/><polygon class="ab" points="134.89 321.32 178.27 331.99 150.68 309.28 134.89 321.32"/><polygon class="ae" points="178.27 331.99 148.49 343.52 116.02 316.68 178.27 331.99"/><polygon class="v" points="212.69 178.93 199.68 167.59 193.84 172.84 197 191.15 212.69 178.93"/><polygon class="l" points="178.27 331.99 155.95 345.58 156.13 340.56 178.27 331.99"/><polygon class="h" points="155.95 345.58 154.92 374.87 170.83 375.39 178.27 331.99 155.95 345.58"/><polygon class="ad" points="178.27 331.99 184.15 359.17 172.95 362.99 178.27 331.99"/><polygon class="af" points="157.33 422.14 207.72 439.68 258.32 412.39 245.67 409.64 202.29 407.7 180.25 412.23 157.33 422.14"/><polygon class="ag" points="214.63 433.72 245.67 409.64 205.55 398.08 182.98 409.67 214.63 433.72"/><polygon class="k" points="172.55 419.88 207.72 439.68 213.47 425.16 177.66 406.97 172.55 419.88"/><polygon class="j" points="213.47 425.16 214.63 433.72 211.02 431.35 213.47 425.16"/><polygon class="e" points="201.58 433.58 202.27 432.84 201.48 432.7 203.04 431.24 201.99 431 201.04 432.49 200.03 432.14 199.78 432.42 201.58 433.58"/><polygon class="e" points="199.46 432.12 201.34 430.42 200.65 429.79 199.92 430.58 199.45 430.26 200.16 429.49 199.2 429.18 197.89 431.18 198.12 431.39 198.9 430.74 199.44 431.01 198.99 431.69 199.46 432.12"/><polygon class="e" points="202.29 434.23 203.74 433.02 205.01 434.09 205.58 433.4 204.01 432.33 205.34 429.98 208.5 430.82 208.1 432.29 205.96 430.75 205.32 431.98 206.43 432.67 206.74 433.76 204.87 435.63 202.29 434.23"/><g class="ah"><polygon class="f" points="188.44 417.74 188.62 416.7 178.78 414.04 179.97 416.55 188.44 417.74"/><polygon class="f" points="181.52 419.38 183.6 420.57 186.66 412.92 185.18 413.21 181.52 419.38"/><path class="f" d="M176.76,417.44a2.56,2.56,0,0,1,0-.27c-.58-4.07,1.55-5.71,2.86-6.36,4.15-2.06,8.28,1.07,8.28,1.07l-.9.84c-.69-.74-4.26-1.66-6.7-.49-1.65.79-2.32,2.38-2,4.72a4.13,4.13,0,0,0,1.77,2.77,6.18,6.18,0,0,0,4.71.93c3-.59,5.12-3.24,4.6-5.89l1.54-.3c.69,3.5-1.94,7-5.84,7.73a7.69,7.69,0,0,1-5.93-1.19A5.72,5.72,0,0,1,176.76,417.44Z"/></g><line class="ai" x1="192.38" y1="418.4" x2="207.87" y2="425.89"/><polygon class="n" points="218.27 422.14 192.6 411.69 194.99 410.6 220.4 420.81 218.27 422.14"/><polygon class="n" points="225.28 418.38 199.6 407.93 202 406.84 227.4 417.05 225.28 418.38"/><polygon class="n" points="232.32 413.15 214.63 405.96 217.03 404.86 234.45 411.82 232.32 413.15"/><polygon class="f" points="195.94 410.28 194.18 410.56 194.1 408.86 193.43 409.33 193.27 410.71 190.42 411.17 191.58 412.13 193.17 411.68 193 413.18 194.31 413.3 194.22 411.37 196.08 410.83 195.94 410.28"/><polygon class="f" points="217.32 410.48 215.56 410.76 215.49 409.06 214.81 409.53 214.65 410.91 211.8 411.37 212.96 412.34 214.55 411.88 214.38 413.38 215.69 413.5 215.6 411.57 217.47 411.03 217.32 410.48"/><polygon class="f" points="211.19 401.42 209.43 401.7 209.35 399.99 208.68 400.47 208.52 401.84 205.67 402.3 206.83 403.27 208.42 402.81 208.25 404.32 209.56 404.44 209.47 402.51 211.34 401.97 211.19 401.42"/><polygon class="af" points="394.96 418.12 419.38 421.47 428.59 415.78 413.08 413.19 394.96 418.12"/><polygon class="ag" points="402.66 410.43 407.2 417.35 416.35 418.96 421.31 413.51 423.83 407.97 421.1 401.63 412.51 398.63 406.36 402.01 402.66 410.43"/><polygon class="aa" points="402.66 410.43 407.2 417.35 416.35 418.96 406.36 402.01 402.66 410.43"/><polygon class="aa" points="423.83 407.97 421.1 401.63 416.35 418.96 421.31 413.51 423.83 407.97"/><polygon class="n" points="407.2 417.35 416.35 418.96 412.46 412.36 407.2 417.35"/><polygon class="j" points="412.46 412.36 421.1 401.63 416.35 418.96 412.46 412.36"/><polygon class="aj" points="74.82 429.14 99.83 430.44 88.88 419.06 74.82 429.14"/><polygon class="ag" points="70.21 411.06 78.86 425.33 90.97 427.19 96.9 414.58 91.41 404.29 77.08 406.29 70.21 411.06"/><polygon class="j" points="90.97 427.19 70.21 411.06 74.82 429.14 90.97 427.19"/><polygon class="ak" points="91.41 404.29 90.97 427.19 96.9 414.58 91.41 404.29"/><polygon class="k" points="70.21 411.06 91.22 414.33 90.97 427.19 70.21 411.06"/><polygon class="al" points="464.95 275.13 450.36 249.64 207.44 237.72 207.27 237.8 134.89 300.97 196.06 305.58 227.58 297.06 244.83 258.53 251.09 251.65 271.79 291.49 326.67 294.31 371.12 309.88 432.9 312.21 413.2 282.01 464.95 275.13"/><polygon class="f" points="223.26 219.91 223.26 246.41 229.44 249.5 242.19 249.5 249.6 246.41 249.6 220.51 242.19 215.78 229.44 215.78 223.26 219.91"/><polygon class="am" points="229.44 215.78 223.26 219.91 223.26 221.2 229.56 224.12 242.31 224.12 249.6 221.71 249.6 220.51 242.19 215.78 229.44 215.78"/><polygon class="am" points="242.31 249.46 249.6 246.41 249.6 221.71 242.31 224.12 242.31 249.46"/><path class="am" d="M255.23,239.63a3.52,3.52,0,0,1-3.71,3.28h0a3.52,3.52,0,0,1-3.71-3.28V228.52a3.52,3.52,0,0,1,3.71-3.28h0a3.52,3.52,0,0,1,3.71,3.28Z"/><path class="ag" d="M253.08,237.45a2,2,0,0,1-2,2h0a2,2,0,0,1-2-2V230.7a2,2,0,0,1,2-2h0a2,2,0,0,1,2,2Z"/><polygon class="e" points="241.79 217.63 229.79 217.63 224.9 220.65 229.44 222.7 242.19 222.7 247.81 221.03 241.79 217.63"/><polygon class="x" points="134.89 300.97 178.27 331.99 135.79 403.56 189.91 403.56 221.22 341.62 408.04 343 428.04 403.56 481.94 403.56 453.46 345.75 487.32 314.26 134.89 300.97"/><polygon class="e" points="189.91 403.56 224.56 377.76 245.22 341.8 221.22 341.62 189.91 403.56"/><polygon class="g" points="282.98 261.45 317.12 261.45 325.12 288.81 271.79 287.77 282.98 261.45"/><polygon class="am" points="325.12 288.81 282.98 261.45 271.79 287.77 325.12 288.81"/><polygon class="am" points="164.6 292.49 201.7 249.4 236.51 249.4 242.19 257.91 221.8 295.99 167.18 295.8 164.6 292.49"/><polygon class="h" points="164.02 264.04 184.15 257.59 178.27 273.33 157.95 280.62 164.02 264.04"/><polygon class="g" points="221.8 297.99 242.19 257.91 236.51 249.4 214.29 290.81 164.6 292.49 164.18 295.8 221.8 297.99"/><polygon class="a" points="201.15 274.6 203.13 274.6 206.7 269.7 204.4 269.7 201.15 274.6"/><polygon class="a" points="205.43 268.15 207.82 268.15 211.08 263.68 208.4 263.68 205.43 268.15"/><polygon class="a" points="205.79 280.97 208.95 280.97 212.07 276.15 209 276.15 205.79 280.97"/><polygon class="a" points="214.33 268.15 217.24 268.15 220.13 263.68 217.31 263.68 214.33 268.15"/><polygon class="a" points="200.12 276.15 196.92 280.97 198.51 280.97 202.01 276.15 200.12 276.15"/><polygon class="a" points="221.13 262.13 224.47 256.98 221.78 256.98 218.34 262.13 221.13 262.13"/><polygon class="a" points="210.03 274.6 213.07 274.6 216.24 269.7 213.3 269.7 210.03 274.6"/><polygon class="a" points="212.2 262.13 215.95 256.98 212.85 256.98 209.43 262.13 212.2 262.13"/><polygon class="a" points="192.16 276.15 192.16 274.6 193.84 274.6 197.44 269.7 196.59 269.7 196.59 268.15 198.58 268.15 201.87 263.68 200.89 263.68 200.89 262.13 203 262.13 206.79 256.98 204.33 256.98 187.22 280.97 189.16 280.97 192.7 276.15 192.16 276.15"/><polygon class="f" points="204.33 256.98 198.44 256.98 179.58 280.97 187.22 280.97 204.33 256.98"/><polygon class="f" points="173.68 288.48 182.06 288.19 186.11 282.51 178.36 282.51 173.68 288.48"/><polygon class="f" points="208.13 251.65 202.63 251.65 199.66 255.43 205.43 255.43 208.13 251.65"/><polygon class="f" points="192.7 276.15 189.16 280.97 196.92 280.97 200.12 276.15 192.7 276.15"/><polygon class="f" points="204.4 269.7 197.44 269.7 193.84 274.6 201.15 274.6 204.4 269.7"/><polygon class="f" points="208.4 263.68 201.87 263.68 198.58 268.15 205.43 268.15 208.4 263.68"/><polygon class="f" points="216.38 251.65 210.71 251.65 207.93 255.43 213.88 255.43 216.38 251.65"/><polygon class="f" points="209.43 262.13 212.85 256.98 206.79 256.98 203 262.13 209.43 262.13"/><polygon class="f" points="183.64 288.48 192.3 287.93 195.9 282.51 188.02 282.51 183.64 288.48"/><polygon class="f" points="202.01 276.15 198.51 280.97 205.79 280.97 209 276.15 202.01 276.15"/><polygon class="f" points="203.13 274.6 210.03 274.6 213.3 269.7 206.7 269.7 203.13 274.6"/><polygon class="f" points="225.33 251.65 219.82 251.65 217.08 255.43 222.81 255.43 225.33 251.65"/><polygon class="f" points="218.34 262.13 221.78 256.98 215.95 256.98 212.2 262.13 218.34 262.13"/><polygon class="f" points="193.5 287.85 201.51 287.4 204.76 282.51 197.38 282.51 193.5 287.85"/><polygon class="f" points="207.82 268.15 214.33 268.15 217.31 263.68 211.08 263.68 207.82 268.15"/><polygon class="f" points="204.78 287.43 213.37 287.29 216.06 282.51 207.95 282.51 204.78 287.43"/><polygon class="f" points="233.41 251.65 227.91 251.65 225.47 255.43 231.29 255.43 233.41 251.65"/><polygon class="f" points="213.07 274.6 220.51 274.6 223.26 269.7 216.24 269.7 213.07 274.6"/><polygon class="f" points="208.95 280.97 216.93 280.97 219.64 276.15 212.07 276.15 208.95 280.97"/><polygon class="f" points="221.13 262.13 227.52 262.13 230.42 256.98 224.47 256.98 221.13 262.13"/><polygon class="f" points="220.13 263.68 217.24 268.15 224.13 268.15 226.65 263.68 220.13 263.68"/><polygon class="y" points="184.15 257.59 195.77 268.97 189.69 277.5 178.27 273.33 184.15 257.59"/><polygon class="f" points="304.18 246.91 294.5 270.91 299.34 278.06 312.14 274.57 314.79 249.93 304.18 246.91"/><polygon class="g" points="286.76 163.67 266.63 224.98 360.74 279.94 375.06 271.77 405.31 163.67 395.31 157.54 286.76 163.67"/><polygon class="f" points="405.31 163.67 395.31 157.54 360.74 279.94 375.06 271.77 405.31 163.67"/><polygon class="ab" points="291.92 169.79 381.46 169.79 357.43 259.35 275.41 220.08 291.92 169.79"/><path class="f" d="M355.27,266.72c0,2.32-1.27,4.19-2.84,4.19s-2.83-1.87-2.83-4.19,1.27-4.19,2.83-4.19S355.27,264.4,355.27,266.72Z"/><polygon class="f" points="314.79 249.93 298.25 240.48 300.59 236 317.12 245.45 314.79 249.93"/><polygon class="ag" points="381.46 169.79 275.41 220.08 357.43 259.35 381.46 169.79"/><polygon class="f" points="271.79 287.77 271.79 291.49 326.67 294.31 325.12 288.81 271.79 287.77"/><polygon class="g" points="299.34 278.06 314.33 252.84 304.18 246.91 292.44 271.94 299.34 278.06"/><polygon class="f" points="345.08 179.31 295.43 174.69 294.15 179.56 343.39 187.76 345.08 179.31"/><polygon class="f" points="362.11 198.75 292.01 187.66 290.53 193.29 359.01 209.84 362.11 198.75"/><polygon class="f" points="354.93 225.96 357.29 216.72 288.79 199.9 287.28 205.64 354.93 225.96"/><polygon class="f" points="349.6 243.56 351.96 234.79 285.25 213.35 284.17 217.43 349.6 243.56"/><polygon class="j" points="408.39 201.93 441.42 207.43 472.04 198.75 495.44 228.46 464.95 275.13 403.57 275.13 393.25 246.91 408.39 201.93"/><polygon class="ab" points="408.39 201.93 402.54 240.46 495.44 228.46 472.04 198.75 408.39 201.93"/><polygon class="n" points="469.8 202.38 466.28 202.59 477.98 226.76 483.37 226.33 469.8 202.38"/><polygon class="n" points="459.77 203 466.7 228.45 472.3 227.63 462.93 202.81 459.77 203"/><polygon class="n" points="451.7 203.52 455.46 230.02 460.88 229.17 454.8 203.34 451.7 203.52"/><polygon class="n" points="443.01 204.11 444.01 231.69 449.68 230.66 446.11 203.93 443.01 204.11"/><polygon class="n" points="414.75 205.58 410.51 235.62 415.53 234.91 417.9 205.4 414.75 205.58"/><polygon class="n" points="422.99 205.1 418.17 234.59 423.92 233.91 426.11 204.93 422.99 205.1"/><polygon class="n" points="429.81 204.67 427.06 233.41 432.9 232.66 432.9 204.49 429.81 204.67"/><polygon class="n" points="436.34 204.67 435.83 232.64 441.42 232.03 439.44 204.49 436.34 204.67"/><polygon class="n" points="393.25 246.91 402.54 240.46 408.39 201.93 393.25 246.91"/><polygon class="ae" points="487.32 314.26 134.89 300.97 178.27 331.99 221.22 341.62 408.04 343 453.46 345.75 487.32 314.26"/><polygon class="ab" points="343.27 285.36 393.25 275.13 432.9 312.21 422.14 327.68 369.85 335.17 371.12 309.88 343.27 285.36"/><polygon class="ak" points="369.85 335.17 433.5 327.68 432.9 312.21 371.12 309.88 369.85 335.17"/><polygon class="f" points="385.52 316.28 384.35 315.83 378.97 326.63 382.18 325.82 385.52 316.28"/><polygon class="f" points="385.87 324.66 387.75 322.51 379.44 317.24 379.44 319.03 385.87 324.66"/><path class="f" d="M382.5,329.74h-.33c-4.91-.25-6.36-3.09-6.82-4.75-1.47-5.28,3.15-9.35,3.15-9.35l.78,1.22c-1,.64-2.93,4.56-2.11,7.66.55,2.09,2.26,3.22,5.1,3.36a4.93,4.93,0,0,0,3.65-1.41,7.26,7.26,0,0,0,2.18-5.25c0-3.68-2.64-6.67-5.88-6.67V312.7c4.28,0,7.76,3.82,7.76,8.52a9,9,0,0,1-2.76,6.59A6.86,6.86,0,0,1,382.5,329.74Z"/><path class="e" d="M419.05,322.17l-2.4,1.85,1.69,1.29,3.25-4.77-.94-2.57-2.88.5-.87,3.29Zm-.46-2.45,1.12,0,.16.71-.4.75-1.27-.06Z"/><polygon class="e" points="415.35 324.99 415.55 323.79 414.72 324.16 415.3 321.66 414.15 322.11 414.17 324.24 413 324.55 412.93 324.99 415.35 324.99"/><polygon class="e" points="412.44 324.9 413.18 321.95 412.14 321.76 411.93 323.04 411.3 323.02 411.5 321.77 410.4 322.09 410.37 324.97 410.73 325.04 411.07 323.87 411.75 323.79 411.74 324.77 412.44 324.9"/><polygon class="n" points="368.14 302.1 363.27 298.94 403.98 291.1 406.89 294.35 368.14 302.1"/><polygon class="n" points="396.03 281.45 393.05 278.19 351.1 286.4 355.27 290.13 396.03 281.45"/><polygon class="n" points="398.85 284.53 357.47 292.32 361.42 295.98 401.82 287.78 398.85 284.53"/><polygon class="n" points="410.99 297.8 371.55 305.39 375.2 308.79 413.96 301.04 410.99 297.8"/><polygon class="w" points="204.58 198.03 212.69 178.93 197 191.15 191.88 206.95 204.58 198.03"/><polygon class="ae" points="227.68 213.3 229.16 210.22 229.12 209.71 226.99 206.52 226.99 201.56 229.06 201.56 229.06 205.74 229.14 206.02 231.66 209.78 229.97 213.3 227.68 213.3"/><polygon class="ae" points="235.12 213.3 236.59 210.22 236.56 209.71 234.42 206.52 234.42 201.56 236.49 201.56 236.49 205.74 236.57 206.02 239.09 209.78 237.4 213.3 235.12 213.3"/><polygon class="ae" points="241.75 213.3 243.22 210.22 243.19 209.71 241.05 206.52 241.05 201.56 243.12 201.56 243.12 205.74 243.21 206.02 245.72 209.78 244.03 213.3 241.75 213.3"/><polygon class="am" points="112.12 221.17 96.32 213.3 22 228.71 62.08 236.29 112.12 221.17"/><polygon class="g" points="284.18 431 360.9 342.65 344.74 329.74 261.13 326.63 284.18 431"/><polygon class="f" points="269.56 327.51 268.35 326.89 261.13 326.63 254.93 403.18 284.18 431 293.21 431 294.5 344.2 269.56 327.51"/><polygon class="b" points="281.25 360.08 262.05 345.23 262.5 338.98 281.25 352.92 281.25 360.08"/><polygon class="b" points="281.25 369.42 261.43 354.31 262.05 347.23 281.25 362.25 281.25 369.42"/><polygon class="b" points="277.08 371.49 264.25 361.33 264.25 358.74 277.08 369.04 277.08 371.49"/><polygon class="b" points="294.63 431 294.5 344.2 271.79 327.02 261.13 326.63 285.73 344.37 284.18 431 294.63 431"/><polygon class="b" points="261.43 409.36 260.13 408.12 274.72 422 276.05 389.49 265.34 380.2 261.43 409.36"/><path class="f" d="M271.76,394.17c0,2.16-1,3.91-2.16,3.91s-2.16-1.75-2.16-3.91,1-3.91,2.16-3.91S271.76,392,271.76,394.17Z"/><path class="f" d="M269.27,401c0,.92-.4,1.66-.91,1.66s-.91-.74-.91-1.66.41-1.65.91-1.65S269.27,400.12,269.27,401Z"/><polygon class="f" points="360.9 342.65 294.5 344.2 294.63 431 375.06 431 360.9 342.65"/><polygon class="f" points="280.07 367.66 277.88 366 277.88 365.11 280.07 366.77 280.07 367.66"/><polygon class="f" points="280.55 358.74 278.35 357.08 278.35 356.19 280.55 357.85 280.55 358.74"/><rect class="f" x="287.4" y="417.49" width="3.1" height="7.1"/><rect class="f" x="287.4" y="407.7" width="3.1" height="7.1"/><polygon class="t" points="70.58 332.84 85.72 322.9 82.22 335 70.58 332.84"/><polygon class="f" points="164.6 292.49 214.29 290.81 221.8 297.99 164.18 295.8 164.6 292.49"/><polygon class="d" points="527.81 1.25 591 182.35 398.58 151.72 385.82 142.78 527.81 1.25"/><rect class="an" x="411.23" y="5.59" width="112.24" height="112.24"/><polygon class="g" points="519.14 66.05 527.81 57.37 406.89 57.37 415.57 66.05 519.14 66.05"/><polygon class="g" points="463.02 113.49 471.69 122.17 471.69 1.25 463.02 9.93 463.02 113.49"/><rect class="a" x="415.57" y="9.93" width="103.57" height="103.57"/><polygon class="g" points="519.14 9.93 527.81 1.25 406.89 1.25 415.57 9.93 519.14 9.93"/><polygon class="g" points="415.57 113.49 405 123.67 529.73 123.67 519.14 113.49 415.57 113.49"/><polygon class="f" points="415.57 9.93 406.89 1.25 406.89 122.17 415.57 113.49 415.57 9.93"/><polygon class="f" points="519.14 113.49 527.81 122.17 527.81 1.25 519.14 9.93 519.14 113.49"/><rect class="f" x="463.02" y="9.93" width="8.68" height="2.98"/><rect class="f" x="463.02" y="110.51" width="8.68" height="2.98"/><rect class="f" x="471.69" y="57.37" width="2.98" height="8.68"/><rect class="f" x="516.16" y="57.37" width="2.98" height="8.68"/><rect class="f" x="415.57" y="57.37" width="2.98" height="8.68"/><rect class="f" x="460.03" y="57.37" width="2.98" height="8.68"/><polygon class="g" points="552.14 137.32 382.57 137.32 382.57 122.17 387.99 122.17 552.14 122.17 552.14 137.32"/><path class="ab" d="M500.51,16.56a14.24,14.24,0,0,0-3,.33,13.81,13.81,0,0,1,0,27,14.24,14.24,0,0,0,3,.33,13.81,13.81,0,0,0,0-27.61Z"/><polygon class="f" points="382.57 137.32 385.82 142.78 548.88 142.78 552.14 137.32 382.57 137.32"/><polygon class="am" points="552.14 125.24 382.57 125.24 382.57 122.17 391.71 122.17 394.1 118.58 427.03 122.17 552.14 122.17 552.14 125.24"/><polygon class="g" points="404.92 91.74 406.95 78.73 400.18 68.15 401.94 66.8 415.36 76.69 417.26 91.02 404.92 91.74"/><polygon class="am" points="390.04 63.87 396.04 55.93 398.96 61.14 399.42 55.27 406.68 57 404.17 62.53 410.06 59.54 412.98 66.18 406.69 68.25 410.86 70.63 406.95 78.73 403.67 73.14 403.97 78.52 396.16 77.33 397.94 72.06 392.81 74.88 389.51 67.16 395.98 66.52 390.04 63.87"/><polygon class="ae" points="403.5 69.82 401.1 70.71 398.77 69.64 397.88 67.23 398.95 64.91 401.36 64.02 403.68 65.09 404.57 67.5 403.5 69.82"/><polygon class="am" points="415.36 76.69 406.95 78.73 401.21 95.78 415.36 76.69"/><polygon class="ae" points="430.75 122.17 391.71 122.17 389.54 93.1 432.92 93.1 430.75 122.17"/><rect class="x" x="386.29" y="87.99" width="49.89" height="6.06"/><polygon class="d" points="234.56 93.1 234.56 102.62 260.79 130.23 302.54 130.23 333.09 101.52 331.06 60.24 324.73 55.75 234.56 93.1"/><polygon class="ae" points="260.97 119.51 234.56 93.1 234.56 55.75 260.97 29.34 298.32 29.34 324.73 55.75 324.73 93.1 298.32 119.51 260.97 119.51"/><polygon class="ab" points="264.15 111.81 242.25 89.91 242.25 58.94 264.15 37.03 295.13 37.03 317.03 58.94 317.03 89.91 295.13 111.81 264.15 111.81"/><polygon class="ak" points="317.03 89.91 317.03 58.94 295.13 37.03 264.15 111.81 295.13 111.81 317.03 89.91"/><polygon class="g" points="277.83 78.78 275.28 76.23 275.28 72.62 277.83 70.06 281.45 70.06 284 72.62 284 76.23 281.45 78.78 277.83 78.78"/><rect class="g" x="279.64" y="73.54" width="27.11" height="1.76"/><rect class="g" x="272.53" y="44.83" width="1.76" height="30.81" transform="translate(-0.64 117.49) rotate(-24.22)"/><rect class="b" x="278.45" y="39.14" width="2.37" height="4.58"/><rect class="b" x="278.45" y="105.13" width="2.37" height="4.58"/><rect class="b" x="310.35" y="73.24" width="4.58" height="2.37"/><rect class="b" x="244.36" y="73.24" width="4.58" height="2.37"/><rect class="b" x="301.79" y="95.46" width="2.37" height="4.58" transform="translate(19.59 242.81) rotate(-44.99)"/><rect class="b" x="255.12" y="48.8" width="2.37" height="4.58" transform="translate(38.94 196.2) rotate(-45)"/><rect class="b" x="254.02" y="96.57" width="4.58" height="2.37" transform="translate(5.95 209.88) rotate(-45)"/><rect class="b" x="300.68" y="49.9" width="4.58" height="2.37" transform="translate(52.63 229.23) rotate(-45.01)"/></svg>