<svg xmlns="http://www.w3.org/2000/svg" viewBox="0 0 600 450"><defs><style>.a,.ad{fill:#2b2b2b;}.a{opacity:0.1;}.b{fill:#785d88;}.c{fill:#594165;}.d{fill:#9075a0;}.e{fill:#5ec0d9;}.f{fill:#3aa0ba;}.ai,.g{fill:#27788c;}.h{fill:#8f8f8f;}.i{fill:#318fa6;}.j{fill:#4f5253;}.k{fill:#6f7173;}.ak,.l{fill:#72cbcc;}.m{fill:#b3889d;}.n{fill:#c4c4c4;}.o{fill:#ececeb;}.p{fill:#8b6651;}.q{fill:#dfbda5;}.r{fill:#c3987b;}.s{fill:#dddddc;}.t{fill:#a3a3a3;}.u{fill:none;}.v{fill:#96637c;}.w{fill:#fff;}.x{fill:#e8cab6;}.y{fill:#543042;}.z{fill:#734d60;}.aa{fill:#474747;}.ab,.aj{fill:#73cfe5;}.ac{fill:#50a9aa;}.ae{fill:#369496;}.af{fill:#1c7678;}.ag{fill:#a688ba;}.ah{fill:#cececd;}.ah,.ai,.aj,.ak{fill-rule:evenodd;}</style></defs><title>scene_trait_intuition</title><polygon class="a" points="87 402.9 212.7 396.59 352.5 415.49 222.9 428.09 87 402.9"/><polygon class="a" points="478.5 436.09 600 416.99 481.5 407.39 355.93 421.58 478.5 436.09"/><rect class="b" x="556.2" y="324.59" width="16.78" height="93.1"/><rect class="b" x="387.6" y="324.59" width="16.79" height="93.1"/><polygon class="c" points="556.2 324.59 573 324.59 573 336.6 556.2 336.6 556.2 324.59"/><polygon class="c" points="387.6 324.59 404.4 324.59 404.4 336.6 387.6 336.6 387.6 324.59"/><rect class="d" x="369.6" y="311.39" width="214.17" height="16.78"/><polygon class="e" points="25.8 236.09 0 235.79 1.8 267.59 8.7 243.59 30 244.2 30.9 252.6 27.3 266.4 3.9 271.19 33 273.59 39.3 247.19 25.8 236.09"/><polygon class="f" points="156.3 311.99 117.3 221.69 97.2 210.59 36.6 234.9 41.7 243.29 100.5 221.09 106.5 224.99 137.4 311.39 156.3 311.99"/><rect class="g" x="111.6" y="304.19" width="69.19" height="20.63"/><rect class="h" x="111" y="345.3" width="149.4" height="35.4"/><path class="i" d="M106.8,316.5H264.6v69.59H254.1a28.24,28.24,0,0,0-56.4,0h-24a28.4,28.4,0,0,0-56.7,0H106.8l-30.3-51Z"/><polygon class="e" points="106.8 316.5 264.6 316.5 264.6 335.1 76.5 335.1 106.8 316.5"/><path class="e" d="M260.4,386.09h-6.3a28.24,28.24,0,0,0-56.4,0h-6.3a34.53,34.53,0,0,1,69,0Z"/><path class="e" d="M180,386.09h-6.3a28.4,28.4,0,0,0-56.7,0h-6.3a34.82,34.82,0,0,1,34.5-33C163.8,353.09,178.8,367.79,180,386.09Z"/><path class="j" d="M145.2,365.09a22.8,22.8,0,1,1-22.8,22.8A22.8,22.8,0,0,1,145.2,365.09Z"/><path class="k" d="M145.2,375.29a12.61,12.61,0,1,1-12.6,12.6A12.6,12.6,0,0,1,145.2,375.29Z"/><path class="j" d="M225.9,365.09a22.8,22.8,0,1,1-22.8,22.8A22.8,22.8,0,0,1,225.9,365.09Z"/><path class="k" d="M225.9,375.29a12.61,12.61,0,1,1-12.6,12.6A12.6,12.6,0,0,1,225.9,375.29Z"/><rect class="e" x="175.5" y="378.6" width="18.97" height="7.48"/><rect class="l" x="255" y="378.6" width="13.33" height="7.48"/><rect class="e" x="102.3" y="378.6" width="13.33" height="7.48"/><polygon class="g" points="110.7 200.69 115.5 204.89 120 209.39 118.8 215.39 117.3 221.69 111.3 223.5 105.3 225.59 100.5 221.09 95.7 216.89 97.2 210.59 98.4 204.59 104.7 202.5 110.7 200.69"/><polygon class="e" points="109.2 206.99 111.6 209.09 114 211.19 113.4 214.19 112.5 217.49 109.5 218.4 106.5 219.29 104.1 217.19 102 215.09 102.6 211.79 103.2 208.79 106.2 207.9 109.2 206.99"/><polygon class="g" points="36.3 227.69 41.1 232.19 45.9 236.39 44.4 242.69 43.2 248.99 36.9 250.8 30.9 252.6 26.1 248.4 21.6 244.2 22.8 237.89 24.3 231.59 30.3 229.79 36.3 227.69"/><polygon class="e" points="35.1 233.99 37.5 236.09 39.6 238.49 39 241.49 38.4 244.49 35.4 245.39 32.4 246.3 30 244.2 27.6 242.1 28.2 239.09 29.1 236.09 32.1 235.2 35.1 233.99"/><polygon class="m" points="187.5 149.09 179.4 184.19 153 208.19 160.8 155.99 187.5 149.09"/><polygon class="n" points="387.3 57.9 409.2 27.9 436.2 132.29 357.6 154.19 298.5 184.19 351 145.19 387.3 57.9"/><polygon class="o" points="298.5 184.19 356.1 149.09 431.4 126.59 409.2 27.9 307.5 89.39 320.1 159.29 332.7 154.19 298.5 184.19"/><polygon class="p" points="327 184.19 324.6 182.99 332.4 172.79 335.7 173.39 334.5 180.9 327 184.19"/><polygon class="q" points="328.8 197.09 333.6 192.59 354.3 188.39 346.8 178.79 324.6 182.99 323.7 186.89 328.8 197.09"/><polygon class="r" points="354.3 188.39 361.5 174.59 353.4 171.89 346.8 178.79 354.3 188.39"/><polygon class="s" points="306.6 237.6 330.3 231.89 333.6 192.59 323.7 186.89 306.6 237.6"/><polygon class="n" points="276 231.29 279 227.09 330.3 231.89 299.4 252.29 276 231.29"/><polygon class="p" points="222 329.69 231 331.19 232.2 321.3 222 329.69"/><polygon class="r" points="220.2 311.09 224.1 310.19 234.9 318.29 231 331.19 219 318.6 220.2 311.09"/><polygon class="b" points="249.3 233.1 239.1 258.89 253.8 299.69 289.5 275.1 276 238.19 249.3 233.1"/><polygon class="d" points="257.1 244.2 270.6 246.3 269.4 239.4 261.6 229.49 253.5 239.09 257.1 244.2"/><polygon class="n" points="211.2 282.89 192.6 302.99 219 318.6 224.1 310.19 211.2 282.89"/><polygon class="t" points="221.4 254.09 213.6 257.69 192.6 302.99 225.3 283.8 221.4 254.09"/><line class="u" x1="276.3" y1="236.09" x2="297.3" y2="258.89"/><polygon class="s" points="232.5 238.19 262.8 275.69 258.3 397.49 213.6 387.89 237.3 310.19 213.6 257.4 232.5 238.19"/><polygon class="v" points="180 266.1 155.4 248.99 178.5 242.1 218.7 224.09 180 266.1"/><polygon class="h" points="227.7 386.09 308.4 386.09 305.7 368.99 232.5 363.89 227.7 386.09"/><polygon class="r" points="258.3 401.69 259.5 372.29 237.3 372.29 247.2 402.6 255 409.19 258.3 401.69"/><polygon class="b" points="237.3 310.19 270.9 308.1 288.6 316.19 301.8 372.29 259.5 372.29 237.3 310.19"/><polygon class="s" points="261.6 229.49 277.8 269.99 305.4 388.79 330.9 365.1 296.4 298.8 299.4 252.29 279 227.09 261.6 229.49"/><polygon class="v" points="187.5 149.09 153 208.19 218.7 224.09 187.5 149.09"/><polygon class="q" points="263.7 132.9 269.4 137.09 292.5 201.29 267 212.4 257.1 244.2 232.5 238.19 192.6 196.79 192.6 141.59 244.5 118.19 263.7 132.9"/><polygon class="r" points="257.1 244.2 259.8 235.79 259.8 235.79 237.3 225.59 246.6 221.09 221.7 159.29 212.4 151.19 192.6 196.79 232.5 238.19 257.1 244.2"/><polygon class="p" points="237.3 225.59 259.8 235.79 259.8 235.79 267 212.4 237.3 225.59"/><polygon class="m" points="212.4 151.19 263.7 132.9 244.8 115.5 189.6 140.09 176.4 196.19 208.2 212.99 192.6 196.79 198.3 183.29 212.7 199.79 218.7 190.79 203.4 171.59 212.4 151.19"/><polygon class="p" points="208.2 212.99 212.7 206.69 218.7 224.09 208.2 212.99"/><polygon class="q" points="208.2 212.99 215.4 202.79 198.3 183.29 192.6 196.79 208.2 212.99"/><polygon class="p" points="200.1 190.49 206.1 196.49 196.8 195.9 200.1 190.49"/><polygon class="w" points="219.6 206.99 216.3 210.29 209.1 203.09 212.7 199.49 219.6 206.99"/><polygon class="x" points="269.7 182.39 260.7 185.4 250.2 159.29 259.2 155.99 269.7 182.39"/><polygon class="p" points="269.7 182.39 267 187.49 260.7 185.4 269.7 182.39"/><path class="c" d="M250.2,159.29l-24.9,9,7.5,18.59,24.6-9.3Zm-19.5,11.4h0l17.1-6,4.2,10.5-16.8,6.3Z"/><path class="c" d="M282,147.59,259.2,156l7.5,18.6,22.5-8.4Zm-17.4,10.8h0l15-5.39,4.2,10.79-14.7,5.4Z"/><polygon class="c" points="272.4 155.69 270.9 151.79 246.9 160.49 248.4 164.4 272.4 155.69"/><polygon class="y" points="246 156.29 243 157.19 237 154.79 231.6 161.69 236.1 152.09 246 156.29"/><polygon class="y" points="258.6 152.69 261 152.09 263.1 145.49 269.4 146.69 262.2 143.4 258.6 152.69"/><polygon class="r" points="276.9 170.69 267.6 177.29 266.7 174.59 276.9 170.69"/><polygon class="r" points="236.1 185.4 259.2 181.79 257.4 177.59 236.1 185.4"/><polygon class="r" points="230.7 170.69 250.2 170.69 247.8 164.69 230.7 170.69"/><polygon class="r" points="272.4 155.69 267 164.09 264.6 158.4 272.4 155.69"/><polygon class="v" points="244.8 115.5 240.6 141.29 263.7 132.9 244.8 115.5"/><polygon class="z" points="198.3 183.29 212.7 199.49 218.7 190.79 203.4 171.59 212.4 151.19 189.6 140.09 176.4 196.19 192.6 196.79 198.3 183.29"/><polygon class="c" points="198.3 183.29 195.3 190.49 192.6 181.19 225.3 168.29 228.9 176.99 198.3 183.29"/><polygon class="y" points="176.4 196.19 208.2 212.99 192.6 196.79 176.4 196.19"/><polygon class="y" points="218.7 224.09 180 266.1 176.4 213.89 218.7 224.09"/><polygon class="z" points="153 208.19 176.4 196.19 208.2 212.99 218.7 224.09 153 208.19"/><polygon class="o" points="238.5 258.29 236.1 269.69 255.9 279.3 262.8 275.69 249.6 259.5 238.5 258.29"/><polygon class="d" points="257.1 244.2 246.3 255.59 232.5 238.19 257.1 244.2"/><polygon class="o" points="261.6 229.49 277.2 268.79 290.7 241.8 261.6 229.49"/><polygon class="r" points="308.4 400.79 301.8 372.29 280.8 372.29 298.5 401.39 304.5 405.29 308.4 400.79"/><polygon class="o" points="288.6 316.19 330.9 365.1 296.4 298.8 288.6 316.19"/><polygon class="p" points="301.8 372.29 280.8 372.29 283.5 376.8 301.8 372.29"/><polygon class="p" points="258.3 398.1 258.3 397.49 244.8 394.49 246.3 399.59 258.3 398.1"/><polygon class="s" points="232.5 238.19 262.8 275.69 258.3 397.49 213.6 387.89 237.3 310.19 213.6 257.4 232.5 238.19"/><polygon class="n" points="261.3 313.19 213.6 387.89 237.3 310.19 261.3 313.19"/><polygon class="n" points="288.6 316.19 330.9 365.1 305.7 388.79 288.6 316.19"/><polygon class="d" points="261.3 313.19 301.8 372 288.6 316.19 261.3 313.19"/><polygon class="h" points="277.2 268.79 280.8 284.39 288.6 316.19 296.4 298.8 299.4 252.29 277.2 268.79"/><polygon class="h" points="262.8 275.69 229.2 292.5 237.3 310.19 261.3 313.19 261.3 313.19 262.8 275.69"/><polygon class="c" points="280.8 284.39 277.2 268.79 262.8 275.69 262.8 275.69 261.3 312.89 261.6 313.19 288.6 316.19 280.8 284.39"/><polygon class="b" points="298.5 401.39 308.4 400.79 326.44 414.12 327.9 416.99 306 416.99 298.5 401.39"/><polygon class="c" points="303 416.99 304.5 413.69 298.5 401.39 298.8 416.99 303 416.99"/><polygon class="g" points="504.33 414.12 480.66 421.58 481.17 426.89 511.76 426.29 511.59 421.82 504.33 414.12"/><polygon class="g" points="400.13 412.09 386.11 416.74 386.17 421.28 424.99 421.58 425.16 416.56 400.13 412.09"/><polygon class="f" points="386.11 416.74 407.68 401.58 408.19 400.63 424.13 397.05 425.44 402.95 425.21 416.56 386.11 416.74"/><polygon class="f" points="480.66 421.58 488.89 405.4 493.03 392.63 504.21 404.51 505.01 404.92 511.59 421.82 480.66 421.58"/><polyline class="j" points="417.04 322.97 411.88 367.38 422.66 382.36 439.63 378.3 453.87 354.31 466.3 331.09"/><polygon class="aa" points="411.88 367.38 407.68 401.58 425.44 402.95 439.63 378.3 411.88 367.38"/><polyline class="j" points="461.88 335.92 451.94 350.55 453.87 354.31 473.57 382.96 486 390.06 501.09 376.39 496.61 342.31"/><polygon class="aa" points="505.01 404.92 501.09 376.39 473.57 382.96 488.89 405.4 505.01 404.92"/><polyline class="aa" points="417.04 322.97 453.87 354.31 496.61 342.31"/><polygon class="b" points="247.2 402.6 258.3 401.69 274.4 414.12 276 417.29 253.2 417.29 247.2 402.6"/><polygon class="c" points="250.8 417.29 252 414.3 247.2 402.6 246.9 417.29 250.8 417.29"/><polygon class="o" points="232.5 238.19 228.9 259.5 253.2 264 232.5 238.19"/><polygon class="d" points="251.4 195.9 256.2 195.29 266.7 190.79 274.2 190.19 278.1 188.69 269.4 205.19 251.4 195.9"/><path class="c" d="M255.9,196.49c.3,0,19.2-4.8,19.2-4.8l-4.8,8.4-3,.9Z"/><path class="w" d="M255.9,196.49c.3,0,19.2-4.8,19.2-4.8l-1.8,3.3-13.2,3.3Z"/><polygon class="f" points="421.8 120 419.1 111.59 395.7 115.19 378.9 120.29 367.2 121.19 354 126.29 342.6 127.19 331.8 132.59 324 133.19 326.4 146.69 421.8 120"/><polygon class="ab" points="419.1 111.59 395.7 115.19 378.9 120.29 367.2 121.19 354 126.29 342.6 127.19 331.8 132.59 324 133.19 324.6 136.5 333.6 134.09 344.4 133.19 365.1 125.99 387.3 121.49 398.1 118.19 404.1 118.19 419.1 111.59"/><path class="ab" d="M339.3,137.69l-.6.91,1.2.59.9-.9Zm67.8-18.89-.6,1.2,1.2.59.6-.9Zm-7.5,3.3-.6.59.6.3.6-.6Zm-9,1.2-.6.89.9.6.9-.9Zm-7.8,1.79-.3.9.6.3.9-.6Zm-6,3.9-.6.9,1.2.6.9-.9Zm-8.4.3-.6.9.9.61.9-.91Zm1.5-2.69-.3.59.6.3.3-.6Zm-5.1,5.4-.3.6.6.59.6-.59Zm-9.3-1.51-.3.6.3.3.6-.3Zm-6.6,6-.6.59.6.3.6-.6ZM343.5,135l-.6.91.9.29.6-.59Z"/><polygon class="p" points="411.9 323.4 417 324.89 419.1 317.99 411.9 323.4"/><path class="r" d="M415.2,307.19v3.9l1.8,13.8s16.2-12.59,16.2-13.2c.3-.6-6.6-8.09-6.6-8.09Z"/><path class="l" d="M423.9,271.19l-14.4,6.9,5.7,33,7.5-5.09,6.6-21.61S423.3,271.79,423.9,271.19Z"/><polygon class="ac" points="444 253.49 439.8 246.6 409.5 278.09 438.3 287.09 444 253.49"/><polygon class="r" points="480.9 247.79 484.5 243.29 516.9 203.69 512.7 159.89 505.8 172.19 482.1 231.29 474.3 243.59 471 251.09 480.9 247.79"/><polygon class="p" points="454.5 245.39 453.6 235.79 450 220.79 452.7 219.89 483 228.59 484.8 230.69 471 251.09 454.5 245.39"/><polygon class="r" points="460.8 231.59 467.7 234.9 471 226.79 465 224.99 460.8 231.59"/><polygon class="aa" points="441.3 185.4 440.7 141.29 443.7 141.59 451.5 146.09 451.8 149.09 441.3 185.4"/><polygon class="q" points="451.5 146.09 431.7 215.69 484.8 230.39 512.7 159.89 451.5 146.09"/><polygon class="p" points="504.3 219 510.6 211.19 499.8 207.29 504.3 219"/><polygon class="ad" points="472.8 167.99 440.7 141.29 466.5 123.59 469.5 123.59 474.3 164.09 505.8 135.9 509.4 135.9 525 157.49 523.8 158.4 507 162.29 505.5 161.39 472.8 167.99"/><polygon class="k" points="491.4 111.59 509.4 135.9 472.8 167.99 466.5 123.59 491.4 111.59"/><path class="ad" d="M531.9,190.19l-6.9-32.7-3.9,3s-14.1,26.4-14.1,26.7a21,21,0,0,0-.9,3.6l4.5,20.4Z"/><polygon class="aa" points="506.1 190.79 505.5 161.39 525 157.49 506.1 190.79"/><polygon class="q" points="499.8 207.29 510.6 211.19 519.9 194.99 506.1 190.79 499.8 207.29"/><polygon class="r" points="505.2 202.79 508.5 194.69 515.1 197.09 505.2 202.79"/><polygon class="r" points="458.7 192.89 453.3 175.5 446.7 167.39 459.3 167.99 462.9 169.5 465.9 172.79 467.7 177.59 474.6 174.59 477.6 178.19 494.1 175.19 498.3 177.59 484.2 181.49 468.6 194.39 458.7 192.89"/><polygon class="r" points="461.7 198.29 458.7 192.89 468.6 194.39 461.7 198.29"/><polygon class="x" points="465.9 172.79 458.7 192.89 468.6 194.39 474.6 174.59 465.9 172.79"/><polygon class="ad" points="462.9 169.5 460.2 164.09 446.7 167.39 462.9 169.5"/><polygon class="ad" points="477.6 178.19 494.4 171.89 498.3 177.59 477.6 178.19"/><polygon class="ae" points="439.8 246.6 450 248.1 458.7 258.89 465.3 281.4 466.8 284.39 460.2 330.89 455.7 333.89 417 324.89 439.8 246.6"/><polygon class="l" points="487.5 250.19 498.3 251.99 497.4 302.39 496.8 343.5 455.7 333.89 465 282.59 465.6 280.19 470.1 265.19 487.5 250.19"/><polygon class="o" points="467.4 248.1 454.8 266.1 450 248.1 453.9 241.19 467.4 248.1"/><polygon class="o" points="487.5 250.19 483.9 243.9 467.1 248.1 468.9 270.89 487.5 250.19"/><polygon class="aa" points="465 282.59 461.7 270.3 465.6 263.39 469.5 263.69 471.9 271.19 465 282.59"/><polygon class="x" points="467.7 234.9 463.2 217.49 451.5 220.49 448.8 230.69 453.9 241.19 460.5 245.69 467.7 234.9"/><polygon class="r" points="463.2 217.49 452.7 214.79 445.5 219.59 448.8 230.69 463.2 217.49"/><polygon class="ac" points="454.8 305.69 453.9 241.19 467.7 234.9 478.5 286.49 472.8 293.99 454.8 305.69"/><polygon class="af" points="498.3 251.99 497.7 293.39 454.8 305.69 498.3 251.99"/><polygon class="r" points="454.2 202.5 473.1 212.09 472.2 214.19 453.9 204.59 454.2 202.5"/><polygon class="w" points="397.8 86.99 396.3 93.29 375.6 108.89 391.5 93.59 397.8 86.99"/><polygon class="ag" points="389.1 88.19 387.9 93.59 399.3 93.29 402.9 87.59 397.8 85.49 389.1 88.19"/><polygon class="w" points="348.3 106.49 346.8 112.79 326.1 128.4 342.3 113.09 348.3 106.49"/><polygon class="ag" points="339.9 107.69 338.4 113.09 350.1 112.79 353.7 107.09 348.3 104.99 339.9 107.69"/><polygon class="b" points="386.4 80.39 372 70.49 342.3 82.5 340.2 98.09 335.1 100.19 326.7 97.8 333.6 115.19 410.1 84.89 405.3 73.49 386.4 80.39"/><polygon class="c" points="369.3 100.79 381.6 95.99 383.4 88.19 376.5 91.49 369.3 100.79"/><path class="w" d="M371.7,73.79,360,78.29l3.3,11.1,18.6-7.49Zm-14.4,5.7L345,84.29l-2.1,13.2,17.7-6.9Z"/><polygon class="d" points="362.4 96.59 383.4 88.19 378 92.4 369.9 106.49 357.6 111.89 362.4 96.59"/><polygon class="ag" points="362.4 96.59 383.4 88.19 378 92.4 362.4 96.59"/><circle class="ad" cx="245.65" cy="169.79" r="2.56"/><circle class="ad" cx="269.4" cy="160.65" r="2.56"/><circle class="ad" cx="453.4" cy="178.44" r="3.39"/><circle class="ad" cx="481.26" cy="184.22" r="3.39"/><polygon class="ah" points="573.92 285.26 579.33 283.1 579.33 290.37 573.83 294.41 573.92 285.26"/><polygon class="ai" points="510.94 301.54 562.86 303.2 561.24 314.05 510.94 311.51 510.94 301.54"/><polygon class="ah" points="561.24 304.82 569.13 303.48 579.62 301.56 579.62 311.39 561.24 314.05 561.24 304.82"/><polygon class="aj" points="510.94 301.54 531.22 298.34 579.62 301.56 561.24 304.82 510.94 301.54"/><polygon class="af" points="549.58 304.81 550.39 300.62 549.58 296.72 504.7 295.49 504.7 302.15 549.58 304.81"/><polygon class="ah" points="549.58 296.72 567.97 293.6 567.97 300.07 549.58 304.81 549.58 296.72"/><polygon class="ak" points="567.97 293.6 527.14 291.7 504.7 295.49 549.58 297.8 567.97 293.6"/><polygon class="ai" points="575 285.26 524.71 286.57 524.71 294.13 573.83 294.41 575 285.26"/><polygon class="aj" points="579.33 283.1 532.55 282.63 524.71 286.57 573.92 286.34 579.33 283.1"/><polygon class="af" points="567.97 277.67 519.3 276.59 520.38 284.97 567.97 284.97 567.97 277.67"/><polygon class="ah" points="520.38 276.59 515.34 273.25 515.34 279.93 520.38 284.97 520.38 276.59"/><polygon class="ak" points="515.34 273.25 560.4 273.25 567.97 277.67 520.38 277.67 515.34 273.25"/></svg>