<svg xmlns="http://www.w3.org/2000/svg" viewBox="0 0 600 450"><defs><style>.a{fill:#ececeb;}.b{fill:#2b2b2b;}.aj,.c{fill:#543042;}.d{fill:#72cbcc;}.e{fill:#165e60;}.f{fill:#50a9aa;}.g{fill:#1c7678;}.h{fill:#369496;}.i{fill:#ccad14;}.j{fill:#856400;}.k{fill:#e5c828;}.l{fill:#bf8f00;}.m{fill:#b3889d;}.ai,.n{fill:#96637c;}.o{fill:#734d60;}.p{fill:#a3a3a3;}.q{fill:#9da1a2;}.r{fill:#6f7173;}.s{fill:#858686;}.t{fill:#99c26d;}.u{fill:#446125;}.v{fill:#738d57;}.w{fill:#5a753d;}.x{fill:#d1a1b8;}.y{fill:#474747;}.z{fill:none;}.aa{fill:#5ec0d9;}.ab{fill:#318fa6;}.ac{fill:#8ce0dc;}.ad{fill:#4f5253;}.ae{fill:#785d88;}.ae,.af,.ag,.ah,.ai,.aj{fill-rule:evenodd;}.af{fill:#594165;}.ag{fill:#9075a0;}.ah{fill:#a688ba;}.ak{fill:#dfbda5;}.al{fill:#c3987b;}.am{fill:#e8cab6;}.an{fill:#8b6651;}.ao{fill:#8f8f8f;}.ap{fill:#b48c71;}.aq{fill:#755800;}.ar{fill:#fff;}.as{fill:#b58b00;}.at{fill:#9e7700;}</style></defs><title>scene_trait_prospecting</title><polygon class="a" points="595.15 361.06 547.91 436.18 334.37 357.87 569.06 357.64 595.15 361.06"/><path class="a" d="M4.84,391.06,163.23,372.4,313.46,397l-52.95,14.29-32.83,24.92L120.47,446.57Z"/><polygon class="b" points="308.5 257.13 372.87 243.9 587.83 250.87 579.8 265.51 518.5 291.14 318.19 276.97 308.5 257.13"/><polygon class="c" points="339.69 309.57 339.69 363.31 528.42 392.13 536.93 376.06 534.68 322.44 527.24 325.87 339.69 309.57"/><polygon class="c" points="339.69 309.57 339.69 325.75 339.8 325.63 528.07 369.57 536.45 363.54 534.68 322.44 527.24 325.87 339.69 309.57"/><polygon class="d" points="354.33 257.24 355.98 262.21 366.26 298.11 398.62 295.63 400.98 289.25 388.94 255.71 354.33 257.24"/><polygon class="e" points="437.13 231.85 411.73 217.09 408.66 220.28 407.48 232.09 416.93 245.44 434.52 250.87 437.13 231.85"/><polygon class="e" points="346.42 234.33 330.94 258.31 344.41 273.31 355.98 262.21 357.99 257.95 350.55 235.39 346.42 234.33"/><polygon class="e" points="394.6 216.02 359.52 225.71 354.45 229.13 365.19 246.03 380.55 246.03 396.61 230.2 394.6 216.02"/><polygon class="f" points="359.52 225.71 346.42 234.33 355.98 262.21 385.86 260.67 387.28 254.65 381.61 240.59 377.71 238.35 359.52 225.71"/><polygon class="g" points="398.62 295.63 429.68 282.76 416.93 245.44 411.61 244.96 399.8 249.69 385.86 260.67 398.62 295.63"/><polygon class="h" points="411.73 217.09 394.6 216.02 381.85 233.03 377.71 238.35 385.86 260.67 416.93 245.44 408.07 231.73 411.73 217.09"/><polygon class="i" points="475.63 248.97 475.15 254.18 470.31 291.26 501.02 301.89 505.63 296.93 508.11 261.38 475.63 248.97"/><polygon class="j" points="561.73 258.66 544.25 235.04 540.23 236.69 535.98 255.59 537.76 263.03 551.69 275.08 561.73 258.66"/><polygon class="j" points="477.52 224.88 453.78 240.71 460.04 259.84 475.15 254.18 478.7 251.1 480.83 227.36 477.52 224.88"/><polygon class="j" points="529.02 227.25 492.87 217.79 486.97 223.23 490.04 243.07 504.09 249.1 525.24 241.06 529.02 227.25"/><polygon class="k" points="492.87 217.79 479.29 220.39 475.15 254.18 503.27 264.69 506.93 259.73 507.28 244.6 504.56 240.95 492.87 217.79"/><polygon class="l" points="501.02 301.89 534.57 302.36 537.76 263.03 533.03 260.43 520.39 260.2 503.27 264.69 501.02 301.89"/><polygon class="i" points="544.25 235.04 529.02 227.25 504.56 240.95 503.27 264.69 537.76 263.03 544.25 235.04"/><polygon class="d" points="426.49 242.24 426.14 247.32 421.3 284.41 452.01 295.16 456.61 290.2 458.98 254.65 426.49 242.24"/><polygon class="e" points="512.72 251.81 499.37 230.67 491.22 229.96 486.97 248.86 488.74 256.3 502.67 268.35 512.72 251.81"/><polygon class="e" points="428.5 218.15 404.76 233.98 411.02 252.99 426.14 247.32 429.68 244.37 431.81 220.63 428.5 218.15"/><polygon class="e" points="480 220.51 443.97 215.32 437.95 216.38 441.02 236.22 455.08 242.36 476.22 234.33 480 220.51"/><polygon class="f" points="443.97 215.32 428.5 218.15 426.14 247.32 454.25 257.95 457.91 252.87 458.26 237.88 455.55 234.21 443.97 215.32"/><polygon class="g" points="452.01 295.16 485.55 295.63 488.74 256.3 484.01 253.7 471.38 253.34 454.25 257.95 452.01 295.16"/><polygon class="h" points="499.37 230.67 480 220.51 455.55 234.21 454.25 257.95 488.74 256.3 499.37 230.67"/><polygon class="m" points="379.84 257.13 379.49 262.32 374.52 299.41 405.35 310.04 409.96 305.08 412.32 269.53 379.84 257.13"/><polygon class="c" points="466.06 266.81 448.58 243.19 444.56 244.84 440.19 263.74 441.97 271.18 456.02 283.23 466.06 266.81"/><polygon class="c" points="381.85 233.03 358.11 248.86 364.37 267.88 379.49 262.32 383.03 259.25 385.16 235.51 381.85 233.03"/><polygon class="c" points="433.35 235.39 397.32 230.31 391.3 231.38 394.37 251.22 408.42 257.24 429.56 249.21 433.35 235.39"/><polygon class="n" points="397.32 230.31 381.85 233.03 379.49 262.32 407.6 272.84 411.26 267.76 411.61 252.75 408.89 249.1 397.32 230.31"/><polygon class="n" points="405.35 310.04 438.9 310.51 441.97 271.18 437.36 268.58 424.72 268.35 407.6 272.84 405.35 310.04"/><polygon class="o" points="448.58 243.19 433.35 235.39 408.89 249.1 407.6 272.84 441.97 271.18 448.58 243.19"/><polygon class="m" points="419.53 272.25 421.77 276.85 436.65 311.1 468.43 304.61 469.96 297.99 453.78 266.22 419.53 272.25"/><polygon class="c" points="498.54 236.34 471.61 225.12 468.78 228.54 474.8 246.97 480.12 252.52 498.3 255.59 498.54 236.34"/><polygon class="c" points="408.89 250.4 396.61 276.14 411.73 289.37 421.77 276.85 423.3 272.36 413.03 250.87 408.89 250.4"/><polygon class="c" points="454.37 226.06 420.82 240.12 416.1 244.13 428.98 259.61 444.09 257.6 458.15 240 454.37 226.06"/><polygon class="n" points="427.2 234.45 408.89 250.4 421.77 276.85 451.3 271.54 451.89 265.27 444.56 252.16 437.72 252.16 427.2 234.45"/><polygon class="n" points="468.43 304.61 497.6 287.83 480.12 252.52 474.8 252.64 463.7 258.9 451.3 271.54 468.43 304.61"/><polygon class="o" points="471.61 225.12 454.37 226.06 440.31 250.4 451.3 271.54 480.12 252.52 471.61 225.12"/><polygon class="i" points="395.31 267.76 394.84 272.84 390 309.92 420.71 320.55 425.31 315.71 427.8 280.04 395.31 267.76"/><polygon class="j" points="481.42 277.32 463.94 253.7 459.92 255.47 455.67 274.25 457.44 281.81 471.38 293.74 481.42 277.32"/><polygon class="j" points="397.2 243.54 373.46 259.37 379.73 278.5 394.84 272.84 398.38 269.76 400.63 246.14 397.2 243.54"/><polygon class="j" points="448.7 245.91 412.68 240.83 406.65 241.89 409.84 261.73 423.78 267.76 444.92 259.73 448.7 245.91"/><polygon class="k" points="412.68 240.83 397.2 243.54 394.84 272.84 422.95 283.35 426.61 278.39 426.97 263.27 424.13 257.6 412.68 240.83"/><polygon class="l" points="420.71 320.55 454.25 321.02 457.44 281.81 452.83 279.21 440.08 278.86 422.95 283.35 420.71 320.55"/><polygon class="i" points="463.94 253.7 448.7 245.91 424.25 259.61 422.95 283.35 457.44 281.81 463.94 253.7"/><polygon class="p" points="490.39 250.16 487.44 254.41 464.41 283.82 485.55 308.62 492.05 306.73 512.13 277.32 490.39 250.16"/><polygon class="b" points="559.84 302.12 556.65 272.95 552.4 272.36 539.05 286.42 536.81 293.74 542.84 311.22 559.84 302.12"/><polygon class="b" points="504.33 230.31 475.87 231.97 471.61 251.57 487.44 254.41 492.05 253.58 505.86 234.21 504.33 230.31"/><polygon class="b" points="547.56 258.43 519.09 235.86 513.31 233.74 505.86 252.4 514.96 264.69 537.16 268.46 547.56 258.43"/><polygon class="q" points="519.09 235.86 504.33 230.31 487.44 254.41 506.34 277.68 512.01 275.19 519.92 262.44 519.45 257.95 519.09 235.86"/><polygon class="r" points="485.55 308.62 514.25 326.1 536.81 293.74 534.1 289.14 523.34 282.52 506.34 277.68 485.55 308.62"/><polygon class="s" points="556.65 272.95 547.56 258.43 519.45 257.95 506.34 277.68 536.81 293.74 556.65 272.95"/><polygon class="t" points="427.91 281.46 428.62 286.54 432.76 323.74 465.12 326.81 468.43 320.91 462.4 285.83 427.91 281.46"/><polygon class="u" points="513.9 270.47 491.34 251.69 487.79 254.29 488.03 273.54 491.57 280.39 507.99 288.78 513.9 270.47"/><polygon class="u" points="424.13 257.6 404.76 278.5 415.39 295.63 428.62 286.54 431.45 282.76 427.91 259.25 424.13 257.6"/><polygon class="u" points="474.68 247.68 438.78 251.57 433.58 254.77 440.55 272.25 455.67 274.84 474.21 261.97 474.68 247.68"/><polygon class="v" points="438.78 251.57 424.13 257.6 428.62 286.54 458.5 290.2 460.86 284.41 457.67 269.76 454.13 266.81 438.78 251.57"/><polygon class="u" points="465.12 326.81 497.83 319.37 491.57 280.39 486.5 278.98 474.09 281.69 458.5 290.2 465.12 326.81"/><polygon class="w" points="491.34 251.69 474.68 247.68 454.13 266.81 458.5 290.2 491.57 280.39 491.34 251.69"/><polygon class="n" points="569.76 306.49 569.06 357.64 528.42 392.13 527.24 325.87 569.76 306.49"/><polygon class="o" points="569.76 306.49 569.29 339.57 528.07 369.57 528.07 369.57 527.24 325.87 569.76 306.49"/><polygon class="x" points="308.5 257.13 419.53 272.25 507.99 288.78 518.5 268.35 525.35 335.08 518.5 347.13 375.83 330 309.33 298.82 308.5 257.13"/><polygon class="n" points="375.83 330 339.8 325.63 309.69 322.09 309.33 298.82 441.61 285.59 465.12 279.45 518.5 302.12 375.83 330"/><polygon class="m" points="308.5 257.13 518.5 268.35 523.7 273.31 524.29 296.46 518.5 302.12 308.5 257.13"/><polygon class="n" points="587.83 250.87 518.5 268.35 518.5 347.13 584.76 315.23 587.83 250.87"/><polygon class="a" points="240.59 408.9 351.14 377.84 457.91 411.14 356.57 425.19 240.59 408.9"/><polygon class="g" points="13.35 238.82 29.17 239.06 24.33 243.54 16.42 245.2 8.15 240.83 13.35 238.82"/><polygon class="g" points="40.63 228.54 55.98 228.66 53.15 235.86 49.02 236.46 35.55 230.55 40.63 228.54"/><polygon class="f" points="55.98 228.66 50.9 230.55 49.6 239.29 58.35 330 69.8 353.86 75.94 349.84 62.95 263.62 61.54 262.32 55.98 228.66"/><polygon class="h" points="56.69 367.91 35.55 230.55 50.9 230.55 71.93 367.91 56.69 367.91"/><polygon class="f" points="29.17 239.06 23.86 240.83 15.47 244.37 27.99 307.09 43.47 368.15 49.72 369.33 49.72 364.14 45.71 339.45 47.72 333.78 43.7 327.17 41.81 315.71 43.94 308.86 39.8 303.55 29.17 239.06"/><polygon class="e" points="247.91 358.35 269.76 368.27 208.23 376.06 83.86 376.65 43.47 368.15 59.76 357.76 247.91 358.35"/><polygon class="g" points="269.76 368.27 100.63 368.27 43.47 368.15 41.57 370.98 42.75 380.08 45.71 382.8 269.76 382.8 269.76 368.27"/><polygon class="h" points="8.15 240.83 23.86 240.83 45.71 382.8 29.88 382.8 8.15 240.83"/><path class="y" d="M251.38,384.82a12.72,12.72,0,1,0,7.52,16.35A12.73,12.73,0,0,0,251.38,384.82Z"/><polygon class="h" points="252.99 394.03 243.71 390.59 240.96 399.5 250.25 402.94 252.99 394.03"/><path class="y" d="M78.78,391.87a12.72,12.72,0,1,0-6.86,16.63A12.72,12.72,0,0,0,78.78,391.87Z"/><polygon class="h" points="73.13 399.31 69.33 390.17 60.93 394.22 64.74 403.36 73.13 399.31"/><polygon class="y" points="100.39 279.8 241.54 281.46 240.12 363.31 102.17 363.31 100.39 279.8"/><polygon class="p" points="111.38 291.14 118.35 291.02 231.38 287.83 231.38 355.63 110.79 355.63 111.38 291.14"/><polygon class="r" points="139.96 287.36 231.38 287.83 231.38 355.63 229.49 355.63 229.25 289.61 141.38 288.54 139.96 287.36"/><path class="z" d="M136.3,289.84l-.83-1.06-7.32.23-9.33.36.59.95Zm9.21-.23,4.49-.12-.83-1.06-4.48.11Z"/><polygon class="aa" points="106.53 289.73 102.17 363.31 53.5 363.19 44.53 289.73 65.79 273.31 86.81 272.6 106.53 289.73"/><path class="f" d="M50.9,342.17l-1.53-12.29,38.62.71v12.17l-37.2-.59ZM48,318.54l-1.54-12.28,37.92.71v12.16l-36.49-.59Z"/><path class="ab" d="M85.63,328v12.17l-39.92-.59-1.06-6.38-.95-5.91,41.93.83ZM82,304.37v12.17l-40.16-.71-2-12.29Z"/><polygon class="ab" points="85.39 268.7 85.27 275.19 63.66 274.96 63.07 271.54 62.6 268.94 64.13 266.81 85.39 268.7"/><polygon class="aa" points="88.58 262.32 88.11 269.06 62.6 268.94 61.54 262.32 88.58 262.32"/><polygon class="ac" points="84.09 280.75 100.28 294.81 93.66 361.65 90.12 361.89 93.31 297.28 84.09 280.75"/><polygon class="ad" points="15.94 238.94 38.03 230.55 45.94 230.55 45.94 237.88 30.24 245.32 29.17 239.06 15.94 238.94"/><polygon class="ae" points="154.98 361.32 165.2 380.51 185.83 375.63 202.5 364.03 199.13 303.9 163.42 345.41 154.98 361.32"/><polygon class="af" points="165.2 380.51 177.47 405.27 199.88 400.23 204.44 394.8 202.5 364.03 165.2 380.51"/><polygon class="ag" points="122.97 304.43 199.13 303.9 163.42 345.41 142.14 334.36 122.97 304.43"/><polygon class="ah" points="163.42 345.41 151.17 375.5 128.75 383.64 114.46 376.34 122.24 319.01 122.24 319.01 130.75 316.42 163.42 345.41"/><polygon class="ae" points="151.17 375.5 138.33 402.61 125.22 408.73 109.91 407.62 114.46 376.34 151.17 375.5"/><polygon class="ai" points="138.33 402.61 142.88 422.98 124.52 424.87 106.35 422.85 109.91 407.62 138.33 402.61"/><polygon class="ai" points="204.44 394.8 224.44 418.31 195.32 420.17 175.33 418.14 177.47 405.27 204.44 394.8"/><polygon class="aj" points="141.58 429.38 105.05 429.25 106.35 422.85 142.88 422.98 141.58 429.38"/><polygon class="aj" points="223.15 424.71 174.03 424.54 175.33 418.14 224.44 418.31 223.15 424.71"/><polygon class="ak" points="175.99 139.61 185.91 133.35 195.12 133.94 196.18 143.15 193.58 154.49 189.45 207.4 164.88 207.17 136.89 201.85 136.06 150.71 139.25 127.56 158.86 130.27 175.99 139.61"/><polygon class="al" points="157.08 205.63 145.75 203.5 145.87 202.68 142.68 190.39 158.74 203.98 157.08 205.63"/><polygon class="al" points="146.22 149.65 161.45 167.01 162.28 180.71 165.94 166.18 166.18 157.8 146.22 149.65"/><polygon class="al" points="177.64 154.49 173.62 159.21 171.38 164.65 171.97 172.44 191.22 156.38 187.56 147.75 177.64 154.49"/><polyline class="y" points="161.34 160.75 166.18 157.8 149.06 145.39 146.22 149.65"/><polygon class="y" points="176.46 150.83 187.56 147.75 191.22 156.38 186.85 157.91 184.37 151.89 177.64 154.49 176.46 150.83"/><polygon class="am" points="173.62 159.21 170.78 181.42 166.65 182.48 162.28 180.71 166.18 157.8 173.62 159.21"/><polygon class="an" points="177.64 193.47 162.17 190.39 151.3 183.78 154.49 179.53 146.93 182.01 146.46 190.63 149.88 186.85 161.34 193.7 177.64 193.47"/><polygon class="al" points="139.25 127.56 124.37 138.42 124.84 149.88 129.21 165 125.43 165.12 122.48 168.43 119.06 164.29 117.64 156.14 112.44 160.86 107.24 162.28 112.44 169.49 113.74 177.05 114.57 181.77 118.47 223.82 155.2 221.57 157.68 212.36 189.45 207.4 136.89 201.85 139.72 149.41 139.25 127.56"/><polygon class="ak" points="122.48 168.43 123.19 172.79 113.74 177.05 107.24 162.28 117.64 156.14 122.48 168.43"/><polygon class="y" points="193.47 155.31 203.15 131.81 200.43 131.46 195.12 133.94 193.47 155.31"/><polygon class="r" points="175.99 139.61 203.15 131.81 182.24 109.49 176.1 125.31 175.99 139.61"/><polygon class="ao" points="175.99 139.61 182.24 109.49 110.79 116.93 123.66 124.84 139.25 127.56 175.99 139.61"/><polygon class="r" points="110.79 116.93 98.27 154.25 112.2 147.64 124.37 138.42 139.25 127.56 110.79 116.93"/><polygon class="y" points="124.37 138.42 129.21 165 122.48 168.43 117.64 156.14 107.24 162.28 98.27 154.25 124.37 138.42"/><polygon class="an" points="111.61 163.94 115.39 161.69 117.52 168.9 111.61 163.94"/><polygon class="an" points="113.74 177.05 120.47 173.97 115.39 192.16 113.74 177.05"/><polygon class="an" points="127.91 200.67 189.45 207.4 157.68 212.36 155.2 221.57 138.54 212.72 127.91 200.67"/><polygon class="an" points="170.78 181.42 165.47 185.91 162.28 180.71 170.78 181.42"/><polygon class="ap" points="127.91 200.67 117.87 225.24 155.2 221.57 127.91 200.67"/><polygon class="c" points="182.72 220.39 109.14 224.41 162.28 311.1 199.13 303.9 182.72 220.39"/><polygon class="o" points="113.38 255.59 122.09 317.95 162.28 311.1 155.08 253.34 113.38 255.59"/><polygon class="n" points="182.72 220.39 109.14 224.41 107.48 235.16 112.08 264.45 115.28 268.82 155.08 253.34 191.57 265.63 182.72 220.39"/><polygon class="m" points="75.59 278.39 109.14 224.41 115.28 268.82 105.59 281.34 101.34 285.47 84.57 284.17 75.59 278.39"/><polygon class="n" points="130.75 316.42 110.43 275.08 75.59 278.39 112.79 318.78 130.75 316.42"/><polygon class="a" points="155.08 253.34 155.2 221.57 118.47 223.82 155.08 253.34"/><polygon class="m" points="220.98 261.61 182.72 220.39 167.72 233.39 194.53 280.87 220.98 261.61"/><polygon class="al" points="171.5 205.04 182.72 220.39 167.72 233.39 145.63 222.16 171.5 205.04"/><polygon class="am" points="145.87 186.61 171.5 205.04 145.63 222.16 137.36 215.2 152.12 203.5 142.68 190.39 145.87 186.61"/><polygon class="am" points="117.75 339.1 130.75 316.42 112.79 318.78 102.87 329.65 103.94 333.55 112.79 338.15 117.75 339.1"/><polygon class="al" points="95.31 332.48 108.31 340.04 117.75 339.1 102.87 329.65 95.31 332.48"/><polygon class="an" points="99.56 323.86 95.31 332.48 102.87 329.65 105.24 327.05 99.56 323.86"/><circle class="b" cx="155.88" cy="161.74" r="3.11"/><circle class="b" cx="181.3" cy="164.23" r="3.11"/><polygon class="i" points="377.24 166.66 332.83 163.94 286.18 158.98 285.59 152.48 287.6 142.44 333.19 154.02 377.24 166.66"/><polygon class="k" points="287.6 142.44 334.61 145.51 382.67 151.89 381.73 158.03 377.24 166.66 287.6 142.44"/><polygon class="aq" points="337.91 135.24 344.41 148.11 325.51 146.22 337.91 135.24"/><polygon class="aq" points="287.6 142.44 280.86 146.1 274.02 153.31 285.71 166.06 287.01 161.58 286.18 158.98 287.6 142.44"/><polygon class="i" points="287.6 142.44 287.24 134.88 283.7 125.67 276.97 141.02 274.02 153.31 287.6 142.44"/><polygon class="l" points="283.7 125.67 262.2 145.04 274.02 153.31 283.7 125.67"/><polygon class="j" points="287.6 142.44 283.7 125.67 281.58 116.45 302.36 131.69 304.13 144.1 287.6 142.44"/><polygon class="l" points="288.19 121.77 305.67 105.12 310.75 113.5 313.23 120.35 307.32 127.68 301.3 132.28 288.19 121.77"/><polygon class="i" points="301.3 132.28 313.23 120.35 319.49 130.27 325.51 146.22 304.13 144.1 301.3 132.28"/><polygon class="i" points="305.67 105.12 336.02 114.92 321.14 119.29 313.23 120.35 305.67 105.12"/><polygon class="l" points="313.23 120.35 336.02 114.92 333.19 126.73 325.51 146.22 313.23 120.35"/><polygon class="aq" points="390.12 170.08 373.34 177.16 375 170.55 377.24 166.66 383.26 167.01 390.12 170.08"/><polygon class="i" points="325.51 146.22 337.32 136.65 344.88 131.58 349.25 126.97 345.71 119.29 341.22 113.5 338.15 108.42 336.02 114.92 325.51 146.22"/><polygon class="l" points="349.25 126.97 356.34 123.19 362.83 115.86 363.07 107.72 341.22 113.5 349.25 126.97"/><polygon class="j" points="349.25 126.97 362.83 115.86 372.28 124.72 368.97 135.47 362.72 149.88 352.91 135.83 349.25 126.97"/><polygon class="j" points="389.88 152.72 396.97 171.97 377.24 166.66 382.67 151.89 385.86 151.06 389.88 152.72"/><polygon class="l" points="372.28 124.72 380.55 131.34 383.98 136.77 376.53 141.73 362.72 149.88 372.28 124.72"/><polygon class="i" points="372.28 124.72 397.91 128.5 383.98 136.77 372.28 124.72"/><polygon class="i" points="383.98 136.77 400.87 153.9 382.67 151.89 362.72 149.88 383.98 136.77"/><polygon class="l" points="349.25 126.97 362.72 149.88 354.68 164.76 344.41 148.11 337.32 136.65 349.25 126.97"/><polygon class="ak" points="286.18 158.98 282.28 222.64 311.1 227.36 315.82 233.15 319.84 241.06 332.83 246.97 344.29 255.24 355.63 221.1 364.01 202.21 370.39 185.08 370.98 177.16 377.24 166.66 286.18 158.98"/><polygon class="ar" points="305.67 216.5 319.72 206.58 320.19 205.75 306.38 202.56 295.98 202.44 293.5 202.56 297.4 208.11 304.37 216.38 305.67 216.5"/><path class="y" d="M307.2,215.43l7.09-5,.59-1.06.47-1.06-19-3-.24,1,1.18,1.77,5.55,6.62a12.76,12.76,0,0,0,3.31.7,2.88,2.88,0,0,0,.83-.11Z"/><polygon class="an" points="354.68 194.53 357.87 185.91 364.25 188.27 354.68 194.53"/><polygon class="al" points="341.22 163.58 328.82 230.2 311.1 227.36 317 235.51 335.43 260.9 351.73 235.39 364.01 202.21 348.3 196.3 351.38 186.61 342.75 183.42 349.61 164.29 341.22 163.58"/><polygon class="al" points="334.96 173.27 320.43 176.69 313.23 191.22 316.3 167.13 325.63 168.31 334.96 173.27"/><polygon class="al" points="304.84 165.94 302.71 184.61 298.23 173.38 287.95 164.88 304.84 165.94"/><polygon class="j" points="316.3 167.13 327.64 163.35 334.96 173.27 325.63 168.31 316.3 167.13"/><polygon class="j" points="304.84 165.94 295.87 159.92 287.95 164.88 295.28 165.35 304.84 165.94"/><polygon class="am" points="304.84 165.94 316.3 167.13 313.23 191.22 302.01 189.92 304.84 165.94"/><polygon class="an" points="302.01 189.92 306.97 196.18 313.23 191.22 302.01 189.92"/><polygon class="aq" points="320.19 205.75 306.61 199.84 293.5 202.56 306.85 203.74 320.19 205.75"/><polygon class="as" points="292.09 201.14 303.19 212.01 307.44 212.72 322.68 204.33 304.13 218.62 292.09 201.14"/><path class="aq" d="M346.77,195.83l-6.49,17.24,17.24,6.5L364,202.32Zm11.93,8.85h0l-3.54,9.45-9.45-3.54,3.54-9.45Z"/><polygon class="as" points="355.98 191.1 360.12 192.76 355.27 205.87 351.02 204.33 355.98 191.1"/><polygon class="j" points="349.61 164.29 342.75 183.42 351.38 186.61 354.21 179.29 370.39 185.08 377.24 166.66 349.61 164.29"/><polygon class="an" points="308.26 226.89 335.31 231.26 321.5 239.88 308.26 226.89"/><polygon class="ak" points="307.79 392.95 306.14 411.26 289.01 411.26 285 408.43 283.94 406.54 299.76 390.59 307.79 392.95"/><polygon class="al" points="293.62 411.26 306.14 411.26 306.73 404.65 301.06 410.67 289.84 409.02 285.95 405.83 281.58 402.28 273.54 411.26 293.62 411.26"/><polygon class="ak" points="348.19 391.77 344.88 411.26 354.8 411.26 359.41 407.24 361.41 403.58 357.52 389.76 348.19 391.77"/><polygon class="al" points="361.41 403.58 363.78 400.87 373.7 411.26 354.8 411.26 344.88 411.26 346.18 403.7 349.96 409.96 355.63 410.2 361.41 403.58"/><polygon class="an" points="293.62 411.26 276.38 407.95 273.54 411.26 293.62 411.26"/><polygon class="an" points="354.8 411.26 370.51 407.95 373.7 411.26 354.8 411.26"/><polygon class="an" points="299.76 390.59 304.13 390.95 307.79 392.95 306.97 401.46 297.05 393.31 299.76 390.59"/><polygon class="an" points="348.19 391.77 351.73 389.64 357.52 389.76 358.94 394.96 346.77 400.16 348.19 391.77"/><polygon class="l" points="296.57 325.51 315 332.95 333.19 343.23 321.73 373.7 304.25 369.92 287.13 363.43 296.57 325.51"/><polygon class="k" points="321.73 373.7 317.72 385.16 302.12 375.59 287.13 363.43 321.73 373.7"/><polygon class="i" points="317.72 385.16 287.13 363.43 281.1 384.92 299.41 386.69 317.72 385.16"/><polygon class="k" points="317.72 385.16 313.7 394.84 281.1 384.92 317.72 385.16"/><path class="an" d="M277.32,258.66c1.07,1.18-6.73-5-6.73-5L272.24,265Z"/><polygon class="l" points="333.19 343.23 335.67 372.64 353.86 370.63 375.24 365.79 372.16 327.05 349.13 334.96 333.19 343.23"/><polygon class="k" points="375.24 365.79 355.15 377.48 336.61 385.16 335.67 372.64 375.24 365.79"/><polygon class="i" points="375.24 365.79 377.24 385.27 355.15 386.34 336.61 385.16 375.24 365.79"/><polygon class="k" points="336.61 385.16 377.24 385.27 337.68 394.13 336.61 385.16"/><polygon class="y" points="317 235.39 296.69 242.36 285.35 253.82 288.66 264.33 296.81 276.5 368.5 278.27 377.01 271.06 383.5 262.21 367.44 242.13 351.73 235.39 337.08 254.41 321.5 239.88 317 235.39"/><polygon class="j" points="296.57 325.51 333.19 343.23 372.16 327.05 368.38 278.27 362.36 271.42 356.22 267.99 308.62 265.39 302.95 268.35 296.81 276.5 296.57 325.51"/><polygon class="al" points="368.38 278.27 387.16 293.74 393.07 273.54 383.5 262.21 368.38 278.27"/><polygon class="ak" points="269.65 267.17 285.35 253.82 296.81 276.5 285.23 280.39 276.26 274.37 269.65 267.17"/><polygon class="l" points="296.69 242.36 296.81 276.5 308.62 265.39 307.2 238.82 296.69 242.36"/><polygon class="l" points="358.23 238.23 356.22 267.99 368.38 278.27 367.44 242.13 358.23 238.23"/><polygon class="at" points="316.41 309.8 348.66 309.8 348.66 276.97 316.41 276.97 316.41 309.8"/><polygon class="d" points="281.34 281.69 281.1 288.19 277.21 334.49 315.94 345.95 321.38 339.57 322.32 295.27 281.34 281.69"/><polygon class="e" points="388.82 288.78 365.91 260.55 360.94 262.8 356.69 286.54 359.29 295.63 377.36 309.8 388.82 288.78"/><polygon class="e" points="282.4 251.69 253.82 272.72 262.68 295.98 281.1 288.19 285.35 284.17 286.65 254.65 282.4 251.69"/><polygon class="e" points="346.53 251.69 301.53 247.44 294.09 249.1 299.06 273.54 316.77 280.28 342.52 269.06 346.53 251.69"/><polygon class="f" points="301.53 247.44 282.4 251.69 281.1 288.19 316.65 299.65 320.9 293.27 320.55 274.49 316.89 270.12 301.53 247.44"/><polygon class="g" points="315.94 345.95 357.64 344.64 359.29 295.63 353.39 292.68 337.68 293.03 316.65 299.65 315.94 345.95"/><polygon class="h" points="365.91 260.55 346.53 251.69 316.89 270.12 316.65 299.65 359.29 295.63 365.91 260.55"/><polygon class="ak" points="396.38 285 382.56 270.71 374.52 285.24 385.16 295.51 396.38 285"/><polygon class="al" points="272.95 270.71 270.59 253.7 253.7 266.81 260.2 275.91 272.95 270.71"/><circle class="b" cx="296.32" cy="179.41" r="3.11"/><circle class="b" cx="320.96" cy="183.13" r="3.11"/><path class="o" d="M365.55,58.11l21.61-17.48,4.73.94,14.65,20.32-.12,58-16.54-2.6-22.2-4.37ZM386.34,47l2.6-1.89,3.19,2.6-2.84,3.78L386,49.72l.36-2.83Z"/><polygon class="c" points="399.21 51.73 406.54 61.89 406.42 119.88 389.88 117.4 399.21 51.73"/><path class="o" d="M432.17,62.6l19.36-20,4.73.35,17,18.43,6.14,57.64-31,2.36L432.28,62.48Zm19.36-13.47L453.89,47l3.55,2.24L455,53.39,451.42,52V49.13Z"/><path class="c" d="M432.17,62.6l7.55-7.68,5.79,6.38,2.95,60.35-13.11.95-3.07-59.88Zm40.27-2,.83.95,6.14,57.63-12.88,1,5.79-59.65Z"/><path class="o" d="M399.33,60l21.61-17.48,4.73.95,14.64,20.31L440,116.57l-39.33-2.83Zm20.79-11.1L422.71,47l3.19,2.6-2.83,3.78-3.31-1.77.36-2.84Z"/><path class="o" d="M474.8,58.7l22.09-16.89,4.6,1.07,14.18,20.66-1.77,52.8-39.34-3.9Zm21-10.51,2.71-1.77,3.07,2.71-2.95,3.78L495.35,51Z"/><path class="ar" d="M410.91,96.14l3.78,1.77,2-6.73,9.45-.24.35,6.62,5.79,1.65L422,69.8,411,96.14Zm6.25-7h0l4.14-12.52,4.25,11.46Z"/><polygon class="ar" points="450 69.69 449.17 94.6 466.89 96.85 468.31 90.71 451.53 92.01 454.13 69.57 450 69.69"/><polygon class="ar" points="485.43 74.17 485.31 98.74 503.86 97.44 503.39 92.36 489.8 95.91 487.44 87.99 499.13 86.69 501.61 83.03 488.74 83.74 488.15 76.06 501.85 75.12 500.19 70.75 485.43 74.17"/><polygon class="ar" points="378.19 77.84 383.03 72.52 392 78.31 393.66 72.99 380.31 68.27 374.29 80.31 389.17 88.58 384.09 93.07 374.76 87.52 373.46 92.95 385.16 97.32 393.43 88.46 378.19 77.84"/><path class="o" d="M526.18,61,556,44.06l6.25,1.06,19,20.67-2.36,52.79-53-3.89Zm28.46-10.52,3.66-1.77,2.61,3-2.49,3.54-4.49-1.89.59-2.84Z"/><path class="ar" d="M544,75.59l-10.39-.47L532,83.86l6.85.12,1.89,4.84-4.14,4.84-5.78-2.12.47,3.42L537.87,96l5.79-6.73-2.36-6.61L535,82.44l.12-4.49,8.74.12.11-2.6Zm22.92,2.13-3.67,2,1.19,4L568,84l1.18-3.78Zm-2.48,17.59,9.92-17.83,1.3,1.3-9.21,17.36Zm9.45-5-3.66,2,1.18,4,3.54.23,1.18-3.78Zm.23,5.2-1.77-.24-.94-2.48,2.71-1.29,1,1.65-.83,2.48Zm-6.85-12.64-1.77-.23-1-2.48,2.72-1.3,1,1.65L567.4,83Zm-8.74-6-11.33-.47-2.25,15,9.09,7,6.62-5.19.47-5.91-2.72-10.39Zm-5,18-6.37-5.55L549.09,80l8.27-.71,1.42,8.86-.36,3.66Z"/><path class="y" d="M386.81,3.43l1.42,42.63h-1L385.86,3.43Zm171,45.11V3.43h.95V48.54ZM498.19,46.3l2.12-43h.95l-2.13,43Zm-44.65.59-3-43.46.94-.12,3,43.46ZM422.36,47V3.43h.94V47Z"/></svg>