<svg xmlns="http://www.w3.org/2000/svg" viewBox="0 0 400 400" width="400" height="400" preserveAspectRatio="xMidYMid meet" style="width: 100%; height: 100%; transform: translate3d(0px, 0px, 0px); content-visibility: visible;"><defs><clipPath id="__lottie_element_2"><rect width="400" height="400" x="0" y="0"></rect></clipPath></defs><g clip-path="url(#__lottie_element_2)"><g transform="matrix(1,0,0,1,105.03500366210938,376.677978515625)" opacity="0.1" style="display: block;"><g opacity="1" transform="matrix(1,0,0,1,92.11599731445312,11.66100025177002)"><path fill="rgb(43,43,43)" fill-opacity="1" d=" M-92.11599731445312,-1.6180000305175781 C-92.11599731445312,-1.6180000305175781 1.5479999780654907,11.664999961853027 1.5479999780654907,11.664999961853027 C1.5479999780654907,11.664999961853027 92.11599731445312,-0.7900000214576721 92.11599731445312,-0.7900000214576721 C92.11599731445312,-0.7900000214576721 4.35699987411499,-11.66100025177002 4.35699987411499,-11.66100025177002 C4.35699987411499,-11.66100025177002 -92.11599731445312,-1.6180000305175781 -92.11599731445312,-1.6180000305175781z"></path></g></g><g transform="matrix(1,0,0,1,118.75100708007812,186.50698852539062)" opacity="1" style="display: block;"><g opacity="1" transform="matrix(1,0,0,1,101.68900299072266,73.5770034790039)"><path fill="rgb(53,120,93)" fill-opacity="1" d=" M-75.59200286865234,73.18199920654297 C-75.59200286865234,73.18199920654297 28.8700008392334,73.3270034790039 28.8700008392334,73.3270034790039 C28.8700008392334,73.3270034790039 92.72899627685547,45.96900177001953 92.72899627685547,45.96900177001953 C92.72899627685547,45.96900177001953 24.90999984741211,-73.3270034790039 24.90999984741211,-73.3270034790039 C24.90999984741211,-73.3270034790039 15.821999549865723,-96.98300170898438 15.821999549865723,-96.98300170898438 C15.821999549865723,-96.98300170898438 -74.7300033569336,-60.5099983215332 -74.7300033569336,-60.5099983215332 C-74.7300033569336,-60.5099983215332 -90.85700225830078,-26.530000686645508 -90.85700225830078,-26.530000686645508 C-90.85700225830078,-26.530000686645508 -92.72899627685547,68.43099975585938 -92.72899627685547,68.43099975585938 C-92.72899627685547,68.43099975585938 -75.59200286865234,73.18199920654297 -75.59200286865234,73.18199920654297z"></path></g><g opacity="1" transform="matrix(1,0,0,1,15.873000144958496,114.93699645996094)"><path fill="rgb(83,175,138)" fill-opacity="1" d=" M-10.72700023651123,-62.707000732421875 C-10.72700023651123,-62.707000732421875 -15.623000144958496,62.347999572753906 -15.623000144958496,62.347999572753906 C-15.623000144958496,62.347999572753906 15.623000144958496,89.7040023803711 15.623000144958496,89.7040023803711 C15.623000144958496,89.7040023803711 2.2320001125335693,-74.58599853515625 2.2320001125335693,-74.58599853515625 C2.2320001125335693,-74.58599853515625 1.9129999876022339,-90.8489990234375 1.9129999876022339,-90.8489990234375 C1.9129999876022339,-90.8489990234375 -12.166999816894531,-89.7040023803711 -12.166999816894531,-89.7040023803711 C-12.166999816894531,-89.7040023803711 -10.72700023651123,-62.707000732421875 -10.72700023651123,-62.707000732421875z"></path></g></g><g transform="matrix(1,0,0,1,141.2849884033203,333.0149841308594)" opacity="1" style="display: block;"><g opacity="1" transform="matrix(1,0,0,1,29.983999252319336,25.23200035095215)"><path fill="rgb(195,151,122)" fill-opacity="1" d=" M16.631000518798828,-12.88700008392334 C16.631000518798828,-12.88700008392334 2.5920000076293945,19.43899917602539 2.5920000076293945,19.43899917602539 C2.5920000076293945,19.43899917602539 -2.880000114440918,24.98200035095215 -2.880000114440918,24.98200035095215 C-2.880000114440918,24.98200035095215 -16.631000518798828,17.423999786376953 -16.631000518798828,17.423999786376953 C-16.631000518798828,17.423999786376953 -14.472000122070312,-24.98200035095215 -14.472000122070312,-24.98200035095215 C-14.472000122070312,-24.98200035095215 14.039999961853027,-18.93400001525879 14.039999961853027,-18.93400001525879 C14.039999961853027,-18.93400001525879 16.631000518798828,-12.88700008392334 16.631000518798828,-12.88700008392334z"></path></g><g opacity="1" transform="matrix(1,0,0,1,90.0270004272461,25.8439998626709)"><path fill="rgb(195,151,122)" fill-opacity="1" d=" M-15.26200008392334,-13.354000091552734 C-15.26200008392334,-13.354000091552734 -17.999000549316406,14.579000473022461 -17.999000549316406,14.579000473022461 C-17.999000549316406,14.579000473022461 -10.223999977111816,25.450000762939453 -10.223999977111816,25.450000762939453 C-10.223999977111816,25.450000762939453 -0.6480000019073486,16.09000015258789 -0.6480000019073486,16.09000015258789 C-0.6480000019073486,16.09000015258789 17.999000549316406,-25.450000762939453 17.999000549316406,-25.450000762939453 C17.999000549316406,-25.450000762939453 -9.288000106811523,-23.00200080871582 -9.288000106811523,-23.00200080871582 C-9.288000106811523,-23.00200080871582 -15.26200008392334,-13.354000091552734 -15.26200008392334,-13.354000091552734z"></path></g><g opacity="1" transform="matrix(1,0,0,1,88.80400085449219,48.305999755859375)"><path fill="rgb(223,188,164)" fill-opacity="1" d=" M-16.774999618530273,-7.883999824523926 C-16.774999618530273,-7.883999824523926 1.0069999694824219,-7.5960001945495605 1.0069999694824219,-7.5960001945495605 C1.0069999694824219,-7.5960001945495605 19.006000518798828,6.730999946594238 19.006000518798828,6.730999946594238 C19.006000518798828,6.730999946594238 7.48799991607666,7.883999824523926 7.48799991607666,7.883999824523926 C7.48799991607666,7.883999824523926 -19.006000518798828,7.668000221252441 -19.006000518798828,7.668000221252441 C-19.006000518798828,7.668000221252441 -16.774999618530273,-7.883999824523926 -16.774999618530273,-7.883999824523926z"></path></g><g opacity="1" transform="matrix(1,0,0,1,103.70700073242188,51.94200134277344)"><path fill="rgb(195,151,122)" fill-opacity="1" d=" M-7.414999961853027,4.247000217437744 C-7.414999961853027,4.247000217437744 7.414999961853027,-4.464000225067139 7.414999961853027,-4.464000225067139 C7.414999961853027,-4.464000225067139 5.758999824523926,4.464000225067139 5.758999824523926,4.464000225067139 C5.758999824523926,4.464000225067139 -7.414999961853027,4.247000217437744 -7.414999961853027,4.247000217437744z"></path></g><g opacity="1" transform="matrix(1,0,0,1,16.448999404907227,51.077999114990234)"><path fill="rgb(223,188,164)" fill-opacity="1" d=" M16.12700080871582,-6.4079999923706055 C16.12700080871582,-6.4079999923706055 16.198999404907227,8.42300033569336 16.198999404907227,8.42300033569336 C16.198999404907227,8.42300033569336 -16.198999404907227,7.343999862670898 -16.198999404907227,7.343999862670898 C-16.198999404907227,7.343999862670898 -3.0950000286102295,-8.423999786376953 -3.0950000286102295,-8.423999786376953 C-3.0950000286102295,-8.423999786376953 16.12700080871582,-6.4079999923706055 16.12700080871582,-6.4079999923706055z"></path></g><g opacity="1" transform="matrix(1,0,0,1,16.448999404907227,54.31800079345703)"><path fill="rgb(195,151,122)" fill-opacity="1" d=" M-16.198999404907227,4.104000091552734 C-16.198999404907227,4.104000091552734 0.07199999690055847,-5.184000015258789 0.07199999690055847,-5.184000015258789 C0.07199999690055847,-5.184000015258789 16.198999404907227,5.184000015258789 16.198999404907227,5.184000015258789 C16.198999404907227,5.184000015258789 -16.198999404907227,4.104000091552734 -16.198999404907227,4.104000091552734z"></path></g><g opacity="1" transform="matrix(1,0,0,1,33.691001892089844,6.297999858856201)"><path fill="rgb(138,102,81)" fill-opacity="1" d=" M-18.17799949645996,-6.047999858856201 C-18.17799949645996,-6.047999858856201 12.92300033569336,6.047999858856201 12.92300033569336,6.047999858856201 C12.92300033569336,6.047999858856201 18.17799949645996,-6.047999858856201 18.17799949645996,-6.047999858856201 C18.17799949645996,-6.047999858856201 -18.17799949645996,-6.047999858856201 -18.17799949645996,-6.047999858856201z"></path></g><g opacity="1" transform="matrix(1,0,0,1,91.39600372314453,6.441999912261963)"><path fill="rgb(138,102,81)" fill-opacity="1" d=" M-16.631000518798828,6.047999858856201 C-16.631000518798828,6.047999858856201 16.631000518798828,-6.047999858856201 16.631000518798828,-6.047999858856201 C16.631000518798828,-6.047999858856201 -15.335000038146973,-6.047999858856201 -15.335000038146973,-6.047999858856201 C-15.335000038146973,-6.047999858856201 -16.631000518798828,6.047999858856201 -16.631000518798828,6.047999858856201z"></path></g></g><g transform="matrix(1,0,0,1,123.93500518798828,130.35198974609375)" opacity="1" style="display: block;"><g opacity="1" transform="matrix(1,0,0,1,61.48099899291992,82.54000091552734)"><path fill="rgb(90,117,60)" fill-opacity="1" d=" M23.506000518798828,-45.71699905395508 C23.506000518798828,-45.71699905395508 59.2869987487793,-25.84600067138672 59.2869987487793,-25.84600067138672 C59.2869987487793,-25.84600067138672 42.441001892089844,33.54999923706055 42.441001892089844,33.54999923706055 C42.441001892089844,33.54999923706055 -8.243000030517578,45.71699905395508 -8.243000030517578,45.71699905395508 C-8.243000030517578,45.71699905395508 -31.93000030517578,19.365999221801758 -31.93000030517578,19.365999221801758 C-31.93000030517578,19.365999221801758 -38.625,4.894999980926514 -38.625,4.894999980926514 C-38.625,4.894999980926514 -59.2869987487793,-20.086999893188477 -59.2869987487793,-20.086999893188477 C-59.2869987487793,-20.086999893188477 23.506000518798828,-45.71699905395508 23.506000518798828,-45.71699905395508z"></path></g><g opacity="1" transform="matrix(1,0,0,1,31.638999938964844,45.42599868774414)"><path fill="rgb(113,200,166)" fill-opacity="1" d=" M26.996999740600586,0.6840000152587891 C26.996999740600586,0.6840000152587891 31.388999938964844,9.467000007629395 31.388999938964844,9.467000007629395 C31.388999938964844,9.467000007629395 22.96500015258789,17.17099952697754 22.96500015258789,17.17099952697754 C22.96500015258789,17.17099952697754 -19.222999572753906,17.025999069213867 -19.222999572753906,17.025999069213867 C-19.222999572753906,17.025999069213867 -29.229999542236328,12.706000328063965 -29.229999542236328,12.706000328063965 C-29.229999542236328,12.706000328063965 -31.388999938964844,-3.563999891281128 -31.388999938964844,-3.563999891281128 C-31.388999938964844,-3.563999891281128 -11.303000450134277,-15.875 -11.303000450134277,-15.875 C-11.303000450134277,-15.875 4.497000217437744,-24.05299949645996 4.497000217437744,-24.05299949645996 C4.497000217437744,-24.05299949645996 9.286999702453613,-17.17099952697754 9.286999702453613,-17.17099952697754 C9.286999702453613,-17.17099952697754 26.996999740600586,0.6840000152587891 26.996999740600586,0.6840000152587891z"></path></g><g opacity="1" transform="matrix(1,0,0,1,68.86000061035156,25.483999252319336)"><path fill="rgb(113,200,166)" fill-opacity="1" d=" M-10.222999572753906,20.625999450683594 C-10.222999572753906,20.625999450683594 6.11899995803833,25.233999252319336 6.11899995803833,25.233999252319336 C6.11899995803833,25.233999252319336 28.0049991607666,10.187999725341797 28.0049991607666,10.187999725341797 C28.0049991607666,10.187999725341797 30.020999908447266,-25.233999252319336 30.020999908447266,-25.233999252319336 C30.020999908447266,-25.233999252319336 -0.3610000014305115,-14.145999908447266 -0.3610000014305115,-14.145999908447266 C-0.3610000014305115,-14.145999908447266 -30.020999908447266,6.730000019073486 -30.020999908447266,6.730000019073486 C-30.020999908447266,6.730000019073486 -10.222999572753906,20.625999450683594 -10.222999572753906,20.625999450683594z"></path></g><g opacity="1" transform="matrix(1,0,0,1,73.21600341796875,65.11699676513672)"><path fill="rgb(153,194,108)" fill-opacity="1" d=" M5.579999923706055,14.975000381469727 C5.579999923706055,14.975000381469727 -10.116000175476074,3.74399995803833 -10.116000175476074,3.74399995803833 C-10.116000175476074,3.74399995803833 -18.611000061035156,-2.5199999809265137 -18.611000061035156,-2.5199999809265137 C-18.611000061035156,-2.5199999809265137 1.9800000190734863,-14.975000381469727 1.9800000190734863,-14.975000381469727 C1.9800000190734863,-14.975000381469727 18.611000061035156,-13.175000190734863 18.611000061035156,-13.175000190734863 C18.611000061035156,-13.175000190734863 5.579999923706055,14.975000381469727 5.579999923706055,14.975000381469727z"></path></g><g opacity="1" transform="matrix(1,0,0,1,64.9000015258789,56.404998779296875)"><path fill="rgb(217,226,83)" fill-opacity="1" d=" M10.295999526977539,-6.263000011444092 C10.295999526977539,-6.263000011444092 6.190999984741211,10.295000076293945 6.190999984741211,10.295000076293945 C6.190999984741211,10.295000076293945 -10.295999526977539,6.191999912261963 -10.295999526977539,6.191999912261963 C-10.295999526977539,6.191999912261963 -6.263999938964844,-10.295000076293945 -6.263999938964844,-10.295000076293945 C-6.263999938964844,-10.295000076293945 10.295999526977539,-6.263000011444092 10.295999526977539,-6.263000011444092z"></path></g><g opacity="1" transform="matrix(1,0,0,1,75.16000366210938,103.88600158691406)"><path fill="rgb(115,141,86)" fill-opacity="1" d=" M3.635999917984009,-23.79400062561035 C3.635999917984009,-23.79400062561035 45.60900115966797,-47.19200134277344 45.60900115966797,-47.19200134277344 C45.60900115966797,-47.19200134277344 28.761999130249023,12.20300006866455 28.761999130249023,12.20300006866455 C28.761999130249023,12.20300006866455 7.380000114440918,29.625999450683594 7.380000114440918,29.625999450683594 C7.380000114440918,29.625999450683594 -24.226999282836914,47.19200134277344 -24.226999282836914,47.19200134277344 C-24.226999282836914,47.19200134277344 -38.55400085449219,28.690000534057617 -38.55400085449219,28.690000534057617 C-38.55400085449219,28.690000534057617 -45.60900115966797,-1.9809999465942383 -45.60900115966797,-1.9809999465942383 C-45.60900115966797,-1.9809999465942383 3.635999917984009,-23.79400062561035 3.635999917984009,-23.79400062561035z"></path></g><g opacity="1" transform="matrix(1,0,0,1,101.83300018310547,91.25)"><path fill="rgb(90,117,60)" fill-opacity="1" d=" M-16.48699951171875,20.445999145507812 C-16.48699951171875,20.445999145507812 -6.9120001792907715,34.55699920654297 -6.9120001792907715,34.55699920654297 C-6.9120001792907715,34.55699920654297 23.038000106811523,30.0939998626709 23.038000106811523,30.0939998626709 C23.038000106811523,30.0939998626709 18.934999465942383,-34.55699920654297 18.934999465942383,-34.55699920654297 C18.934999465942383,-34.55699920654297 -23.038000106811523,-11.157999992370605 -23.038000106811523,-11.157999992370605 C-23.038000106811523,-11.157999992370605 -16.48699951171875,20.445999145507812 -16.48699951171875,20.445999145507812z"></path></g><g opacity="1" transform="matrix(1,0,0,1,99.60199737548828,40.17100143432617)"><path fill="rgb(115,141,86)" fill-opacity="1" d=" M-24.4060001373291,9.970999717712402 C-24.4060001373291,9.970999717712402 -20.805999755859375,39.92100143432617 -20.805999755859375,39.92100143432617 C-20.805999755859375,39.92100143432617 24.4060001373291,14.649999618530273 24.4060001373291,14.649999618530273 C24.4060001373291,14.649999618530273 17.27899932861328,6.442999839782715 17.27899932861328,6.442999839782715 C17.27899932861328,6.442999839782715 17.566999435424805,-14.722999572753906 17.566999435424805,-14.722999572753906 C17.566999435424805,-14.722999572753906 -0.7200000286102295,-39.92100143432617 -0.7200000286102295,-39.92100143432617 C-0.7200000286102295,-39.92100143432617 -24.4060001373291,9.970999717712402 -24.4060001373291,9.970999717712402z"></path></g><g opacity="1" transform="matrix(1,0,0,1,87.68699645996094,119.7959976196289)"><path fill="rgb(153,194,108)" fill-opacity="1" d=" M7.235000133514404,6.011000156402588 C7.235000133514404,6.011000156402588 -2.3399999141693115,-8.100000381469727 -2.3399999141693115,-8.100000381469727 C-2.3399999141693115,-8.100000381469727 -7.235000133514404,8.100000381469727 -7.235000133514404,8.100000381469727 C-7.235000133514404,8.100000381469727 7.235000133514404,6.011000156402588 7.235000133514404,6.011000156402588z"></path></g><g opacity="1" transform="matrix(1,0,0,1,91.5739974975586,90.4229965209961)"><path fill="rgb(184,198,69)" fill-opacity="1" d=" M5.291999816894531,-1.621000051498413 C5.291999816894531,-1.621000051498413 1.690999984741211,5.291999816894531 1.690999984741211,5.291999816894531 C1.690999984741211,5.291999816894531 -5.291999816894531,1.7630000114440918 -5.291999816894531,1.7630000114440918 C-5.291999816894531,1.7630000114440918 -1.690999984741211,-5.291999816894531 -1.690999984741211,-5.291999816894531 C-1.690999984741211,-5.291999816894531 5.291999816894531,-1.621000051498413 5.291999816894531,-1.621000051498413z"></path></g><g opacity="1" transform="matrix(1,0,0,1,96.90299987792969,113.35299682617188)"><path fill="rgb(184,198,69)" fill-opacity="1" d=" M5.291999816894531,-1.7289999723434448 C5.291999816894531,-1.7289999723434448 1.690000057220459,5.328000068664551 1.690000057220459,5.328000068664551 C1.690000057220459,5.328000068664551 -5.291999816894531,1.656000018119812 -5.291999816894531,1.656000018119812 C-5.291999816894531,1.656000018119812 -1.7660000324249268,-5.328000068664551 -1.7660000324249268,-5.328000068664551 C-1.7660000324249268,-5.328000068664551 5.291999816894531,-1.7289999723434448 5.291999816894531,-1.7289999723434448z"></path></g></g><g transform="matrix(1,0,0,1,240.56500244140625,170.9569854736328)" opacity="1" style="display: block;"><g opacity="1" transform="matrix(1,0,0,1,38.659000396728516,90.96299743652344)"><path fill="rgb(113,200,166)" fill-opacity="1" d=" M-38.409000396728516,-84.9540023803711 C-38.409000396728516,-84.9540023803711 -34.66600036621094,-90.71199798583984 -34.66600036621094,-90.71199798583984 C-34.66600036621094,-90.71199798583984 38.409000396728516,44.85200119018555 38.409000396728516,44.85200119018555 C38.409000396728516,44.85200119018555 20.913999557495117,90.71199798583984 20.913999557495117,90.71199798583984 C20.913999557495117,90.71199798583984 -38.409000396728516,-84.9540023803711 -38.409000396728516,-84.9540023803711z"></path></g></g><g transform="matrix(1,0,0,1,156.54800415039062,251.44699096679688)" opacity="1" style="display: block;"><g opacity="1" transform="matrix(1,0,0,1,31.27899932861328,43.26599884033203)"><path fill="rgb(232,239,120)" fill-opacity="1" d=" M-15.621999740600586,-31.78499984741211 C-15.621999740600586,-31.78499984741211 -27.285999298095703,-31.78499984741211 -27.285999298095703,-31.78499984741211 C-27.285999298095703,-31.78499984741211 -31.030000686645508,38.553001403808594 -31.030000686645508,38.553001403808594 C-31.030000686645508,38.553001403808594 5.328000068664551,38.553001403808594 5.328000068664551,38.553001403808594 C5.328000068664551,38.553001403808594 15.911999702453613,15.515999794006348 15.911999702453613,15.515999794006348 C15.911999702453613,15.515999794006348 27.64699935913086,6.083000183105469 27.64699935913086,6.083000183105469 C27.64699935913086,6.083000183105469 31.030000686645508,-38.553001403808594 31.030000686645508,-38.553001403808594 C31.030000686645508,-38.553001403808594 -15.621999740600586,-31.78499984741211 -15.621999740600586,-31.78499984741211z"></path></g><g opacity="1" transform="matrix(1,0,0,1,69.94100189208984,41.10599899291992)"><path fill="rgb(217,226,83)" fill-opacity="1" d=" M22.31800079345703,-40.856998443603516 C22.31800079345703,-40.856998443603516 -7.631999969482422,-36.393001556396484 -7.631999969482422,-36.393001556396484 C-7.631999969482422,-36.393001556396484 -22.82200050354004,17.458999633789062 -22.82200050354004,17.458999633789062 C-22.82200050354004,17.458999633789062 -22.75,17.673999786376953 -22.75,17.673999786376953 C-22.75,17.673999786376953 -9.142999649047852,40.856998443603516 -9.142999649047852,40.856998443603516 C-9.142999649047852,40.856998443603516 22.82200050354004,40.856998443603516 22.82200050354004,40.856998443603516 C22.82200050354004,40.856998443603516 22.31800079345703,-40.856998443603516 22.31800079345703,-40.856998443603516z"></path></g><g opacity="1" transform="matrix(1,0,0,1,48.125999450683594,20.1200008392334)"><path fill="rgb(184,198,69)" fill-opacity="1" d=" M-44.132999420166016,-8.638999938964844 C-44.132999420166016,-8.638999938964844 4.247000217437744,19.8700008392334 4.247000217437744,19.8700008392334 C4.247000217437744,19.8700008392334 44.132999420166016,-9.503000259399414 44.132999420166016,-9.503000259399414 C44.132999420166016,-9.503000259399414 44.132999420166016,-19.8700008392334 44.132999420166016,-19.8700008392334 C44.132999420166016,-19.8700008392334 -44.132999420166016,-8.638999938964844 -44.132999420166016,-8.638999938964844z"></path></g></g><g transform="matrix(1,0,0,1,86.21000671386719,212.3879852294922)" opacity="1" style="display: block;"><g opacity="1" transform="matrix(1,0,0,1,21.992000579833984,70.08799743652344)"><path fill="rgb(195,151,122)" fill-opacity="1" d=" M3.9600000381469727,-12.314000129699707 C3.9600000381469727,-12.314000129699707 6.335999965667725,6.4039998054504395 6.335999965667725,6.4039998054504395 C6.335999965667725,6.4039998054504395 1.9429999589920044,12.314000129699707 1.9429999589920044,12.314000129699707 C1.9429999589920044,12.314000129699707 -6.335999965667725,2.9539999961853027 -6.335999965667725,2.9539999961853027 C-6.335999965667725,2.9539999961853027 3.9600000381469727,-12.314000129699707 3.9600000381469727,-12.314000129699707z"></path></g><g opacity="1" transform="matrix(1,0,0,1,10.545999526977539,84.87999725341797)"><path fill="rgb(195,151,122)" fill-opacity="1" d=" M7.127999782562256,-13.930999755859375 C7.127999782562256,-13.930999755859375 10.295999526977539,-2.8440001010894775 10.295999526977539,-2.8440001010894775 C10.295999526977539,-2.8440001010894775 10.222999572753906,13.930000305175781 10.222999572753906,13.930000305175781 C10.222999572753906,13.930000305175781 1.871999979019165,10.258000373840332 1.871999979019165,10.258000373840332 C1.871999979019165,10.258000373840332 -10.295999526977539,-10.116999626159668 -10.295999526977539,-10.116999626159668 C-10.295999526977539,-10.116999626159668 7.127999782562256,-13.930999755859375 7.127999782562256,-13.930999755859375z"></path></g><g opacity="1" transform="matrix(1,0,0,1,23.756000518798828,32.46699905395508)"><path fill="rgb(153,194,108)" fill-opacity="1" d=" M14.218999862670898,-9.654999732971191 C14.218999862670898,-9.654999732971191 2.196000099182129,25.308000564575195 2.196000099182129,25.308000564575195 C2.196000099182129,25.308000564575195 -8.243000030517578,32.21699905395508 -8.243000030517578,32.21699905395508 C-8.243000030517578,32.21699905395508 -14.003000259399414,22.209999084472656 -14.003000259399414,22.209999084472656 C-14.003000259399414,22.209999084472656 -14.218999862670898,-14.57800006866455 -14.218999862670898,-14.57800006866455 C-14.218999862670898,-14.57800006866455 3.203000068664551,-32.21699905395508 3.203000068664551,-32.21699905395508 C3.203000068664551,-32.21699905395508 14.218999862670898,-9.654999732971191 14.218999862670898,-9.654999732971191z"></path></g><g opacity="1" transform="matrix(1,0,0,1,13.10099983215332,68.35700225830078)"><path fill="rgb(223,188,164)" fill-opacity="1" d=" M-3.3480000495910645,-13.680000305175781 C-3.3480000495910645,-13.680000305175781 -12.85099983215332,6.4079999923706055 -12.85099983215332,6.4079999923706055 C-12.85099983215332,6.4079999923706055 7.739999771118164,13.680000305175781 7.739999771118164,13.680000305175781 C7.739999771118164,13.680000305175781 12.85099983215332,-10.581000328063965 12.85099983215332,-10.581000328063965 C12.85099983215332,-10.581000328063965 -3.3480000495910645,-13.680000305175781 -3.3480000495910645,-13.680000305175781z"></path></g></g><g transform="matrix(1,0,0,1,95.49800109863281,171.9639892578125)" opacity="1" style="display: block;"><g opacity="1" transform="matrix(1,0,0,1,28.363000869750977,16.23200035095215)"><path fill="rgb(83,175,138)" fill-opacity="1" d=" M12.491000175476074,4.60699987411499 C12.491000175476074,4.60699987411499 0.3240000009536743,-15.982000350952148 0.3240000009536743,-15.982000350952148 C0.3240000009536743,-15.982000350952148 -12.491000175476074,4.535999774932861 -12.491000175476074,4.535999774932861 C-12.491000175476074,4.535999774932861 -0.18000000715255737,15.982000350952148 -0.18000000715255737,15.982000350952148 C-0.18000000715255737,15.982000350952148 12.491000175476074,4.60699987411499 12.491000175476074,4.60699987411499z"></path></g><g opacity="1" transform="matrix(1,0,0,1,25.770999908447266,42.00199890136719)"><path fill="rgb(115,141,86)" fill-opacity="1" d=" M25.520999908447266,3.819999933242798 C25.520999908447266,3.819999933242798 2.9170000553131104,21.233999252319336 2.9170000553131104,21.233999252319336 C2.9170000553131104,21.233999252319336 -25.520999908447266,16.31100082397461 -25.520999908447266,16.31100082397461 C-25.520999908447266,16.31100082397461 -9.899999618530273,-21.233999252319336 -9.899999618530273,-21.233999252319336 C-9.899999618530273,-21.233999252319336 15.083000183105469,-21.16200065612793 15.083000183105469,-21.16200065612793 C15.083000183105469,-21.16200065612793 25.520999908447266,3.819999933242798 25.520999908447266,3.819999933242798z"></path></g></g><g transform="matrix(1,0,0,1,270.33599853515625,42.662986755371094)" opacity="1" style="display: block;"><g opacity="1" transform="matrix(1,0,0,1,12.704999923706055,17.275999069213867)"><path fill="rgb(138,102,81)" fill-opacity="1" d=" M-0.7919999957084656,-7.882999897003174 C-0.7919999957084656,-7.882999897003174 7.919000148773193,-0.8999999761581421 7.919000148773193,-0.8999999761581421 C7.919000148773193,-0.8999999761581421 5.544000148773193,8.890999794006348 5.544000148773193,8.890999794006348 C5.544000148773193,8.890999794006348 -0.2879999876022339,8.963000297546387 -0.8640000224113464,8.38700008392334 C-1.5130000114440918,7.739999771118164 -7.919000148773193,-0.828000009059906 -7.703000068664551,-1.1160000562667847 C-7.63100004196167,-1.5479999780654907 -4.248000144958496,-8.963000297546387 -4.248000144958496,-8.963000297546387 C-4.248000144958496,-8.963000297546387 -0.7919999957084656,-7.882999897003174 -0.7919999957084656,-7.882999897003174z"></path></g><g opacity="1" transform="matrix(1,0,0,1,10.904999732971191,17.780000686645508)"><path fill="rgb(195,151,122)" fill-opacity="1" d=" M-10.654999732971191,15.154999732971191 C-10.654999732971191,15.154999732971191 -8.782999992370605,-4.427999973297119 -8.782999992370605,-4.427999973297119 C-8.782999992370605,-4.427999973297119 0.4320000112056732,-14.722999572753906 0.4320000112056732,-14.722999572753906 C0.4320000112056732,-14.722999572753906 10.654999732971191,-15.154999732971191 10.654999732971191,-15.154999732971191 C10.654999732971191,-15.154999732971191 6.191999912261963,-8.38700008392334 6.191999912261963,-8.38700008392334 C6.191999912261963,-8.38700008392334 5.25600004196167,-8.243000030517578 5.25600004196167,-8.243000030517578 C5.25600004196167,-8.243000030517578 1.2960000038146973,-2.9159998893737793 1.2960000038146973,-2.9159998893737793 C1.2960000038146973,-2.9159998893737793 3.5280001163482666,6.084000110626221 3.5280001163482666,6.084000110626221 C3.5280001163482666,6.084000110626221 -10.654999732971191,15.154999732971191 -10.654999732971191,15.154999732971191z"></path></g><g opacity="1" transform="matrix(1,0,0,1,14.468999862670898,31.5310001373291)"><path fill="rgb(223,188,164)" fill-opacity="1" d=" M1.1890000104904175,10.331000328063965 C1.1890000104904175,10.331000328063965 7.666999816894531,1.5470000505447388 7.666999816894531,1.5470000505447388 C7.666999816894531,1.5470000505447388 14.218999862670898,-12.345999717712402 14.218999862670898,-12.345999717712402 C14.218999862670898,-12.345999717712402 10.979000091552734,-14.793999671936035 10.979000091552734,-14.793999671936035 C10.979000091552734,-14.793999671936035 -14.218999862670898,1.4049999713897705 -14.218999862670898,1.4049999713897705 C-14.218999862670898,1.4049999713897705 -11.33899974822998,14.793999671936035 -11.33899974822998,14.793999671936035 C-11.33899974822998,14.793999671936035 1.1890000104904175,10.331000328063965 1.1890000104904175,10.331000328063965z"></path></g><g opacity="1" transform="matrix(1,0,0,1,24.40399932861328,8.494000434875488)"><path fill="rgb(184,198,69)" fill-opacity="1" d=" M8.243000030517578,-1.0449999570846558 C8.243000030517578,-1.0449999570846558 1.0440000295639038,8.243000030517578 1.0440000295639038,8.243000030517578 C1.0440000295639038,8.243000030517578 -8.243000030517578,1.0429999828338623 -8.243000030517578,1.0429999828338623 C-8.243000030517578,1.0429999828338623 -1.0449999570846558,-8.243000030517578 -1.0449999570846558,-8.243000030517578 C-1.0449999570846558,-8.243000030517578 8.243000030517578,-1.0449999570846558 8.243000030517578,-1.0449999570846558z"></path></g><g opacity="1" transform="matrix(1,0,0,1,24.40399932861328,9.105999946594238)"><path fill="rgb(255,255,255)" fill-opacity="1" d=" M2.88100004196167,-0.32499998807907104 C2.88100004196167,-0.32499998807907104 0.28700000047683716,2.9149999618530273 0.28700000047683716,2.9149999618530273 C0.28700000047683716,2.9149999618530273 -2.88100004196167,0.3230000138282776 -2.88100004196167,0.3230000138282776 C-2.88100004196167,0.3230000138282776 -0.35899999737739563,-2.9149999618530273 -0.35899999737739563,-2.9149999618530273 C-0.35899999737739563,-2.9149999618530273 2.88100004196167,-0.32499998807907104 2.88100004196167,-0.32499998807907104z"></path></g></g><g transform="matrix(1,0,0,1,222.5670166015625,104.43399047851562)" opacity="1" style="display: block;"><g opacity="1" transform="matrix(1,0,0,1,26.29400062561035,36.39099884033203)"><path fill="rgb(90,117,60)" fill-opacity="1" d=" M-26.04400062561035,-10.222999572753906 C-26.04400062561035,-10.222999572753906 -8.045999526977539,36.14099884033203 -8.045999526977539,36.14099884033203 C-8.045999526977539,36.14099884033203 26.04400062561035,-10.51099967956543 26.04400062561035,-10.51099967956543 C26.04400062561035,-10.51099967956543 24.423999786376953,-36.14099884033203 24.423999786376953,-36.14099884033203 C24.423999786376953,-36.14099884033203 -0.5230000019073486,-24.261999130249023 -0.5230000019073486,-24.261999130249023 C-0.5230000019073486,-24.261999130249023 -26.04400062561035,-10.222999572753906 -26.04400062561035,-10.222999572753906z"></path></g></g><g transform="matrix(1,0,0,1,248.08999633789062,75.34798431396484)" opacity="1" style="display: block;"><g opacity="1" transform="matrix(1,0,0,1,19.076000213623047,27.607999801635742)"><path fill="rgb(153,194,108)" fill-opacity="1" d=" M3.4200000762939453,-27.357999801635742 C3.4200000762939453,-27.357999801635742 -18.826000213623047,13.607000350952148 -18.826000213623047,13.607000350952148 C-18.826000213623047,13.607000350952148 7.738999843597412,27.357999801635742 7.738999843597412,27.357999801635742 C7.738999843597412,27.357999801635742 18.826000213623047,-18.430999755859375 18.826000213623047,-18.430999755859375 C18.826000213623047,-18.430999755859375 3.4200000762939453,-27.357999801635742 3.4200000762939453,-27.357999801635742z"></path></g></g><g transform="matrix(1,0,0,1,83.83500671386719,-0.2450103759765625)" opacity="1" style="display: block;"><g opacity="1" transform="matrix(1,0,0,1,23.18000030517578,140.9980010986328)"><path fill="rgb(43,43,43)" fill-opacity="1" d=" M11.987000465393066,17.42300033569336 C11.987000465393066,17.42300033569336 -11.987000465393066,5.831999778747559 -11.987000465393066,5.831999778747559 C-11.987000465393066,5.831999778747559 -10.329999923706055,-17.42300033569336 -10.329999923706055,-17.42300033569336 C-10.329999923706055,-17.42300033569336 6.01200008392334,-14.685999870300293 6.01200008392334,-14.685999870300293 C6.01200008392334,-14.685999870300293 11.987000465393066,17.42300033569336 11.987000465393066,17.42300033569336z"></path></g><g opacity="1" transform="matrix(1,0,0,1,90.71099853515625,105.18099975585938)"><path fill="rgb(223,188,164)" fill-opacity="1" d=" M20.194000244140625,28.617000579833984 C20.194000244140625,28.617000579833984 2.2679998874664307,50.79199981689453 2.2679998874664307,50.79199981689453 C2.2679998874664307,50.79199981689453 8.027000427246094,71.5270004272461 8.027000427246094,71.5270004272461 C8.027000427246094,71.5270004272461 -30.273000717163086,54.96699905395508 -30.273000717163086,54.96699905395508 C-30.273000717163086,54.96699905395508 -36.75299835205078,9.539999961853027 -36.75299835205078,9.539999961853027 C-36.75299835205078,9.539999961853027 -49.928001403808594,-16.52400016784668 -49.928001403808594,-16.52400016784668 C-49.928001403808594,-16.52400016784668 -51.58399963378906,-50.28799819946289 -51.58399963378906,-50.28799819946289 C-51.58399963378906,-50.28799819946289 -15.083000183105469,-71.5270004272461 -15.083000183105469,-71.5270004272461 C-15.083000183105469,-71.5270004272461 18.465999603271484,-67.71099853515625 18.465999603271484,-67.71099853515625 C18.465999603271484,-67.71099853515625 25.95400047302246,-60.36800003051758 25.95400047302246,-60.36800003051758 C25.95400047302246,-60.36800003051758 51.58399963378906,16.305999755859375 51.58399963378906,16.305999755859375 C51.58399963378906,16.305999755859375 20.194000244140625,28.617000579833984 20.194000244140625,28.617000579833984z"></path></g><g opacity="1" transform="matrix(1,0,0,1,68.177001953125,120.98400115966797)"><path fill="rgb(195,151,122)" fill-opacity="1" d=" M-34.952999114990234,-15.190999984741211 C-34.952999114990234,-15.190999984741211 -7.738999843597412,39.165000915527344 -7.738999843597412,39.165000915527344 C-7.738999843597412,39.165000915527344 30.56100082397461,55.722999572753906 30.56100082397461,55.722999572753906 C30.56100082397461,55.722999572753906 34.952999114990234,40.388999938964844 34.952999114990234,40.388999938964844 C34.952999114990234,40.388999938964844 14.722999572753906,22.82200050354004 14.722999572753906,22.82200050354004 C14.722999572753906,22.82200050354004 -12.779000282287598,-49.099998474121094 -12.779000282287598,-49.099998474121094 C-12.779000282287598,-49.099998474121094 -18.826000213623047,-55.722999572753906 -18.826000213623047,-55.722999572753906 C-18.826000213623047,-55.722999572753906 -27.826000213623047,-33.117000579833984 -27.826000213623047,-33.117000579833984 C-27.826000213623047,-33.117000579833984 -34.952999114990234,-15.190999984741211 -34.952999114990234,-15.190999984741211z"></path></g><g opacity="1" transform="matrix(1,0,0,1,58.349998474121094,26.56399917602539)"><path fill="rgb(133,133,133)" fill-opacity="1" d=" M-48.45199966430664,10.475000381469727 C-48.45199966430664,10.475000381469727 -26.35099983215332,26.31399917602539 -26.35099983215332,26.31399917602539 C-26.35099983215332,26.31399917602539 7.919000148773193,5.507999897003174 7.919000148773193,5.507999897003174 C7.919000148773193,5.507999897003174 48.45199966430664,-22.857999801635742 48.45199966430664,-22.857999801635742 C48.45199966430664,-22.857999801635742 32.10900115966797,-26.31399917602539 32.10900115966797,-26.31399917602539 C32.10900115966797,-26.31399917602539 -48.45199966430664,10.475000381469727 -48.45199966430664,10.475000381469727z"></path></g><g opacity="1" transform="matrix(1,0,0,1,125.9520034790039,57.233001708984375)"><path fill="rgb(43,43,43)" fill-opacity="1" d=" M-5.760000228881836,-24.513999938964844 C-5.760000228881836,-24.513999938964844 -5.400000095367432,-15.586999893188477 -5.400000095367432,-15.586999893188477 C-5.400000095367432,-15.586999893188477 16.343000411987305,1.4040000438690186 16.343000411987305,1.4040000438690186 C16.343000411987305,1.4040000438690186 3.5269999504089355,25.881999969482422 3.5269999504089355,25.881999969482422 C3.5269999504089355,25.881999969482422 -9.286999702453613,-12.418999671936035 -9.286999702453613,-12.418999671936035 C-9.286999702453613,-12.418999671936035 -16.343000411987305,-19.69099998474121 -16.343000411987305,-19.69099998474121 C-16.343000411987305,-19.69099998474121 -13.319000244140625,-25.881999969482422 -13.319000244140625,-25.881999969482422 C-13.319000244140625,-25.881999969482422 -5.760000228881836,-24.513999938964844 -5.760000228881836,-24.513999938964844z"></path></g><g opacity="1" transform="matrix(1,0,0,1,101.22200012207031,78.97599792480469)"><path fill="rgb(232,201,182)" fill-opacity="1" d=" M11.123000144958496,14.001999855041504 C11.123000144958496,14.001999855041504 1.1160000562667847,17.746999740600586 1.1160000562667847,17.746999740600586 C1.1160000562667847,17.746999740600586 -11.123000144958496,-14.001999855041504 -11.123000144958496,-14.001999855041504 C-11.123000144958496,-14.001999855041504 -1.1160000562667847,-17.746999740600586 -1.1160000562667847,-17.746999740600586 C-1.1160000562667847,-17.746999740600586 11.123000144958496,14.001999855041504 11.123000144958496,14.001999855041504z"></path></g><g opacity="1" transform="matrix(1,0,0,1,107.34200286865234,95.71399688720703)"><path fill="rgb(138,102,81)" fill-opacity="1" d=" M5.004000186920166,-2.7360000610351562 C5.004000186920166,-2.7360000610351562 2.2669999599456787,2.7360000610351562 2.2669999599456787,2.7360000610351562 C2.2669999599456787,2.7360000610351562 -5.004000186920166,1.0089999437332153 -5.004000186920166,1.0089999437332153 C-5.004000186920166,1.0089999437332153 5.004000186920166,-2.7360000610351562 5.004000186920166,-2.7360000610351562z"></path></g><g opacity="1" transform="matrix(1,0,0,1,48.05400085449219,126.2040023803711)"><path fill="rgb(138,102,81)" fill-opacity="1" d=" M-5.9039998054504395,-2.700000047683716 C-5.9039998054504395,-2.700000047683716 5.9039998054504395,-11.482999801635742 5.9039998054504395,-11.482999801635742 C5.9039998054504395,-11.482999801635742 1.1510000228881836,11.482999801635742 1.1510000228881836,11.482999801635742 C1.1510000228881836,11.482999801635742 -5.9039998054504395,-2.700000047683716 -5.9039998054504395,-2.700000047683716z"></path></g><g opacity="1" transform="matrix(1,0,0,1,75.30400085449219,65.54900360107422)"><path fill="rgb(70,70,70)" fill-opacity="1" d=" M-9.611000061035156,4.247000217437744 C-9.611000061035156,4.247000217437744 -4.932000160217285,6.335000038146973 -4.932000160217285,6.335000038146973 C-4.932000160217285,6.335000038146973 2.3399999141693115,-2.809000015258789 2.3399999141693115,-2.809000015258789 C2.3399999141693115,-2.809000015258789 9.611000061035156,-2.809000015258789 9.611000061035156,-2.809000015258789 C9.611000061035156,-2.809000015258789 9.611000061035156,-4.320000171661377 9.611000061035156,-4.320000171661377 C9.611000061035156,-4.320000171661377 1.6200000047683716,-6.335000038146973 1.6200000047683716,-6.335000038146973 C1.6200000047683716,-6.335000038146973 -9.611000061035156,4.247000217437744 -9.611000061035156,4.247000217437744z"></path></g><g opacity="1" transform="matrix(1,0,0,1,105.54199981689453,55.073001861572266)"><path fill="rgb(70,70,70)" fill-opacity="1" d=" M-7.380000114440918,0.8999999761581421 C-7.380000114440918,0.8999999761581421 -5.435999870300293,6.156000137329102 -5.435999870300293,6.156000137329102 C-5.435999870300293,6.156000137329102 1.8359999656677246,-3.059000015258789 1.8359999656677246,-3.059000015258789 C1.8359999656677246,-3.059000015258789 7.380000114440918,-2.4119999408721924 7.380000114440918,-2.4119999408721924 C7.380000114440918,-2.4119999408721924 7.380000114440918,-3.562999963760376 7.380000114440918,-3.562999963760376 C7.380000114440918,-3.562999963760376 0.035999998450279236,-6.156000137329102 0.035999998450279236,-6.156000137329102 C0.035999998450279236,-6.156000137329102 -7.380000114440918,0.8999999761581421 -7.380000114440918,0.8999999761581421z"></path></g><g opacity="1" transform="matrix(1,0,0,1,84.51899719238281,74.94300079345703)"><path fill="rgb(195,151,122)" fill-opacity="1" d=" M-14.147000312805176,-3.059000015258789 C-14.147000312805176,-3.059000015258789 14.147000312805176,12.20300006866455 14.147000312805176,12.20300006866455 C14.147000312805176,12.20300006866455 5.579999923706055,-9.970999717712402 5.579999923706055,-9.970999717712402 C5.579999923706055,-9.970999717712402 0.39500001072883606,-12.20300006866455 0.39500001072883606,-12.20300006866455 C0.39500001072883606,-12.20300006866455 -6.875,-12.20300006866455 -6.875,-12.20300006866455 C-6.875,-12.20300006866455 -14.147000312805176,-3.059000015258789 -14.147000312805176,-3.059000015258789z"></path></g><g opacity="1" transform="matrix(1,0,0,1,106.51399993896484,64.21700286865234)"><path fill="rgb(195,151,122)" fill-opacity="1" d=" M-0.5040000081062317,12.20300006866455 C-0.5040000081062317,12.20300006866455 6.4079999923706055,-11.555999755859375 6.4079999923706055,-11.555999755859375 C6.4079999923706055,-11.555999755859375 0.8640000224113464,-12.20300006866455 0.8640000224113464,-12.20300006866455 C0.8640000224113464,-12.20300006866455 -6.4079999923706055,-2.98799991607666 -6.4079999923706055,-2.98799991607666 C-6.4079999923706055,-2.98799991607666 -0.5040000081062317,12.20300006866455 -0.5040000081062317,12.20300006866455z"></path></g><g opacity="1" transform="matrix(1,0,0,1,108.06199645996094,108.31300354003906)"><path fill="rgb(138,102,81)" fill-opacity="1" d=" M-14.14799976348877,4.104000091552734 C-14.14799976348877,4.104000091552734 -1.0240000486373901,-0.7710000276565552 -1.0240000486373901,-0.7710000276565552 C-1.0240000486373901,-0.7710000276565552 14.14799976348877,-6.4079999923706055 14.14799976348877,-6.4079999923706055 C14.14799976348877,-6.4079999923706055 12.491999626159668,-1.3680000305175781 12.491999626159668,-1.3680000305175781 C12.491999626159668,-1.3680000305175781 3.7290000915527344,1.6749999523162842 3.7290000915527344,1.6749999523162842 C3.7290000915527344,1.6749999523162842 -9.899999618530273,6.4079999923706055 -9.899999618530273,6.4079999923706055 C-9.899999618530273,6.4079999923706055 -14.14799976348877,4.104000091552734 -14.14799976348877,4.104000091552734z"></path></g><g opacity="1" transform="matrix(1,0,0,1,93.12200164794922,147.58599853515625)"><path fill="rgb(138,102,81)" fill-opacity="1" d=" M10.008000373840332,13.786999702453613 C10.008000373840332,13.786999702453613 17.783000946044922,-13.786999702453613 17.783000946044922,-13.786999702453613 C17.783000946044922,-13.786999702453613 -17.783000946044922,-1.0440000295639038 -17.783000946044922,-1.0440000295639038 C-17.783000946044922,-1.0440000295639038 10.008000373840332,13.786999702453613 10.008000373840332,13.786999702453613z"></path></g><g opacity="1" transform="matrix(1,0,0,1,129.47999572753906,45.678001403808594)"><path fill="rgb(133,133,133)" fill-opacity="1" d=" M-12.8149995803833,-0.8640000224113464 C-12.8149995803833,-0.8640000224113464 -9.288000106811523,-12.958999633789062 -9.288000106811523,-12.958999633789062 C-9.288000106811523,-12.958999633789062 12.8149995803833,12.958999633789062 12.8149995803833,12.958999633789062 C12.8149995803833,12.958999633789062 -12.8149995803833,-0.8640000224113464 -12.8149995803833,-0.8640000224113464z"></path></g><g opacity="1" transform="matrix(1,0,0,1,135.88699340820312,73.21600341796875)"><path fill="rgb(79,82,82)" fill-opacity="1" d=" M-5.9039998054504395,-21.20199966430664 C-5.9039998054504395,-21.20199966430664 -6.4079999923706055,9.89900016784668 -6.4079999923706055,9.89900016784668 C-6.4079999923706055,9.89900016784668 -2.6640000343322754,21.20199966430664 -2.6640000343322754,21.20199966430664 C-2.6640000343322754,21.20199966430664 6.4079999923706055,-14.57800006866455 6.4079999923706055,-14.57800006866455 C6.4079999923706055,-14.57800006866455 -5.9039998054504395,-21.20199966430664 -5.9039998054504395,-21.20199966430664z"></path></g><g opacity="1" transform="matrix(1,0,0,1,42.40299987792969,105.5770034790039)"><path fill="rgb(223,188,164)" fill-opacity="1" d=" M-0.25200000405311584,17.927000045776367 C-0.25200000405311584,17.927000045776367 11.555000305175781,9.144000053405762 11.555000305175781,9.144000053405762 C11.555000305175781,9.144000053405762 -1.9079999923706055,-17.927000045776367 -1.9079999923706055,-17.927000045776367 C-1.9079999923706055,-17.927000045776367 -11.555000305175781,-4.751999855041504 -11.555000305175781,-4.751999855041504 C-11.555000305175781,-4.751999855041504 -0.25200000405311584,17.927000045776367 -0.25200000405311584,17.927000045776367z"></path></g><g opacity="1" transform="matrix(1,0,0,1,41.106998443603516,103.05799865722656)"><path fill="rgb(138,102,81)" fill-opacity="1" d=" M-5.002999782562256,-0.6489999890327454 C-5.002999782562256,-0.6489999890327454 -0.6850000023841858,-6.191999912261963 -0.6850000023841858,-6.191999912261963 C-0.6850000023841858,-6.191999912261963 5.002999782562256,6.191999912261963 5.002999782562256,6.191999912261963 C5.002999782562256,6.191999912261963 -5.002999782562256,-0.6489999890327454 -5.002999782562256,-0.6489999890327454z"></path></g><g opacity="1" transform="matrix(1,0,0,1,91.10600280761719,46.79399871826172)"><path fill="rgb(195,151,122)" fill-opacity="1" d=" M-21.81399917602539,9.25100040435791 C-21.81399917602539,9.25100040435791 21.81399917602539,-5.867000102996826 21.81399917602539,-5.867000102996826 C21.81399917602539,-5.867000102996826 18.503000259399414,-9.25100040435791 18.503000259399414,-9.25100040435791 C18.503000259399414,-9.25100040435791 -21.81399917602539,9.25100040435791 -21.81399917602539,9.25100040435791z"></path></g><g opacity="1" transform="matrix(1,0,0,1,30.3439998626709,124.65499877929688)"><path fill="rgb(43,43,43)" fill-opacity="1" d=" M-30.0939998626709,-20.805999755859375 C-30.0939998626709,-20.805999755859375 1.2960000038146973,10.366999626159668 1.2960000038146973,10.366999626159668 C1.2960000038146973,10.366999626159668 4.822999954223633,33.76599884033203 4.822999954223633,33.76599884033203 C4.822999954223633,33.76599884033203 30.0939998626709,35.49300003051758 30.0939998626709,35.49300003051758 C30.0939998626709,35.49300003051758 0.5040000081062317,-23.829999923706055 0.5040000081062317,-23.829999923706055 C0.5040000081062317,-23.829999923706055 -8.279999732971191,-35.49300003051758 -8.279999732971191,-35.49300003051758 C-8.279999732971191,-35.49300003051758 -30.0939998626709,-20.805999755859375 -30.0939998626709,-20.805999755859375z"></path></g><g opacity="1" transform="matrix(1,0,0,1,21.201000213623047,131.13499450683594)"><path fill="rgb(70,70,70)" fill-opacity="1" d=" M-20.951000213623047,-27.285999298095703 C-20.951000213623047,-27.285999298095703 20.951000213623047,-7.63100004196167 20.951000213623047,-7.63100004196167 C20.951000213623047,-7.63100004196167 13.967000007629395,27.285999298095703 13.967000007629395,27.285999298095703 C13.967000007629395,27.285999298095703 -20.951000213623047,-27.285999298095703 -20.951000213623047,-27.285999298095703z"></path></g><g opacity="1" transform="matrix(1,0,0,1,33.29600143432617,79.51499938964844)"><path fill="rgb(70,70,70)" fill-opacity="1" d=" M33.04600143432617,37.65299987792969 C33.04600143432617,37.65299987792969 12.310999870300293,-4.751999855041504 12.310999870300293,-4.751999855041504 C12.310999870300293,-4.751999855041504 16.054000854492188,-14.255000114440918 16.054000854492188,-14.255000114440918 C16.054000854492188,-14.255000114440918 11.37399959564209,-34.41299819946289 11.37399959564209,-34.41299819946289 C11.37399959564209,-34.41299819946289 -23.398000717163086,-42.47700119018555 -23.398000717163086,-42.47700119018555 C-23.398000717163086,-42.47700119018555 -33.04600143432617,24.333999633789062 -33.04600143432617,24.333999633789062 C-33.04600143432617,24.333999633789062 -2.447999954223633,21.309999465942383 -2.447999954223633,21.309999465942383 C-2.447999954223633,21.309999465942383 7.054999828338623,8.35200023651123 7.054999828338623,8.35200023651123 C7.054999828338623,8.35200023651123 24.26099967956543,42.47700119018555 24.26099967956543,42.47700119018555 C24.26099967956543,42.47700119018555 33.04600143432617,37.65299987792969 33.04600143432617,37.65299987792969z"></path></g><g opacity="1" transform="matrix(1,0,0,1,138.37100219726562,90.85399627685547)"><path fill="rgb(133,133,133)" fill-opacity="1" d=" M-0.1080000028014183,-16.09000015258789 C-0.1080000028014183,-16.09000015258789 5.1479997634887695,-2.555000066757202 5.1479997634887695,-2.555000066757202 C5.1479997634887695,-2.555000066757202 -0.9729999899864197,16.09000015258789 -0.9729999899864197,16.09000015258789 C-0.9729999899864197,16.09000015258789 -5.146999835968018,3.565000057220459 -5.146999835968018,3.565000057220459 C-5.146999835968018,3.565000057220459 -0.1080000028014183,-16.09000015258789 -0.1080000028014183,-16.09000015258789z"></path></g><g opacity="1" transform="matrix(1,0,0,1,58.349998474121094,34.483001708984375)"><path fill="rgb(110,112,115)" fill-opacity="1" d=" M48.45199966430664,-30.777999877929688 C48.45199966430664,-30.777999877929688 29.950000762939453,2.2669999599456787 29.950000762939453,2.2669999599456787 C29.950000762939453,2.2669999599456787 -8.99899959564209,30.777999877929688 -8.99899959564209,30.777999877929688 C-8.99899959564209,30.777999877929688 -48.45199966430664,2.555000066757202 -48.45199966430664,2.555000066757202 C-48.45199966430664,2.555000066757202 48.45199966430664,-30.777999877929688 48.45199966430664,-30.777999877929688z"></path></g><g opacity="1" transform="matrix(1,0,0,1,88.40699768066406,34.483001708984375)"><path fill="rgb(133,133,133)" fill-opacity="1" d=" M18.395000457763672,-30.777999877929688 C18.395000457763672,-30.777999877929688 -39.05699920654297,30.777999877929688 -39.05699920654297,30.777999877929688 C-39.05699920654297,30.777999877929688 39.05699920654297,-5.1479997634887695 39.05699920654297,-5.1479997634887695 C39.05699920654297,-5.1479997634887695 18.395000457763672,-30.777999877929688 18.395000457763672,-30.777999877929688z"></path></g></g><g transform="matrix(1,0,0,1,161.7330322265625,62.4720344543457)" opacity="1" style="display: none;"><g opacity="1" transform="matrix(1.0965125560760498,0,0,1.0965125560760498,32.21500015258789,4.498000144958496)"><path fill="rgb(43,43,43)" fill-opacity="1" d=" M0,-4.248000144958496 C-2.303999900817871,-4.248000144958496 -4.248000144958496,-2.303999900817871 -4.248000144958496,0 C-4.248000144958496,2.375999927520752 -2.303999900817871,4.248000144958496 0,4.248000144958496 C2.375999927520752,4.248000144958496 4.248000144958496,2.375999927520752 4.248000144958496,0 C4.248000144958496,-2.303999900817871 2.375999927520752,-4.248000144958496 0,-4.248000144958496z"></path></g><g opacity="1" transform="matrix(1.0965125560760498,0,0,1.0965125560760498,4.498000144958496,14.505000114440918)"><path fill="rgb(43,43,43)" fill-opacity="1" d=" M0,-4.247000217437744 C-2.375999927520752,-4.247000217437744 -4.248000144958496,-2.303999900817871 -4.248000144958496,0 C-4.248000144958496,2.375999927520752 -2.375999927520752,4.247000217437744 0,4.247000217437744 C2.375,4.247000217437744 4.248000144958496,2.375999927520752 4.248000144958496,0 C4.248000144958496,-2.303999900817871 2.375,-4.247000217437744 0,-4.247000217437744z"></path></g></g><g transform="matrix(1,0,0,1,163.0279998779297,61.956993103027344)" opacity="1" style="display: block;"><g opacity="1" transform="matrix(1.0000090599060059,0,0,1.0000090599060059,32.21500015258789,4.498000144958496)"><path fill="rgb(43,43,43)" fill-opacity="1" d=" M0,-4.248000144958496 C-2.303999900817871,-4.248000144958496 -4.248000144958496,-2.303999900817871 -4.248000144958496,0 C-4.248000144958496,2.375999927520752 -2.303999900817871,4.248000144958496 0,4.248000144958496 C2.375999927520752,4.248000144958496 4.248000144958496,2.375999927520752 4.248000144958496,0 C4.248000144958496,-2.303999900817871 2.375999927520752,-4.248000144958496 0,-4.248000144958496z"></path></g><g opacity="1" transform="matrix(1.0000090599060059,0,0,1.0000090599060059,4.498000144958496,14.505000114440918)"><path fill="rgb(43,43,43)" fill-opacity="1" d=" M0,-4.247000217437744 C-2.375999927520752,-4.247000217437744 -4.248000144958496,-2.303999900817871 -4.248000144958496,0 C-4.248000144958496,2.375999927520752 -2.375999927520752,4.247000217437744 0,4.247000217437744 C2.375,4.247000217437744 4.248000144958496,2.375999927520752 4.248000144958496,0 C4.248000144958496,-2.303999900817871 2.375,-4.247000217437744 0,-4.247000217437744z"></path></g></g><g transform="matrix(0,1,-1,0,131.49700927734375,-37.670013427734375)" opacity="1" style="display: block;"><g opacity="1" transform="matrix(1,0,0,1,87.5,-171.5)"><path fill="rgb(217,227,84)" fill-opacity="1" d=" M0,0 C0,0 0,0 0,0 C0,0 0,0 0,0 C0,0 0,0 0,0 C0,0 0,0 0,0 C0,0 0,0 0,0 C0,0 0,0 0,0 C0,0 0,0 0,0 C0,0 0,0 0,0 C0,0 0,0 0,0 C0,0 0,0 0,0z"></path></g></g><g transform="matrix(0.9999999403953552,0,0,0.9999999403953552,198.0205841064453,200.79833984375)" opacity="1" style="display: none;"><g opacity="1" transform="matrix(1,0,0,1,0,0)"><path stroke-linecap="butt" stroke-linejoin="miter" fill-opacity="0" stroke-miterlimit="4" stroke="rgb(43,43,43)" stroke-opacity="1" stroke-width="4" d=" M-36.625,-118.875 C-36.625,-118.875 -30.375,-119.125 -30.375,-119.125 C-30.375,-119.125 -27.25,-122.5 -27.25,-122.5"></path></g><g opacity="1" transform="matrix(1,0,0,1,0,0)"><path stroke-linecap="butt" stroke-linejoin="miter" fill-opacity="0" stroke-miterlimit="4" stroke="rgb(43,43,43)" stroke-opacity="1" stroke-width="4" d=" M-7.125,-129 C-7.125,-129 -1.5,-129.5 -1.5,-129.5 C-1.5,-129.5 0.625,-133.5 0.625,-133.5"></path></g></g></g></svg>