<svg xmlns="http://www.w3.org/2000/svg" viewBox="0 0 600 450"><defs><style>.a{fill:#ececeb;}.b{fill:#d1a1b8;}.c{fill:#b3889d;}.d{fill:#96637c;}.e{fill:#734d60;}.f{fill:#5a753d;}.g{fill:#446125;}.h{fill:#738d57;}.i{fill:#99c26d;}.j{fill:#709d53;}.k{fill:#27788c;}.l{fill:#3aa0ba;}.m{fill:#318fa6;}.n{fill:#72cbcc;}.o{fill:#1c7678;}.p{fill:#369496;}.q{fill:#50a9aa;}.r{fill:#165e60;}.s{fill:#2b2b2b;}.t{fill:#474747;}.u{fill:#737373;}.v{fill:#a3a3a3;}.w{fill:#c4c4c4;}.x{fill:#9da1a2;}.y{fill:#dfbda5;}.z{fill:#c3987b;}.aa{fill:#8b6651;}.ab{fill:#e8cab6;}.ac{fill:#8f8f8f;}.ad{fill:#dddddc;}.ae{fill:#fff;}.af{fill:#35785d;}.ag{fill:#6f7173;}.ah{fill:#4f5253;}</style></defs><title>scene_trait_judging</title><polygon class="a" points="584.88 374.06 511.06 361.18 376.18 345 118.94 375.47 195.35 386.1 390.12 394.01 584.88 374.06"/><polygon class="a" points="592.2 395.32 498.3 382.21 387.76 394.25 475.27 403.58 592.2 395.32"/><polygon class="a" points="410.31 396.85 272.6 377.72 110.55 395.44 238.94 408.9 410.31 396.85"/><polygon class="b" points="220.16 131.34 220.16 261.73 221.46 371.69 492.87 372.4 491.69 130.04 336.14 131.1 236.22 130.87 220.16 131.34"/><polygon class="c" points="227.36 139.84 228.54 363.9 485.79 364.61 484.61 137.83 227.36 139.84"/><path class="d" d="M268.47,143.38l-12.29,22.68,15.47,52.09,142.91,3.31,29.89,2.24,9.92-59.65-9-20.55H268.47ZM267.87,255H444.8l13.59,24-13.83,61.53H267.64l-9.1-58.34L268,255.12Z"/><path class="e" d="M228,255l.59,108.9,39-23.51.23-62.48.12-22.91-15.94-5.9ZM485.79,364.61,485.2,255l-.59.12-19.49-8.39-20.32,8.39-.24,85.39,41.35,24.1Z"/><path class="e" d="M227.36,139.84l.59,102L252.75,230l14.89.35.94-86.81L227.48,140Zm257.84,102L484.61,138l-39.22,5.55-.94,86.81,25.27-3.06,15.36,14.64Z"/><polygon class="e" points="227.83 241.77 227.95 255 485.2 255 485.2 241.77 227.83 241.77"/><rect class="f" x="243.72" y="69.5" width="48.83" height="74.05" transform="translate(160.9 374.38) rotate(-89.85)"/><rect class="g" x="211.61" y="101.52" width="48.86" height="9.87" transform="translate(129 342.24) rotate(-89.86)"/><rect class="h" x="266.68" y="85.35" width="16.51" height="29.62" transform="translate(174.06 374.83) rotate(-89.85)"/><rect class="i" x="255.45" y="69.5" width="48.83" height="74.05" transform="translate(172.6 386.11) rotate(-89.85)"/><rect class="g" x="223.34" y="101.52" width="48.86" height="9.87" transform="translate(140.7 353.97) rotate(-89.86)"/><rect class="h" x="278.41" y="85.35" width="16.51" height="29.62" transform="translate(185.76 386.56) rotate(-89.85)"/><polygon class="i" points="254.64 81.97 329.64 82.21 328.58 131.1 254.53 130.87 254.64 81.97"/><polygon class="j" points="328.46 131.1 260.55 130.87 264.45 82.08 328.46 131.1"/><rect class="g" x="235.06" y="101.52" width="48.86" height="9.87" transform="translate(152.39 365.69) rotate(-89.86)"/><rect class="h" x="290.14" y="85.35" width="16.51" height="29.62" transform="translate(197.46 398.29) rotate(-89.85)"/><polygon class="f" points="313.23 108.42 283.58 108.31 283.58 91.89 313.23 108.42"/><rect class="k" x="365.91" y="262.56" width="27.05" height="4.53"/><rect class="k" x="400.04" y="262.56" width="27.05" height="4.53"/><polygon class="l" points="402.4 267.17 424.84 267.17 424.84 356.46 402.4 356.46 402.4 267.17"/><polygon class="l" points="368.15 267.17 390.59 267.17 390.59 356.46 368.15 356.46 368.15 267.17"/><polygon class="m" points="368.15 278.03 390.59 267.17 368.15 267.17 368.15 278.03"/><polygon class="k" points="423.19 288.9 411.73 288.9 411.73 320.32 423.19 320.32 423.19 288.9"/><polygon class="k" points="389.06 288.9 377.48 288.9 377.48 320.32 389.06 320.32 389.06 288.9"/><polygon class="n" points="424.84 287.48 413.26 287.48 413.26 318.9 424.84 318.9 424.84 287.48"/><polygon class="n" points="390.59 287.48 379.13 287.48 379.13 318.9 390.59 318.9 390.59 287.48"/><rect class="o" x="252.64" y="178.7" width="34.37" height="55.28"/><rect class="o" x="377.71" y="175.98" width="33.9" height="56.58"/><polygon class="p" points="394.96 194.29 398.5 196.77 402.05 199.37 402.05 204.33 402.05 209.29 398.5 211.77 394.96 214.25 391.41 211.77 387.87 209.29 387.87 204.33 387.87 199.37 391.41 196.77 394.96 194.29"/><polygon class="p" points="269.76 196.65 272.95 198.07 276.14 199.49 277.44 202.91 278.74 206.34 277.44 209.76 276.14 213.19 272.95 214.73 269.76 216.14 266.69 214.73 263.5 213.19 262.2 209.76 260.9 206.34 262.2 202.91 263.5 199.49 266.69 198.07 269.76 196.65"/><polygon class="q" points="393.78 195.59 397.32 198.07 400.87 200.55 400.87 205.51 400.87 210.12 398.5 211.77 394.96 214.25 391.41 211.77 387.87 209.29 387.87 204.33 387.87 199.72 390.23 198.07 393.78 195.59"/><polygon class="q" points="268.46 197.84 271.65 199.25 274.84 200.67 276.14 204.09 277.44 207.64 276.14 211.06 275.19 213.66 272.95 214.73 269.76 216.14 266.69 214.73 263.5 213.19 262.2 209.76 260.9 206.34 262.2 202.91 263.15 200.31 265.39 199.25 268.46 197.84"/><polygon class="m" points="402.4 278.03 424.84 267.17 402.4 267.17 402.4 278.03"/><polygon class="a" points="212.24 388.46 118.23 375.35 7.8 387.52 140.91 406.06 212.24 388.46"/><polygon class="r" points="96.26 349.61 132.87 310.04 87.99 299.41 75.83 336.26 78.9 348.43 96.26 349.61"/><polygon class="s" points="54.09 375.71 96.26 349.61 83.74 341.45 75.83 336.26 49.72 362.48 54.09 375.71"/><polygon class="n" points="50.55 387.4 49.72 362.48 69.21 366.38 60.71 387.88 50.55 387.4"/><polygon class="p" points="69.09 374.88 50.55 387.4 68.62 388.11 69.09 374.88"/><polygon class="p" points="113.74 351.97 59.88 293.03 110.79 304.84 116.22 311.22 131.58 334.49 119.88 358.7 113.74 351.97"/><polygon class="o" points="82.08 317.36 59.88 293.03 110.79 304.84 116.22 311.22 82.08 317.36"/><polygon class="t" points="129.56 392.72 108.66 345.82 131.58 334.49 141.26 383.5 129.56 392.72"/><polygon class="n" points="138.31 368.38 129.56 392.72 163.94 374.41 138.31 368.38"/><polygon class="p" points="156.14 364.73 152.95 380.2 163.94 374.41 156.14 364.73"/><polygon class="r" points="194.29 289.96 179.88 282.87 178.46 294.57 195.71 300.24 197.6 294.45 194.29 289.96"/><polygon class="r" points="223.7 283.35 353.39 282.76 330.12 299.76 209.29 300.83 194.29 289.96 223.7 283.35"/><polygon class="s" points="353.86 221.22 364.6 192.16 354.45 188.39 342.99 217.09 335.55 225.71 342.16 234.69 353.74 232.56 353.86 221.22"/><polygon class="u" points="347.95 218.98 377.71 230.2 373.93 240.23 353.74 232.56 347.95 233.62 344.17 229.02 340.75 221.69 347.95 218.98"/><polygon class="v" points="353.74 232.56 309.92 353.03 295.39 362.01 327.75 259.13 344.17 229.02 353.74 232.56"/><polygon class="w" points="335.2 225.59 290.55 346.54 295.39 362.01 335.9 251.46 344.17 229.02 342.87 222.28 335.2 225.59"/><polygon class="x" points="344.17 229.02 347.95 218.98 321.85 209.17 318.31 219.21 344.17 229.02"/><polygon class="t" points="353.39 190.98 363.42 195.35 368.86 182.72 356.69 178.58 353.39 190.98"/><polygon class="s" points="319.01 225.12 329.64 196.06 319.6 192.28 308.03 220.98 300.71 229.61 307.2 238.58 318.78 236.46 319.01 225.12"/><polygon class="u" points="312.87 222.87 342.4 233.98 338.62 244.01 318.78 236.46 310.98 239.06 309.21 232.91 307.67 227.01 312.87 222.87"/><polygon class="v" points="318.78 236.46 275.08 356.93 260.43 365.91 292.91 263.03 309.21 232.91 313.46 234.45 318.78 236.46"/><polygon class="w" points="300.35 229.49 255.59 350.43 260.43 365.91 301.06 255.35 309.21 232.91 307.67 227.01 300.35 229.49"/><polygon class="x" points="309.21 232.91 312.99 222.87 287.01 213.07 283.35 223.11 309.21 232.91"/><polygon class="t" points="318.54 194.88 328.46 199.25 334.01 186.61 321.73 182.48 318.54 194.88"/><polygon class="g" points="220.16 261.73 220.51 312.99 261.73 313.35 273.19 306.14 274.13 256.18 231.85 256.3 220.16 261.73"/><polygon class="f" points="230.55 313.11 261.73 313.35 270.94 307.44 271.77 259.61 233.5 259.73 226.42 263.51 230.55 313.11"/><polygon class="i" points="220.16 261.73 220.51 312.99 261.73 313.35 261.73 265.16 261.73 261.5 220.16 261.73"/><polygon class="g" points="261.73 313.35 270.94 307.44 271.77 259.61 261.73 265.16 261.73 313.35"/><polygon class="g" points="198.9 276.02 199.25 327.17 240.47 327.52 251.93 320.32 252.87 270.35 210.59 270.47 198.9 276.02"/><polygon class="f" points="209.29 327.28 240.47 327.52 249.68 321.73 250.51 273.78 212.24 273.9 205.39 277.32 209.29 327.28"/><polygon class="i" points="198.9 276.02 199.25 327.17 240.47 327.52 240.47 279.45 240.47 275.67 198.9 276.02"/><polygon class="g" points="240.47 327.52 249.68 321.73 250.51 273.78 240.47 279.45 240.47 327.52"/><path class="s" d="M291.78,369.14a10,10,0,1,1-5.93,12.9A10,10,0,0,1,291.78,369.14Z"/><polygon class="r" points="290.51 376.39 297.84 373.69 300 380.71 292.68 383.42 290.51 376.39"/><path class="s" d="M240.2,369.14a10,10,0,1,1-5.93,12.9A10,10,0,0,1,240.2,369.14Z"/><polygon class="r" points="238.94 376.39 246.26 373.69 248.43 380.71 241.1 383.42 238.94 376.39"/><polygon class="o" points="309.92 290.2 194.29 289.96 206.46 375.83 280.86 376.65 292.79 363.19 311.34 308.15 309.92 290.2"/><polygon class="p" points="294.57 301.18 206.93 300.94 216.02 364.96 273.07 365.55 294.57 301.18"/><polygon class="p" points="353.39 282.76 309.92 290.2 280.86 376.65 313.35 368.98 353.39 282.76"/><polygon class="n" points="341.34 291.85 315.23 296.46 291.5 366.85 308.39 362.95 341.34 291.85"/><path class="t" d="M215.07,379a10,10,0,1,1-5.94,12.9A10,10,0,0,1,215.07,379Z"/><polygon class="p" points="213.8 386.23 221.13 383.52 223.29 390.55 215.97 393.26 213.8 386.23"/><path class="t" d="M263.81,379a10,10,0,1,1-5.93,12.9A10,10,0,0,1,263.81,379Z"/><polygon class="p" points="262.55 386.23 269.87 383.52 272.04 390.55 264.71 393.26 262.55 386.23"/><polygon class="l" points="208.23 109.25 181.53 106.18 167.95 100.28 149.06 92.83 133.58 81.97 124.49 94.13 106.65 104.05 95.55 113.15 70.39 125.19 81.14 122.83 86.69 125.9 117.4 131.22 125.9 131.22 137.24 127.8 161.81 125.19 182.95 115.86 208.23 109.25"/><polygon class="y" points="182.95 115.86 181.18 184.37 148.34 187.09 143.27 194.88 141.5 220.04 120.94 219.92 107.36 213.07 99.45 203.27 98.74 193.23 110.79 158.98 105.12 145.98 117.28 140.55 128.03 156.02 135.59 151.77 117.4 127.44 123.9 122.36 182.95 115.86"/><polygon class="z" points="146.1 134.29 154.84 138.42 160.98 160.04 159.92 132.87 146.1 134.29"/><polygon class="z" points="167.6 133.23 178.58 133.7 167.36 146.46 167.6 133.23"/><polygon class="aa" points="143.62 161.93 151.18 173.86 171.62 173.27 175.87 165.59 161.34 167.25 143.62 161.93"/><polygon class="z" points="137.24 127.8 139.37 187.32 148.34 187.09 142.91 199.6 130.39 212.72 98.74 193.23 106.06 172.09 106.77 163.46 107.6 157.09 102.87 144.33 117.28 137.83 128.03 156.02 132.52 150.83 126.49 138.66 123.66 124.96 137.24 127.8"/><polygon class="aa" points="130.75 186.73 142.91 199.6 148.34 187.09 130.75 186.73"/><polygon class="aa" points="110.79 158.98 113.74 164.41 116.93 164.53 116.81 170.91 106.06 172.09 106.77 163.46 110.79 158.98"/><polygon class="aa" points="182.83 120.94 137.36 130.16 125.9 131.22 124.96 125.19 182.72 113.27 182.95 115.86 182.83 120.94"/><polygon class="aa" points="130.75 186.73 137.01 190.75 114.09 195 116.69 175.87 130.75 186.73"/><polygon class="t" points="121.42 127.32 126.49 138.66 135.59 151.77 128.03 156.02 117.28 140.55 105.12 145.98 110.79 158.98 106.06 172.09 86.69 125.9 107.01 120.83 121.42 127.32"/><polygon class="t" points="178.58 133.7 172.44 128.27 167.6 133.23 178.58 133.7"/><polygon class="t" points="159.92 132.87 151.89 128.03 146.1 134.29 159.92 132.87"/><polygon class="s" points="117.28 140.55 112.56 132.05 90.12 134.17 86.69 125.9 104.17 121.53 117.4 127.44 117.28 140.55"/><polygon class="s" points="105.12 145.98 94.02 143.5 106.06 172.09 110.79 158.98 105.12 145.98"/><polygon class="t" points="167.13 159.57 160.98 160.04 153.43 163.94 143.62 161.93 151.65 170.67 172.44 169.96 179.41 161.1 171.5 163.46 167.13 159.57"/><polygon class="t" points="163.94 177.28 155.43 190.39 172.09 189.92 163.94 177.28"/><polygon class="ab" points="167.6 133.23 167.13 159.57 160.98 160.04 159.92 132.87 167.6 133.23"/><polygon class="p" points="125.55 127.32 130.75 186.73 116.45 189.57 117.4 127.44 121.89 124.02 125.55 127.32"/><polygon class="q" points="70.39 125.19 117.4 127.44 125.55 127.32 137.24 127.8 135.95 110.31 106.65 104.05 70.39 125.19"/><polygon class="n" points="135.95 110.31 167.95 100.28 208.23 109.25 137.24 127.8 135.95 110.31"/><polygon class="q" points="167.95 100.28 133.58 81.97 135.95 110.31 167.95 100.28"/><polygon class="p" points="133.58 81.97 106.65 104.05 135.95 110.31 133.58 81.97"/><polygon class="aa" points="117.05 150.35 114.21 146.46 109.84 148.23 117.05 152.95 117.05 150.35"/><polygon class="o" points="127.21 180.35 123.42 176.93 119.41 181.65 124.02 185.08 127.21 180.35"/><polygon class="n" points="63.54 203.15 98.74 193.23 120.94 219.92 63.54 203.15"/><polygon class="p" points="66.85 259.73 63.54 203.15 83.39 232.44 141.5 220.04 150.47 213.9 163.23 216.26 161.34 238.82 150.59 256.18 142.09 282.76 137.36 287.24 84.21 274.02 66.85 259.73"/><polygon class="o" points="66.85 259.73 63.54 203.15 83.39 232.44 130.86 222.28 131.46 235.99 115.51 275.91 105.71 280.75 73.94 270.71 66.85 259.73"/><polygon class="t" points="142.09 282.76 141.5 317.13 133.11 315.12 115.04 310.86 109.72 288.54 115.51 275.91 142.09 282.76"/><polygon class="s" points="116.22 311.22 53.98 297.52 66.85 259.73 115.51 275.91 116.22 311.22"/><polygon class="n" points="141.5 220.04 131.46 235.99 120.94 219.92 141.5 220.04"/><polygon class="n" points="163.23 216.26 141.5 220.04 142.91 199.6 156.14 209.17 163.23 216.26"/><polygon class="z" points="96.97 243.9 116.81 268.46 122.83 266.69 138.78 252.52 140.32 248.74 131.46 235.99 96.97 243.9"/><polygon class="y" points="168.9 283.46 116.81 268.46 140.32 248.74 173.62 273.07 174.21 275.55 171.5 282.28 168.9 283.46"/><polygon class="q" points="89.53 260.08 63.54 203.15 120.94 219.92 131.46 235.99 89.53 260.08"/><polygon class="z" points="198.9 277.44 173.62 273.07 168.9 283.46 189.8 291.61 192.4 290.79 197.95 283.35 198.9 277.44"/><polygon class="y" points="194.76 293.38 189.8 291.61 198.9 277.44 199.02 289.96 194.76 293.38"/><polygon class="q" points="168.31 240.36 163.23 216.26 150.59 256.18 168.31 240.36"/><polygon class="aa" points="181.06 227.72 180 211.06 185.31 211.54 190.16 214.61 184.49 226.42 181.06 227.72"/><polygon class="z" points="173.62 273.07 192.4 231.85 184.49 226.42 181.06 227.72 168.31 240.36 150.59 256.18 173.62 273.07"/><polygon class="v" points="186.73 201.97 181.06 227.72 177.87 240 212.36 246.97 220.16 208.23 204.8 199.25 186.73 201.97"/><polygon class="ac" points="185.31 208.35 183.19 217.91 183.19 217.91 192.63 215.08 185.31 208.35"/><polygon class="a" points="220.16 208.23 239.17 178.11 208.35 172.68 186.73 201.97 220.16 208.23"/><path class="u" d="M207.52,182.36l21.26,4.37-.24.83-21.26-4.37Zm-20,45.59,21.26,4.37-.24.83-21.26-4.37Zm2.24-7.79,21.26,4.37-.23.82L189.57,221Zm1.3-9.69,21.26,4.37-.23.83-21.26-4.37Zm3.78-10.27,21.26,4.37-.23.82L194.65,201Zm2.84-6.85L219,197.72l-.23.82-21.26-4.37Zm5.9-5.67,21.26,4.37-.23.83-21.26-4.37Z"/><polygon class="y" points="186.73 201.97 195.82 209.41 192.63 215.08 180 211.06 186.73 201.97"/><polygon class="o" points="129.56 392.72 130.56 394.63 165.36 376.22 163.94 374.41 129.56 392.72"/><polygon class="o" points="50.55 387.4 68.62 388.11 68.62 389.98 50.55 388.69 50.55 387.4"/><circle class="s" cx="152.95" cy="140.14" r="2.65"/><circle class="s" cx="174.33" cy="139.72" r="2.65"/><rect class="o" x="424.13" y="175.98" width="36.61" height="57.99"/><polygon class="p" points="442.44 194.76 446.57 202.44 450.71 210.12 442.44 210.12 434.17 210.12 438.31 202.44 442.44 194.76"/><polygon class="q" points="448.58 210.12 442.44 210.12 434.17 210.12 438.31 202.44 441.38 196.77 445.15 203.74 448.58 210.12"/><polygon class="ad" points="467 178.82 451.42 186.61 433.11 200.55 450.59 205.99 468.78 208.7 469.25 195.82 467 178.82"/><polygon class="ad" points="437.24 175.4 421.06 197.48 427.67 200.43 433.11 200.55 438.07 186.73 437.24 175.4"/><polygon class="f" points="421.06 197.48 411.73 212.24 427.44 262.56 449.17 267.17 476.22 268.58 470.55 241.77 468.78 208.7 432.99 202.79 421.06 197.48"/><polygon class="g" points="476.22 268.58 470.55 241.77 427.44 262.56 476.22 268.58"/><polygon class="h" points="411.73 212.24 469.72 227.12 470.55 215.91 468.78 208.7 433.11 200.55 421.06 197.48 411.73 212.24"/><polygon class="h" points="467 178.82 484.84 193.35 475.04 195.94 467.95 194.53 467 178.82"/><polygon class="y" points="432.52 102.64 430.27 108.54 430.04 114.45 421.3 155.43 439.6 160.98 437.24 186.97 433.11 200.55 452.6 186.02 467 178.82 470.08 169.96 475.75 162.76 482.13 150.94 483.66 153.19 485.9 153.54 491.45 146.81 494.53 140.55 489.8 135.24 484.61 133.46 482.01 134.64 481.18 139.96 480.83 125.9 476.69 112.56 467.48 103.23 454.84 97.44 441.85 98.15 432.52 102.64"/><polygon class="z" points="476.69 112.56 468.31 120 457.91 166.3 436.3 180.71 433.11 200.55 467 178.82 482.13 150.94 480.94 143.98 481.18 139.96 480.94 132.99 479.41 129.33 480.24 123.9 476.69 112.56"/><polygon class="z" points="447.05 135.47 458.86 122.72 468.31 120 458.26 115.86 454.13 115.16 447.05 135.47"/><polygon class="z" points="448.23 113.5 444.45 112.08 434.41 111.38 440.78 116.93 443.86 125.67 448.23 113.5"/><polygon class="aa" points="441.02 133.7 443.38 137.72 447.05 135.47 441.02 133.7"/><polygon class="t" points="444.45 112.08 439.49 109.02 434.41 111.38 444.45 112.08"/><polygon class="t" points="458.26 115.86 463.82 115.39 468.31 120 458.26 115.86"/><polygon class="ab" points="454.13 115.16 447.05 135.47 441.02 133.7 448.23 113.5 454.13 115.16"/><polygon class="g" points="458.74 146.93 442.56 140.2 431.57 141.02 442.68 145.75 458.74 146.93"/><polygon class="h" points="458.74 146.93 439.49 153.54 431.57 141.02 442.68 145.75 458.74 146.93"/><polygon class="ae" points="455.31 146.69 444.33 149.88 437.95 148.58 434.05 142.09 442.68 145.75 455.31 146.69"/><polygon class="aa" points="490.04 141.85 486.14 139.13 482.71 142.44 490.04 141.85"/><polygon class="af" points="484.61 146.34 482.13 150.94 480.47 154.13 476.69 151.53 480.94 143.98 484.61 146.34"/><polygon class="s" points="475.75 162.76 483.54 158.86 489.69 157.8 494.06 153.54 503.27 148.94 498.9 142.44 494.53 140.55 485.9 153.54 482.13 150.94 475.75 162.76"/><polygon class="s" points="484.61 133.46 484.13 130.63 479.41 129.33 481.18 139.96 484.61 133.46"/><polygon class="t" points="503.27 148.94 503.39 130.75 491.1 119.76 476.69 112.56 479.41 129.33 484.61 133.46 494.53 140.55 503.27 148.94"/><polygon class="s" points="428.27 103.7 430.04 114.45 432.52 102.64 430.27 101.81 428.27 103.7"/><polygon class="t" points="494.06 153.54 499.84 172.09 484.84 185.67 483.54 158.86 494.06 153.54"/><polygon class="t" points="467.72 77.24 426.85 95.08 428.27 103.7 430.27 103.23 432.52 102.64 454.84 97.44 462.04 90.71 467.72 77.24"/><polygon class="ag" points="503.39 130.75 503.39 108.54 467.72 77.24 454.84 97.44 476.69 112.56 503.39 130.75"/><polygon class="aa" points="439.6 160.98 463.7 167.72 436.3 180.71 439.6 160.98"/><polygon class="aa" points="476.69 151.53 475.75 162.76 480.47 154.13 476.69 151.53"/><polygon class="g" points="493.93 224.53 484.84 193.35 467.95 194.53 469.72 227.12 485.2 241.77 491.45 237.52 493.93 224.53"/><polygon class="i" points="485.2 241.77 514.49 266.69 521.1 259.73 493.93 224.53 485.2 241.77"/><polygon class="y" points="514.49 266.69 522.52 275.32 529.37 282.76 533.98 277.91 536.34 270.12 521.1 259.73 514.49 266.69"/><polygon class="z" points="529.37 282.76 540.23 287.72 544.49 280.99 536.34 270.12 529.37 282.76"/><polygon class="z" points="514.49 266.69 517.68 279.33 523.46 283.46 525.94 281.58 522.52 275.32 514.49 266.69"/><polygon class="f" points="408.78 158.39 437.24 175.28 421.06 197.48 395.55 175.99 408.78 158.39"/><polygon class="i" points="395.55 175.99 380.67 128.03 388.94 121.65 408.78 158.39 395.55 175.99"/><polygon class="y" points="388.94 121.65 385.75 105.47 378.54 104.77 373.23 114.45 380.67 128.03 388.94 121.65"/><polygon class="t" points="472.91 372.28 473.15 385.75 469.25 388.11 465.12 379.25 465.23 370.39 469.37 367.91 472.91 372.28"/><polygon class="ah" points="444.68 398.5 458.39 398.38 468.78 371.34 463.7 368.62 456.26 368.38 444.88 395.39 444.68 398.5"/><polygon class="t" points="501.49 364.37 508.11 378.43 503.15 382.68 501.14 379.02 499.49 370.87 501.49 364.37"/><polygon class="ah" points="486.38 396.73 500.67 395.91 501.49 364.37 495 363.9 488.74 365.79 485.58 394.03 486.38 396.73"/><polygon class="i" points="464.41 266.81 476.22 268.58 512.83 361.18 472.91 372.28 465.71 345.59 458.15 277.2 464.41 266.81"/><polygon class="f" points="427.44 262.56 464.41 266.81 472.91 372.28 468.19 368.62 451.89 336.14 427.44 262.56"/><polygon class="g" points="439.96 364.49 427.44 262.56 472.91 372.28 439.96 364.49"/><rect class="i" x="335.43" y="48.49" width="49.96" height="75" transform="translate(3.84 186.72) rotate(-29.19)"/><polygon class="j" points="356.81 130.99 320.31 65.43 351.49 47.95 368.74 49.84 356.81 130.99"/><rect class="g" x="319.53" y="52.63" width="50" height="10" transform="translate(15.65 175.37) rotate(-29.19)"/><rect class="h" x="361.02" y="73.8" width="16.89" height="30" transform="translate(3.62 191.49) rotate(-29.19)"/><polygon class="z" points="388.94 121.65 390.82 109.61 382.91 107.48 380.31 109.37 384.8 113.15 382.91 126.14 388.94 121.65"/><circle class="s" cx="438.62" cy="118.04" r="2.65"/><circle class="s" cx="460.39" cy="124.49" r="2.65"/></svg>