<svg xmlns="http://www.w3.org/2000/svg" viewBox="0 0 600 450"><defs><style>.a,.aq,.v,.w{fill:#2b2b2b;}.a,.ab,.ac,.ad,.ae,.af,.ag,.aw,.ax,.b,.bn,.bo,.bp,.bq,.br,.bs,.bt,.c,.d,.e,.f,.g,.h,.i,.j,.k,.l,.m,.n,.o,.v{fill-rule:evenodd;}.a{opacity:0.11;}.b{fill:#707274;}.ay,.c{fill:#4f5253;}.d{fill:#8f8f8f;}.e{fill:#beda8d;}.f{fill:#738c57;}.g{fill:#98c16d;}.ap,.h{fill:#474747;}.i{fill:#c4c3c3;}.j,.z{fill:#5a753d;}.k{fill:#cececd;}.l{fill:#709c53;}.m{fill:#9fce7e;}.ah,.n{fill:#446125;}.bn,.o,.v,.w{opacity:0.1;}.af,.p{fill:#c4c4c4;}.ag,.q{fill:#ececeb;}.r{fill:#d1a1b8;}.s{fill:#96637c;}.t{fill:#9da1a2;}.at,.u{fill:none;}.u{stroke:#9da1a2;stroke-miterlimit:10;}.x{fill:#99c26d;}.y{fill:#709d53;}.aa,.bq{fill:#bfdb8e;}.ab{fill:#737474;}.ac{fill:#9d7700;}.ad{fill:#bb8e2d;}.ae{fill:#e1a842;}.ai{fill:#dfbda5;}.aj{fill:#8b6651;}.ak{fill:#c3987b;}.al{fill:#54b08b;}.am{fill:#35785d;}.an{fill:#738d57;}.ao{fill:#e8cab6;}.ar{fill:#72c9a6;}.as{fill:#3f8f6f;}.au{fill:#734d60;}.av{fill:#543042;}.aw{fill:#858686;}.ax{fill:#9ca0a1;}.az{fill:#6f7173;}.ba{fill:#7f5d4e;}.bb{fill:#a17e6e;}.bc{fill:#3a9fb9;}.bd{fill:#27788b;}.be{fill:#593e35;}.bf{fill:#1c7678;}.bg{fill:#50a8a9;}.bh{fill:#369395;}.bi{fill:#318ea5;}.bj{fill:#cdcdcc;}.bk{fill:#ebebea;}.bl{fill:#73cee4;}.bm{fill:#a98c80;}.bn{fill:#2a2b2a;}.bo{fill:#738d58;}.bp{fill:#6f9c52;}.br{fill:#36795d;}.bs{fill:#e5e87b;}.bt{fill:#b7c644;}</style></defs><title>theory_trait_assertive</title><polygon class="a" points="0 347.85 58 393.32 189.72 405.14 528.39 366.4 600 306.8 357.54 279.32 145.94 297.11 0 347.85"/><path class="b" d="M422.38,93.46l-12.69,5.71-8,5.44-.13,33.19,49.09,8.09,4.13,5.2,29.39-12.33s.2-40.06.17-39.1C484.28,100.38,442.41,95.73,422.38,93.46Z"/><polygon class="b" points="412.92 80.55 353.12 95.31 349.28 235.36 357.68 225.59 409 91.99 412.92 80.55"/><path class="b" d="M417.54,210.32l.79-28.58c-9.24-5.33-29.14-16.88-30.34-15.51s-30.5,5.88-30.5,5.88l-4,50.79,4.18,4.55Z"/><polygon class="c" points="385.01 161.35 366.69 151.52 367.33 120.34 380.06 123.79 402.34 111.56 399.82 127.71 387.2 155.05 385.01 161.35"/><polygon class="d" points="345.45 160.83 517.47 195.51 567.11 175.35 419.18 137.94 349.82 155.88 345.45 160.83"/><polygon class="d" points="348.13 231.83 520.14 266.51 569.79 246.35 421.85 208.93 352.49 226.88 348.13 231.83"/><path class="b" d="M539.24,168.31l-65.55-18-23.08-4.45,8,25.92,8.3-2.61,9.16,6.25,6.15.32,9.26-4.79,8.21,8.42s23.85,6.53,24,4.72,13.38-5.25,13.38-5.25S538.11,174,539.24,168.31Z"/><path class="b" d="M406.75,139.07l-42.31,13,19.09,10.4,14.63,2.58,20.3-23.67S410,140.05,406.75,139.07Z"/><path class="b" d="M424.63,140.3l-42.31,13,18.9,8.34L524.93,186.8l-88.59-44.18S427.87,141.28,424.63,140.3Z"/><polygon class="e" points="379.53 128.89 377.3 112.4 403.73 106.08 418.46 141.38 394.22 154.86 379.53 128.89"/><polygon class="f" points="385.01 161.35 394.22 154.86 377.3 112.4 367.33 120.34 385.01 161.35"/><polygon class="g" points="356.17 157.15 510.31 187.88 514.88 186.06 517.47 195.51 423.31 179.44 345.45 160.83 356.17 157.15"/><polygon class="f" points="511.18 112.26 510.31 187.88 520.69 195.77 528.77 101.26 511.18 112.26"/><polygon class="h" points="357.69 227.45 508.83 257.74 515.07 269.62 409.98 247.9 349.28 235.36 357.69 227.45"/><polygon class="f" points="510.04 200.28 508.83 257.74 515.05 270.01 520.69 195.77 508.21 195.03 510.04 200.28"/><polygon class="f" points="357.49 172.11 510.04 200.28 520.69 195.77 345.45 160.83 350.88 173.49 357.49 172.11"/><polygon class="f" points="357.49 172.11 351.63 166.63 345.45 160.83 349.28 235.36 357.69 227.45 357.49 172.11"/><polygon class="i" points="385.01 161.35 391.39 147.84 414.83 135.24 418.39 145.13 385.01 161.35"/><polygon class="e" points="385.72 214.97 383.44 199.12 400.97 192.43 413.74 207 404.26 220.38 385.72 214.97"/><polygon class="e" points="426.48 200.54 435.99 191.31 444.72 193.75 447.67 204.41 436.26 219.93 426.48 200.54"/><polygon class="j" points="421.56 207.03 419.89 219.05 435.47 211.26 435 199.31 421.56 207.03"/><polygon class="f" points="421.56 207.03 400.7 201.48 397.46 215.82 419.89 219.05 421.56 207.03"/><polygon class="g" points="400.7 201.48 408.09 192.56 419.72 201.05 424.43 190.66 435 199.31 421.56 207.03 400.7 201.48"/><polygon class="f" points="408.09 192.56 417.88 194.38 424.43 190.66 419.72 201.05 408.09 192.56"/><polygon class="f" points="417.52 231.42 419.89 219.05 447.67 204.41 444.27 221.09 417.52 231.42"/><polygon class="g" points="419.89 219.05 382.48 211.04 382.61 224.66 417.52 231.42 419.89 219.05"/><polygon class="g" points="416.68 162.38 405.08 160.07 405.46 111.6 416.8 112.84 416.68 162.38"/><polygon class="e" points="416.73 138.81 405.26 137.02 405.38 122.79 416.77 124.27 416.73 138.81"/><polygon class="k" points="405.46 111.6 416.8 112.84 442.42 94.45 429.84 93.54 405.46 111.6"/><polygon class="e" points="428.76 164.79 416.65 162.38 416.77 112.84 428.59 114.14 428.76 164.79"/><polygon class="g" points="428.68 140.68 416.71 138.81 416.74 124.27 428.63 125.81 428.68 140.68"/><polygon class="i" points="416.77 112.84 428.59 114.14 455.22 95.39 442.08 94.43 416.77 112.84"/><polygon class="g" points="441.39 167.3 428.74 164.78 428.57 114.13 440.9 115.48 441.39 167.3"/><polygon class="e" points="441.16 142.63 428.66 140.68 428.61 125.81 441.01 127.42 441.16 142.63"/><polygon class="k" points="428.57 114.13 440.9 115.48 468.6 96.36 454.87 95.36 428.57 114.13"/><polygon class="l" points="454.6 169.93 441.37 167.3 440.88 115.48 453.77 116.89 454.6 169.93"/><polygon class="m" points="454.2 144.67 441.14 142.63 441 127.42 453.96 129.11 454.2 144.67"/><polygon class="i" points="440.88 115.48 453.77 116.89 482.61 97.37 468.24 96.33 440.88 115.48"/><polygon class="e" points="468.42 172.69 454.57 169.93 453.75 116.88 467.22 118.36 468.42 172.69"/><polygon class="e" points="467.85 146.81 454.18 144.67 453.94 129.1 467.5 130.87 467.85 146.81"/><polygon class="k" points="453.75 116.88 467.22 118.36 497.28 98.43 482.23 97.34 453.75 116.88"/><polygon class="e" points="482.92 175.57 468.4 172.68 467.2 118.35 481.31 119.89 482.92 175.57"/><polygon class="e" points="482.15 149.04 467.83 146.8 467.48 130.86 481.68 132.71 482.15 149.04"/><polygon class="i" points="467.2 118.35 481.31 119.89 512.67 99.55 496.88 98.41 467.2 118.35"/><polygon class="g" points="498.12 178.6 482.89 175.57 481.29 119.89 496.07 121.5 498.12 178.6"/><polygon class="e" points="497.14 151.39 482.13 149.04 481.66 132.71 496.54 134.64 497.14 151.39"/><polygon class="k" points="481.29 119.89 496.07 121.5 528.83 100.72 512.25 99.52 481.29 119.89"/><polygon class="n" points="514.1 181.78 498.1 178.6 496.05 121.5 511.55 123.2 514.1 181.78"/><polygon class="j" points="512.89 153.85 497.12 151.38 496.52 134.64 512.14 136.67 512.89 153.85"/><polygon class="i" points="496.05 121.5 511.55 123.2 545.81 101.95 528.39 100.69 496.05 121.5"/><path class="b" d="M437.37,223.75l-19.85,7.67-34.91-6.76,132.06,35.13-73.28-34.3S441.33,225,437.37,223.75Z"/><polygon class="h" points="445.33 241.11 428.3 237.09 430.37 195.18 447.02 198.14 445.33 241.11"/><polygon class="k" points="430.37 195.18 447.02 198.14 484.6 186.74 466.87 183.59 430.37 195.18"/><polygon class="c" points="463.16 245.32 445.31 241.1 446.99 198.14 464.41 201.24 463.16 245.32"/><polygon class="i" points="446.99 198.14 464.41 201.24 500.57 192.7 483 186.49 446.99 198.14"/><polygon class="h" points="481.86 249.75 463.13 245.32 464.39 201.23 482.65 204.48 481.86 249.75"/><polygon class="k" points="464.39 201.23 482.65 204.48 524.22 188.57 506.81 186.41 464.39 201.23"/><polygon class="c" points="501.51 254.39 481.83 249.74 482.62 204.48 501.77 205.88 501.51 254.39"/><polygon class="i" points="482.62 204.48 501.77 207.88 545.13 190.43 523.68 188.52 482.62 204.48"/><polygon class="o" points="408.54 109.32 421.31 99.11 514.86 104.81 515.59 120.21 408.54 109.32"/><polygon class="o" points="437.37 192.56 458.7 186.24 509.41 192.76 509.77 206.89 437.37 192.56"/><path class="l" d="M349.32,88.35l-13,203,179.15,49.06,2.51-242ZM508.83,257.74,358,227.4l-.52-55.29L510,200.28Zm1.48-69.86L356.17,157.15l-.35-55.91,155.36,11Z"/><polygon class="g" points="515.45 340.38 517.96 98.35 586.45 86.21 600 306.8 515.45 340.38"/><polygon class="m" points="517.96 98.35 349.32 88.35 417.93 68.05 586.45 86.21 517.96 98.35"/><path class="j" d="M506,273.78,351,236.51l-4.37,45L507,325.29ZM418.51,284c-3.17.46-5.76-2.5-5.8-6.61s2.49-7.82,5.66-8.27,5.75,2.5,5.79,6.61S421.67,283.52,418.51,284Z"/><polygon class="p" points="239.76 60.05 240.21 149.52 325.35 158.89 313.39 58.08 239.76 60.05"/><polygon class="q" points="239.76 60.05 234.62 142.47 318.77 151.06 313.39 58.08 239.76 60.05"/><polygon class="r" points="239.76 60.05 239.71 51.09 314.99 50.43 313.39 58.08 239.76 60.05"/><polygon class="s" points="278.03 43.98 270.63 50.82 278.05 56.22 282.74 50.72 278.03 43.98"/><polygon class="t" points="257.98 84.74 268.78 75.18 271.04 100.96 265.63 100.89 266.22 82.43 259.25 88.14 257.98 84.74"/><polygon class="t" points="287.76 76.56 274.47 77.13 276.26 90.34 284.35 89.63 283.22 96.73 274.51 97.45 274.52 101.83 287.79 98.82 288.93 86.07 279.8 86.65 279.8 81.78 288.92 82.89 287.76 76.56"/><line class="u" x1="260.66" y1="66.7" x2="289.04" y2="66.07"/><polygon class="p" points="247.66 107.54 247 112.73 252.87 113.51 252.85 107.67 247.66 107.54"/><polygon class="p" points="254.48 107.72 253.92 113.55 259.45 113.75 260.02 107.86 254.48 107.72"/><polygon class="p" points="261.58 108.47 261.6 113.86 267.76 114.09 267.75 108.64 261.58 108.47"/><polygon class="p" points="269.71 108.69 269.11 114.14 276.07 114.39 276.05 108.86 269.71 108.69"/><polygon class="p" points="277.6 114.09 277.59 108.56 284.33 108.74 284.34 114.33 277.6 114.09"/><polygon class="p" points="286.67 108.8 293.64 108.98 292.85 115.67 286.68 114.42 286.67 108.8"/><polygon class="p" points="295.64 109.04 302.41 108.61 302.42 115.54 295.65 115.29 295.64 109.04"/><polygon class="p" points="247.7 115.58 247.04 120.76 252.9 121.62 252.88 115.79 247.7 115.58"/><polygon class="p" points="254.51 115.85 253.95 121.67 259.48 121.95 260.05 116.08 254.51 115.85"/><polygon class="p" points="261.61 116.71 261.62 122.09 267.79 122.4 267.77 116.96 261.61 116.71"/><polygon class="p" points="269.73 117.04 269.13 122.47 276.08 122.82 276.07 117.3 269.73 117.04"/><polygon class="p" points="277.62 122.55 277.6 117.02 284.35 117.29 284.36 122.88 277.62 122.55"/><polygon class="p" points="286.68 117.38 293.65 117.67 292.86 124.33 286.69 123 286.68 117.38"/><polygon class="p" points="295.65 117.75 302.42 117.41 302.42 124.34 295.65 124 295.65 117.75"/><polygon class="p" points="247.74 123.89 247.07 129.06 252.94 129.99 252.91 124.17 247.74 123.89"/><polygon class="p" points="254.54 124.26 253.98 130.06 259.51 130.42 260.08 124.57 254.54 124.26"/><polygon class="p" points="261.63 125.22 261.65 130.59 267.81 130.99 267.8 125.56 261.63 125.22"/><polygon class="p" points="269.76 125.67 269.16 131.08 276.1 131.53 276.09 126.02 269.76 125.67"/><polygon class="p" points="277.63 131.28 277.62 125.76 284.36 126.13 284.37 131.71 277.63 131.28"/><polygon class="p" points="286.69 126.25 293.65 126.64 292.86 133.28 286.7 131.86 286.69 126.25"/><polygon class="p" points="295.65 126.75 302.42 126.51 302.42 133.42 295.66 132.99 295.65 126.75"/><polygon class="p" points="246.97 131.34 246.31 136.48 252.16 137.49 252.13 131.69 246.97 131.34"/><polygon class="p" points="253.76 131.79 253.2 137.57 258.71 138 259.28 132.17 253.76 131.79"/><polygon class="p" points="260.82 132.84 260.84 138.2 266.98 138.68 266.97 133.26 260.82 132.84"/><polygon class="p" points="268.92 133.39 268.32 138.78 275.24 139.32 275.23 133.82 268.92 133.39"/><polygon class="p" points="276.77 139.09 276.76 133.58 283.47 134.04 283.48 139.6 276.77 139.09"/><polygon class="p" points="285.79 134.19 292.73 134.67 291.94 141.28 285.8 139.78 285.79 134.19"/><polygon class="p" points="294.73 134.8 301.46 134.66 301.46 141.55 294.73 141.02 294.73 134.8"/><polygon class="v" points="248.59 298.34 243.17 303.22 173.05 308.69 129.35 303.2 129.47 300.01 70.91 286.63 114.05 283.82 248.59 298.34"/><polygon class="w" points="34.56 256.23 72.5 265.33 85.88 256.47 58.94 254.38 34.56 256.23"/><polygon class="x" points="56.92 259.61 50.59 256.7 47.76 219.88 78.73 219.88 74.15 239.19 75.9 256.7 69.57 259.61 56.92 259.61"/><polygon class="y" points="55.5 223.43 47.76 219.88 55.5 216.32 70.99 216.32 78.73 219.88 70.99 223.43 55.5 223.43"/><polygon class="z" points="55.5 223.43 50.39 221.09 55.5 218.51 70.99 218.51 76.34 220.97 70.99 223.43 55.5 223.43"/><polygon class="aa" points="47.76 219.88 50.59 256.7 56.92 259.61 55.5 223.43 47.76 219.88"/><polygon class="y" points="70.99 223.43 69.57 259.61 75.9 256.7 78.73 219.88 70.99 223.43"/><polygon class="ab" points="106.56 192.88 90.19 184.12 79 193.7 89.91 268.69 127.84 269.24 106.56 192.88"/><polygon class="d" points="132.76 175.36 121.84 178.09 90.19 184.12 107.65 276.9 170.96 276.08 132.76 175.36"/><polygon class="ac" points="53.86 366.46 80.79 365.84 87.54 330.97 28.07 329.24 53.86 366.46"/><polygon class="ad" points="354.46 349.43 342.91 366.4 313.58 362.15 301.28 340.33 351.56 339.35 354.46 349.43"/><polygon class="ae" points="99.07 332.15 164.97 382.6 206.93 378.87 207.74 359.17 336.33 347.49 342.91 366.4 373.36 364.1 374.34 269.39 129.69 272.47 99.07 332.15"/><polygon class="ad" points="20.79 269.7 22.84 361.96 53.86 366.46 58.15 347.92 126.18 359.3 130.54 377.6 164.97 382.6 170.84 295.12 20.79 269.7"/><polygon class="k" points="145.68 258.34 170.16 301.96 389.53 286.51 388.72 259.05 145.68 258.34"/><polygon class="af" points="152.14 263.06 8.71 257.74 8.9 286.26 170.16 301.96 173 276.64 152.14 263.06"/><polygon class="ag" points="8.71 257.74 250.81 243.68 388.72 259.05 173 276.64 8.71 257.74"/><polygon class="ac" points="43.71 305.06 43.99 327.14 134.65 341.9 135.33 316.06 43.71 305.06"/><polygon class="ad" points="208.56 317.12 208.44 340.21 337.32 330.44 336.76 306.37 208.56 317.12"/><polygon class="v" points="254.65 240.94 306.79 262.76 308.05 265.63 173 276.64 127.84 269.24 95.84 251.99 254.65 240.94"/><polygon class="ah" points="191.61 202.09 194.65 251.22 201.9 249.13 197.15 207.74 191.61 202.09"/><polyline class="x" points="151.08 257.95 118.36 240.41 130.02 196.67 157.88 204.27 183.23 197.07 191.61 202.09 195.37 262.87"/><polygon class="ai" points="137.8 188.47 157.88 204.27 173.74 189.51 173.99 185.62 198.55 184.04 202.1 115.72 197.79 98.77 181.75 111.39 149.91 109.6 140.53 125.19 137.6 142.31 125.21 147.26 137.8 188.47"/><polygon class="aj" points="173.82 185.25 150.91 185.88 157.88 204.27 173.58 189.14 173.82 185.25"/><polygon class="ak" points="155.42 185.76 152.57 121.27 149.74 109.23 140.36 124.83 137.44 141.94 121.13 148.03 137.64 188.1 157.88 204.27 150.91 185.88 155.42 185.76"/><polygon class="aj" points="127.32 163.14 135.75 160.2 130.91 171.78 127.32 163.14"/><polyline class="al" points="176.98 59.63 159.07 61.08 167.53 68.92 160.84 76.95 135.81 85.97 111.84 128.7 121.13 148.03 137.44 141.94 136.51 151.73 146.33 148.07 140.36 124.83 149.91 109.6 181.75 111.39 201.9 95.36 194.41 76.9 176.98 59.63"/><polyline class="am" points="176.98 59.63 159.07 61.08 167.53 68.92 176.98 59.63"/><polygon class="aj" points="125.43 149.66 130.67 147.28 134.14 154.98 125.43 149.66"/><rect class="an" x="173.9" y="127.29" width="11.27" height="3.65" transform="translate(-3.71 5.33) rotate(-1.68)"/><polygon class="ao" points="184.34 154.13 177.04 154.26 176.32 131.01 183.62 130.88 184.34 154.13"/><polygon class="aj" points="184.34 154.13 180.32 157.51 177.04 154.26 184.34 154.13"/><polygon class="aj" points="168.29 162.08 166.8 159.08 187.85 165.41 186.57 167.11 168.29 162.08"/><polygon class="aa" points="183.38 191.5 157.88 204.27 158.38 215.56 158.38 215.56 171.24 246.03 193.99 240.63 193.99 240.62 191.61 202.09 183.38 191.5"/><polygon class="z" points="157.4 126.21 159.44 127.3 169.65 122 174.24 124.26 175.1 123.04 171.5 116.81 157.4 126.21"/><polygon class="z" points="186.05 124.37 191.25 123.99 194.8 119.25 201 116.97 193.97 116.49 186.05 124.37"/><polygon class="ah" points="137.64 188.1 130.02 196.67 148.43 216.84 157.88 204.27 137.64 188.1"/><polygon class="ah" points="157.88 204.27 167.03 214.57 183.38 191.5 173.02 185.28 157.88 204.27"/><polygon class="ap" points="151.78 212.39 158.38 215.56 163.56 210.67 157.88 204.27 151.78 212.39"/><polyline class="z" points="160.44 263.1 160.12 258.62 148.95 246.54 118.36 240.41 114.14 250.69"/><polygon class="ap" points="148.95 246.54 148.95 246.54 160.12 258.62 171.24 246.03 158.38 215.56 148.95 246.54"/><polyline class="y" points="194.9 255.24 193.99 240.63 193.99 240.63 171.24 246.03 160.12 258.62 157.38 256.46"/><polygon class="aq" points="171.24 246.03 159.87 248.73 148.95 246.54 160.12 258.62 171.24 246.03"/><polyline class="ar" points="176.98 59.63 181.75 111.39 201.9 95.36 194.41 76.9 176.98 59.63"/><polygon class="as" points="135.81 85.97 111.84 128.7 121.13 148.03 133.67 143.35 136.51 151.73 146.33 148.07 140.36 124.83 149.74 109.87 149.74 109.23 135.81 85.97"/><polygon class="ah" points="152.84 127.3 119.17 143.95 121.13 148.03 153.22 135.99 152.84 127.3"/><polygon class="as" points="135.81 85.97 149.74 109.87 149.74 109.87 149.91 109.6 181.75 111.39 160.84 76.95 135.81 85.97"/><polygon class="am" points="111.84 128.7 140.36 124.83 149.74 109.87 135.81 85.97 111.84 128.7"/><path class="an" d="M152.84,127.3l.79,18.08,23.11-.93-.47-17.07Zm20,13.62-15.69.66-.47-10.6,16.07.11Z"/><polygon class="ak" points="157.11 141.58 159.91 133.77 172.72 133.16 172.71 131.09 156.64 130.98 157.11 141.58"/><polygon class="ak" points="194.78 130.85 189.49 133.23 187.77 141.4 187.31 130.8 194.78 130.85"/><path class="an" d="M183.5,127.12l.56,18,23.07-.91L207,127.3Zm20,13.62-15.69.66-.46-10.6,16.06.12Z"/><polygon class="ak" points="181.75 111.39 199.01 103.56 197.77 98.73 181.75 111.39"/><polygon class="ak" points="186.05 124.37 183.83 127.16 197.86 127.23 201 116.97 194.8 119.25 191.25 123.99 186.05 124.37"/><polygon class="ak" points="174.24 124.26 175.35 127.41 159.34 127.35 169.65 122 174.24 124.26"/><polygon class="ak" points="157.93 145.2 176.84 147.84 176.74 144.45 157.93 145.2"/><polygon class="ak" points="184.15 147.93 197.72 144.61 184.06 145.15 184.15 147.93"/><polyline class="ai" points="216.08 244.34 194.64 250.69 191.61 202.09 205.35 196.55 216.08 244.34"/><polyline class="ai" points="95.84 251.99 118.36 240.41 144.27 251.81 139.5 263.82"/><polygon class="ak" points="183.38 191.5 205.35 177.55 205.35 196.55 191.61 202.09 183.38 191.5"/><line class="at" x1="224.23" y1="249.81" x2="177.98" y2="263.1"/><line class="p" x1="214.17" y1="241.7" x2="199.8" y2="274.64"/><polyline class="ah" points="95.84 251.99 118.36 240.41 129.78 197.56 90.69 243.7"/><polygon class="ao" points="205.35 177.55 199.5 163.79 187.31 174.11 183.38 191.5 205.35 177.55"/><ellipse cx="168.94" cy="137.58" rx="2.69" ry="2.7"/><ellipse cx="196.72" cy="137.67" rx="2.69" ry="2.7"/><polygon class="au" points="306.79 262.76 278.61 240.94 236.87 245.66 262.05 266.89 306.79 262.76"/><polygon class="av" points="306.79 262.76 306.69 256.62 278.56 237.82 278.61 240.94 306.79 262.76"/><polygon class="q" points="304.63 261.09 263.65 263.46 263.56 257.32 303.78 256.66 304.63 261.09"/><polygon class="p" points="263.56 257.32 240.62 239.96 241.76 245.11 263.65 263.46 263.56 257.32"/><polygon class="s" points="306.69 256.62 263.56 257.32 236.78 240.03 278.52 235.55 306.69 256.62"/><polygon class="d" points="171.1 265.33 145.94 259.9 193.44 253.63 191.27 264.58 171.1 265.33"/><polygon class="ab" points="204.94 254.38 177.44 262.74 145.94 259.9 144.94 268.17 184.52 272.43 204.94 254.38"/><polygon class="aw" points="229.94 247.69 245.6 257.05 244.69 266 184.52 272.43 187.27 263.74 229.94 247.69"/><polygon class="aw" points="224.94 242.34 207.27 216.93 191.6 216.93 177.44 262.74 187.27 263.74 224.94 242.34"/><polygon class="ax" points="228.6 235.66 257.27 217.94 245.94 212.25 191.6 216.93 198.94 222.28 228.6 235.66"/><polygon class="d" points="198.94 222.28 187.27 263.74 245.6 257.05 257.27 217.94 198.94 222.28"/><polygon class="ax" points="223.56 235.13 228.48 238.31 232.48 234.72 234.73 237.14 230.98 240.99 234.48 244.41 232.15 246.59 228.56 243.49 225.48 246.67 222.31 245.08 225.98 241.24 220.98 237.64 223.56 235.13"/><polygon class="ax" points="216.98 236.89 222.52 241.32 216.27 246.38 215.1 243.78 218.23 241.4 215.23 239.06 216.98 236.89"/><polygon class="ax" points="239.1 237.47 233.44 240.28 238.27 245.54 239.69 242.95 237.4 240.78 240.48 239.77 239.1 237.47"/><polyline class="aj" points="139.26 263.82 143.71 252.34 161.74 244.93 183.32 251.24 163.32 258.99"/><polyline class="ak" points="179.31 262.84 163.32 258.99 161.74 244.93 183.32 251.24 179.31 262.84"/><polygon class="ap" points="488.6 104.61 445.59 100.14 466.98 166.97 488.6 104.61"/><polygon class="ay" points="511.45 91.73 481.51 72.18 445.59 100.14 459.1 112.53 525.03 112.24 511.45 91.73"/><polygon class="az" points="510.11 111.9 506.09 101.31 481.51 72.18 541.39 83.83 532.74 123.5 510.11 111.9"/><polygon class="ay" points="535.08 122.49 521.96 107.81 541.39 83.83 557.04 116.56 535.08 122.49"/><polygon class="ap" points="538.6 157.46 546.72 143.96 557.04 116.56 519.65 111.28 463.06 150.84 538.6 157.46"/><polygon class="w" points="408.35 388.61 502.55 370.67 578.77 392.42 497.58 415.19 408.35 388.61"/><polygon class="ba" points="579.72 296.41 570.67 288 564.75 298.99 567.65 301.68 574.69 297.98 573.13 304.48 573.01 317.92 588.32 315.24 592.79 300 579.72 296.41"/><polygon class="bb" points="579.16 272.32 570.67 288 573.13 304.48 592.79 300 586.09 284.19 579.16 272.32"/><polygon class="bc" points="570 243.85 581.39 247.89 586.09 284.19 570.67 288 554.58 254.39 570 243.85"/><polygon class="bd" points="534.69 225.48 560.19 203.33 581.39 247.89 554.58 255.96 534.69 225.48"/><polygon class="ba" points="453.74 291.44 452.65 303.95 439.55 315.61 427.81 304.71 438.2 289.52 453.74 291.44"/><polygon class="be" points="438.47 291.19 452.65 303.95 463.19 289.71 454.91 278.39 438.47 291.19"/><polygon class="bb" points="457.25 279.35 448.6 281.42 440.22 283.19 431.21 290.84 433.87 295.81 442.59 289.56 450.54 289.67 457.25 279.35"/><polygon class="bd" points="491.26 213.99 478.69 206.13 461.52 251.99 491.34 274.78 491.26 213.99"/><polygon class="bc" points="461.52 251.99 448.6 281.42 463.19 289.71 494.36 251.26 461.52 251.99"/><polygon class="bf" points="519.18 387.23 509.73 391.68 509.73 399.23 548.57 398.79 548.28 392.42 519.18 387.23"/><polygon class="bf" points="465.39 375.6 441.74 381.62 441.94 387.64 493.19 388.56 493.19 382.24 465.39 375.6"/><polygon class="bg" points="469.7 356.91 465.37 364.88 441.74 381.62 493.19 382.24 492.6 375.28 469.7 356.91"/><polygon class="bh" points="526.22 365.06 517.95 375.28 509.73 391.68 548.28 392.42 546.6 377.35 526.22 365.06"/><polygon class="ay" points="509.28 270.49 480.69 286.28 458.89 334.17 492.6 375.28 497.58 347.11 514.3 314.93 509.28 270.49"/><polygon class="ap" points="458.89 334.17 465.37 364.88 492.6 375.28 497.58 347.11 484.97 343.77 458.89 334.17"/><polygon class="ay" points="516.96 298.04 516.08 343.77 517.95 375.28 546.6 377.35 550.33 343.59 516.96 298.04"/><polygon class="az" points="516.96 298.04 514.3 314.93 516.08 343.77 550.33 343.59 556.2 287.08 516.96 298.04"/><polygon class="ap" points="507.21 269.3 480.69 286.28 514.3 314.93 556.2 287.08 507.21 269.3"/><polygon class="bd" points="488.68 226.97 476.49 245.21 510.45 286.72 527.04 306.38 559.22 295.12 558.38 254.28 488.68 226.97"/><polygon class="bi" points="488.68 226.97 476.37 250.8 475.92 292.94 499.55 302.52 510.45 286.72 508.6 245.87 488.68 226.97"/><polygon class="bc" points="498.27 198.52 478.69 206.13 476.37 250.8 558.38 254.28 560.19 203.33 540.31 196.22 498.27 198.52"/><polygon class="bj" points="538.77 206.71 508.86 252.26 491.85 202.17 501.48 195.86 540.31 196.22 538.77 206.71"/><polygon class="bk" points="528.99 225.7 507.71 213.55 496.37 223.91 491.85 202.17 501.48 195.86 540.31 196.22 528.99 225.7"/><polygon class="bl" points="540.31 196.22 508.86 252.26 534.33 234.1 534.5 225.53 544.63 221.41 548.15 198.89 540.31 196.22"/><polygon class="bl" points="494.53 199.7 508.86 252.26 493.35 233.43 495.53 224.02 486.31 221.41 487.77 202.62 494.53 199.7"/><polygon class="ba" points="514.79 199.84 526.41 203.46 540.31 196.22 543.82 167.68 542.44 164.49 544.54 161.72 546.72 143.96 532.6 142.89 531.76 150.53 527.35 150.93 521.96 107.81 501.43 191.4 514.79 199.84"/><polygon class="be" points="482.77 190.68 507.71 213.55 526.41 203.46 529.35 193.27 520.25 193.18 482.77 190.68"/><polygon class="bb" points="459.1 112.53 459.9 191.86 520.25 193.18 521.96 107.81 506.09 101.31 459.1 112.53"/><polygon class="be" points="472.07 163.72 503.49 164.31 496.54 177.16 478.1 176.83 472.07 163.72"/><polygon class="ay" points="481.89 157.09 468.01 164.37 465.37 172.72 508.86 174.57 501.67 161.88 491.75 157.38 481.89 157.09"/><polygon class="aq" points="485.6 151.85 481.89 157.09 487.55 161.88 491.75 157.38 485.6 151.85"/><polygon class="be" points="534.36 159.84 544.54 161.72 543.82 167.75 534.36 159.84"/><polygon class="be" points="541.82 147.72 536.83 147.94 537.01 154.46 541.82 147.72"/><polygon class="ba" points="474.13 130.53 463.98 129.81 481.96 156.95 486.15 145.23 491.75 157.38 512.43 130.26 503.16 128.32 492.67 133.63 489.45 135.76 485.42 144.49 484 133.28 484 133.28 474.13 130.53"/><polygon class="bm" points="484 133.28 481.89 157.09 491.75 157.38 492.67 133.63 484 133.28"/><path class="aq" d="M475.38,140a3.69,3.69,0,1,1-3.69-3.7A3.69,3.69,0,0,1,475.38,140Z"/><path class="aq" d="M505.35,140.4a3.69,3.69,0,1,1-3.68-3.69A3.69,3.69,0,0,1,505.35,140.4Z"/><polygon class="ay" points="463.98 129.81 484 133.28 483.57 128.37 464.14 127.14 463.98 129.81"/><polygon class="ay" points="492.67 133.58 493.06 128.71 512.18 127.65 512.43 130.2 492.67 133.58"/><polygon class="bn" points="5.5 395.4 89 428 172.75 408.19 160 386.63 138 336.23 136.5 319.93 117.75 324.94 117.25 337.98 43 385.12 5.5 395.4"/><polygon class="bo" points="28 354.28 31 366.32 88.5 390.39 135.5 377.85 86 340.74 28 354.28"/><polygon class="bp" points="96.5 365.81 108 401.92 58 401.42 59 354.28 96.5 365.81"/><polygon class="bq" points="0 370.33 35.5 321.18 62 346.26 0 370.33"/><polygon class="bp" points="61.5 335.22 66.5 372.33 96.5 365.81 111.5 344.25 61.5 335.22"/><polygon class="bq" points="61.5 335.22 95 325.19 111.5 344.25 61.5 335.22"/><polygon class="br" points="110.25 326.95 114 329.46 89.25 370.58 82.75 367.07 110.25 326.95"/><polygon class="d" points="89.5 417.47 129.5 401.92 135.5 377.85 88.5 390.39 89.5 417.47"/><polygon class="bq" points="87.5 354.28 131 340.74 161 396.91 87.5 354.28"/><polygon class="br" points="77.5 320.93 72.5 365.31 79.25 367.32 83.25 320.43 77.5 320.93"/><polygon class="i" points="89.5 417.47 88.5 390.39 31 366.32 39.5 400.92 89.5 417.47"/><polygon class="bq" points="50 392.9 59 354.28 96.5 365.81 50 392.9"/><polygon class="bs" points="64.5 315.17 69 297.11 87.5 308.14 64.5 315.17"/><polygon class="bs" points="108 321.18 128 313.66 130.5 329.71 108 321.18"/><polygon class="bt" points="64.5 315.17 87.5 308.14 84 328.2 64.5 315.17"/><polygon class="bt" points="108 321.18 130.5 329.71 109.5 336.73 108 321.18"/></svg>