<svg xmlns="http://www.w3.org/2000/svg" viewBox="0 0 600 450"><defs><style>.a{fill:#709d53;}.b{fill:#99c26d;}.c{fill:#5a753d;}.d{fill:#35785d;}.e{fill:#54b08b;}.f{fill:#72c9a6;}.g{fill:#b8c745;}.h{fill:#738d57;}.i{fill:#3f8f6f;}.j{fill:#8b6651;}.k{fill:#c3987b;}.l{fill:#bf8f00;}.m{fill:#856400;}.n{fill:#755800;}.o{fill:#9e7700;}.p{fill:#ccad14;}.q{fill:#b58b00;}.r{fill:#e5c828;}.s{fill:#dfbda5;}.t{fill:#e8cab6;}.u{fill:#2b2b2b;}.v{fill:#474747;}.w{fill:#fff;}.x{fill:#c4c4c4;}.y{fill:#ececeb;}.z{fill:#6f7173;}.aa{fill:#4f5253;}.ab{fill:#446125;}.ac{fill:#dddddc;}</style></defs><title>scene_trait_observant</title><polygon class="a" points="529.8 353.7 525 334.2 515.4 336.3 524.1 355.2 529.8 353.7"/><polygon class="b" points="534 353.7 536.1 328.8 524.4 331.8 528 356.1 534 353.7"/><polygon class="a" points="535.8 355.2 545.1 328.8 535.5 335.4 532.2 357.6 535.8 355.2"/><polygon class="a" points="528.6 336.9 521.7 312.6 548.4 289.8 539.1 330.3 528.6 336.9"/><polygon class="a" points="533.1 327.6 516.9 315.3 507.6 313.8 473.4 334.2 528.6 336.9 533.1 327.6"/><polygon class="b" points="538.5 332.1 582.9 345.9 544.2 307.8 538.5 332.1"/><polygon class="c" points="528.6 336.9 570.9 310.5 600 322.5 528.6 336.9"/><polygon class="c" points="528.6 336.9 506.4 322.5 480 346.8 528.6 336.9"/><polygon class="c" points="528.6 336.9 507.6 313.8 480 304.2 525 306.3 528.6 336.9"/><polygon class="d" points="546.6 395.7 511.5 395.7 498.9 352.8 559.2 352.8 546.6 395.7"/><polygon class="e" points="552 377.4 556.5 361.2 501.3 361.2 506.1 377.4 552 377.4"/><polygon class="e" points="550.2 382.8 507.6 382.8 509.4 388.5 548.7 388.5 550.2 382.8"/><polygon class="f" points="518.4 369.9 514.5 373.5 510.6 369.9 514.5 366 518.4 369.9"/><polygon class="f" points="532.5 369.9 528.9 373.5 525 369.9 528.9 366 532.5 369.9"/><polygon class="f" points="546.9 369.9 543 373.5 539.4 369.9 543 366 546.9 369.9"/><polygon class="g" points="546.6 390.3 546.6 395.7 299.4 419.4 53.4 395.7 52.5 390.3 546.6 390.3"/><polygon class="h" points="113.7 390.3 129.6 390.3 121.8 395.1 113.7 390.3"/><path class="h" d="M143.4,387.3l4.2,12,296.4.3-99.9-28.8Zm360.9,3h16.5l-9.3,5.4Z"/><path class="h" d="M349.8,390.3h1.8l15,7.8-17.7,6.6-5.7-9.6S348,391.8,349.8,390.3Zm98.1,8.4-4.8,5.4-18.9-11.7,18.9-3.9Z"/><path class="h" d="M181.5,389.1l-6.9,6,32.4,9,26.1-1.2,12.6-1.2-12.3-17.1ZM147,399.3l-5.1,4.8-20.1-9,16.8-6.6Z"/><polygon class="f" points="133.5 264.3 461.4 293.7 450 361.5 144.3 357.3 133.5 264.3"/><path class="e" d="M133.5,264.3l53.1,4.8c5.4,13.5,5.7,45.3,5.7,45.3l-18.6,34.8Z"/><path class="e" d="M413.7,327.6l6.3,5.1-23.1,8.7-5.7-42.6-3.3-18.6s44.1,1.2,43.8,1.8c0,.6-19.5,38.4-19.5,38.4ZM283.8,277.8l72,6.6L366,330.9l-74.7,18.3Z"/><path class="c" d="M138,388.5h16.5l-4.2,15.6h-8.4Zm300.9,0h16.5l-4.2,15.6h-8.1Z"/><polygon class="e" points="116.4 349.2 477 349.2 470.7 395.1 121.8 395.1 116.4 349.2"/><path class="i" d="M173.7,349.2h51.6l18.9,16.2-5.1.3,3,29.4H174.6l16.8-36.3Zm117.6,0h81l-2.4,45.9H343.2l-6.9-36.3-37.2,2.7Z"/><polygon class="j" points="414.9 324.6 424.2 323.7 420 332.7 414.9 324.6"/><polygon class="k" points="401.7 334.2 402 308.4 419.7 305.7 415.8 314.4 420 332.7 401.7 334.2"/><polygon class="l" points="402 308.4 418.5 279.9 450.3 292.8 416.1 314.4 402 308.4"/><polygon class="m" points="424.2 244.5 450.3 292.8 394.2 287.7 424.2 244.5"/><polygon class="n" points="394.2 287.7 380.4 273.3 407.1 237.9 424.2 244.5 410.7 264.9 394.2 287.7"/><polygon class="n" points="337.2 286.2 324.9 300 287.4 310.5 346.5 328.5 353.7 309 337.2 286.2"/><path class="n" d="M349.5,355.8l-3.9,3.6s11.1,34.49,11.7,34.49,16.2-.29,16.2-.29l12.9-33Z"/><polygon class="o" points="348 313.2 383.1 312.9 388.2 317.1 392.7 349.8 386.4 360.6 345.6 359.4 346.5 328.5 348 313.2"/><polygon class="p" points="369.6 299.1 391.2 299.4 388.2 317.1 356.4 324.3 348 313.2 340.2 321 324.9 300 369.6 299.1"/><polygon class="m" points="345.9 349.8 353.4 339.3 353.7 329.7 287.4 310.5 291.3 349.2 345.9 349.8"/><polygon class="n" points="345.9 349.8 360.9 348 360.6 332.1 353.7 329.7 345.9 349.8"/><polygon class="q" points="364.2 389.1 350.1 396 348.9 404.7 381.9 404.7 378.6 396 364.2 389.1"/><polygon class="r" points="349.8 399.6 348.9 404.7 381.9 404.7 380.1 399.6 349.8 399.6"/><polygon class="p" points="324.3 287.7 324.9 300 348 313.2 349.8 284.7 338.4 284.7 324.3 287.7"/><polygon class="p" points="349.8 284.7 368.4 290.1 391.2 299.4 378.6 304.8 363.9 309.9 348 313.2 349.8 284.7"/><polygon class="l" points="264.3 207.3 269.7 264.6 303.3 266.1 285.9 205.2 271.2 189.9 264.3 207.3"/><polygon class="k" points="285.9 205.2 283.5 188.4 272.1 189 261.9 191.1 264.3 207.3 285.9 205.2"/><polygon class="s" points="276 178.5 261 180.3 261.9 191.1 277.2 189.3 277.8 183.9 276 178.5"/><polygon class="k" points="283.5 188.4 280.2 167.4 274.8 168 277.2 189.3 281.1 190.5 283.5 188.4"/><polygon class="t" points="268.5 190.2 268.8 194.1 277.8 197.4 285.9 205.2 283.5 188.4 268.5 190.2"/><polygon class="r" points="339.6 219.3 324 219.6 322.8 248.4 324.3 287.7 349.8 284.7 353.4 244.5 347.1 229.8 339.6 219.3"/><polygon class="r" points="393.9 233.4 407.1 237.9 391.2 299.4 349.8 284.7 353.4 244.5 373.8 237.59 393.9 233.4"/><polygon class="l" points="366.9 223.5 396 225 393.9 233.4 353.4 244.5 366.9 223.5"/><polygon class="n" points="396 225 392.1 220.8 388.2 223.5 387.3 225.3 396 225"/><polygon class="n" points="350.4 201.9 337.5 205.8 336.6 219.3 353.4 244.5 349.8 218.7 350.4 201.9"/><polygon class="n" points="324 219.6 324.3 267 300.3 248.7 306.9 233.4 324 219.6"/><polygon class="m" points="306.9 233.4 269.7 264.6 324.3 267 306.9 233.4"/><polygon class="l" points="363 257.7 390.9 266.7 389.7 270.6 361.8 261.6 363 257.7"/><polygon class="l" points="353.4 244.5 351.6 285.3 348 313.2 348 285 353.4 244.5"/><polygon class="s" points="410.1 153.9 370.5 141.3 359.4 132.6 333 192.3 350.4 201.9 351.3 210.3 348.3 218.7 366.9 223.5 387.6 225.3 421.5 191.7 429.6 183.3 410.1 153.9"/><polygon class="k" points="405.6 152.4 372.9 213.9 350.4 201.9 350.7 210.6 346.5 222 353.4 244.5 367.8 226.5 387.3 225.3 409.8 203.1 401.1 193.2 412.8 182.4 421.5 191.7 429.6 183.3 414.3 160.2 410.1 153.9 405.6 152.4"/><polygon class="k" points="360.6 176.1 375.6 162 391.5 160.2 375.6 151.5 370.2 155.7 360.6 176.1"/><polygon class="k" points="364.2 153 362.4 147 355.2 142.2 357.6 167.1 364.2 153"/><polygon class="j" points="401.1 193.2 409.8 203.1 402.6 210.3 401.1 193.2"/><polygon class="j" points="366 164.4 381.9 184.5 391.5 178.5 395.1 179.1 396.9 177.3 388.5 174.6 366 164.4"/><polygon class="j" points="360 162 345.6 163.5 346.8 161.1 350.4 156.9 360 162"/><polygon class="m" points="414.3 160.2 383.4 190.5 392.7 201 412.8 182.4 421.5 191.7 429.6 183.3 422.1 168.9 414.3 160.2"/><polygon class="t" points="364.2 153 370.2 155.7 360.6 176.1 354.6 173.4 364.2 153"/><polygon class="u" points="392.7 166.5 422.7 180.6 421.5 191.7 412.8 182.4 388.5 174.6 389.7 169.8 392.7 166.5"/><polygon class="u" points="364.2 153 370.2 155.7 369.9 158.7 367.8 161.1 361.8 158.1 361.5 155.7 364.2 153"/><path class="v" d="M345.3,144l-7.5,16.5L360,162l4.2-9ZM366,164.4h0l18.3,18.3,8.4-16.2-22.5-10.8Z"/><polygon class="j" points="407.7 192.6 412.2 188.4 415.5 192 407.7 192.6"/><polygon class="m" points="391.5 160.2 381.3 149.7 375.6 151.5 391.5 160.2"/><polygon class="m" points="362.4 147 357.3 138.3 351.9 140.1 362.4 147"/><polygon class="k" points="345 175.2 376.5 189.9 356.4 198.6 346.8 194.1 345 175.2"/><polygon class="w" points="347.1 178.8 371.1 189.9 357 195.9 348.6 192 347.1 178.8"/><polygon class="j" points="366.3 192 357 195.9 348.6 192 347.7 183.9 366.3 192"/><polygon class="j" points="354.6 173.4 356.4 178.2 360.6 176.1 354.6 173.4"/><polygon class="m" points="410.1 153.9 403.8 142.8 391.2 126.9 375.9 116.4 371.7 128.7 370.5 141.3 410.1 153.9"/><polygon class="l" points="375.9 116.4 349.8 99.6 359.4 132.6 370.5 141.3 375.9 116.4"/><polygon class="p" points="391.2 126.9 408.6 121.2 431.4 137.4 445.5 150.9 429.6 183.3 414.3 160.2 410.1 153.9 391.2 126.9"/><polygon class="r" points="408.6 121.2 435 122.7 441.9 137.4 445.5 150.9 408.6 121.2"/><polygon class="p" points="435 122.7 444.9 119.1 457.8 117.3 455.1 148.2 443.1 135.3 435 122.7"/><polygon class="q" points="435 122.7 455.1 148.2 445.5 150.9 435 122.7"/><polygon class="n" points="395.1 179.1 411.3 183.6 412.8 182.4 396.9 177.3 395.1 179.1"/><polygon class="r" points="435 122.7 457.8 117.3 438.3 112.8 435 122.7"/><polygon class="j" points="347.1 199.8 379.8 217.5 346.5 222 347.1 199.8"/><polygon class="q" points="352.8 348.9 355.8 362.4 366.3 367.5 368.1 331.5 360.6 332.1 352.8 348.9"/><polygon class="r" points="361.5 365.1 366.3 367.5 368.1 331.5 363.9 331.8 361.5 365.1"/><polygon class="x" points="204.3 52.8 180.6 38.7 192 135.6 282.6 139.2 326.1 186.9 310.2 142.2 338.4 135.6 204.3 52.8"/><polygon class="y" points="180.6 38.7 197.7 128.7 288.9 133.5 326.1 186.9 312.9 135 338.4 135.6 356.7 30.6 180.6 38.7"/><polygon class="z" points="212.1 94.2 265.8 94.2 265.8 105 212.1 105 212.1 94.2"/><path class="c" d="M236.1,115.2l-4.2,6,83.7,4.2,13.5-3.3s-46.8-12-46.8-10.5S236.1,115.2,236.1,115.2Z"/><path class="a" d="M208.8,110.7s108-5.1,109.5-4.8,15.9,5.7,15.9,5.7l-5.1,10.5L267,117.3l-35.1,3.9L213,119.1Z"/><path class="b" d="M313.5,105.9h4.8c1.5.3,15.9,5.7,15.9,5.7l-5.1,10.5-7.8-8.1Z"/><path class="c" d="M208.8,110.7s14.4-.6,33-1.5a63.24,63.24,0,0,1,8.4,9.9l-18.3,2.1L213,119.1Z"/><path class="h" d="M208.8,110.7s35.4-1.8,65.7-3l-1.8,5.4-5.7,4.2-35.1,3.9Z"/><polygon class="r" points="268.2 67.2 272.7 113.1 321.3 114 329.7 69 268.2 67.2"/><polygon class="p" points="268.2 67.2 272.7 113.1 328.8 73.8 328.8 73.8 329.7 69 268.2 67.2"/><polygon class="f" points="257.1 72.3 256.8 68.4 296.1 60 338.1 70.5 337.8 74.1 257.1 72.3"/><polygon class="w" points="274.8 75.3 304.2 76.8 304.2 102.6 276 100.2 274.8 75.3"/><path class="m" d="M279.6,79.5l9.3.3v8.1l-9.6-.6Zm9,10.8v7.8l-9.3-.9V90Zm2.1-10.5,10.2.3-.3,8.7-9.6-.9Zm9.9,10.8-.3,8.1-9-.6-.3-7.8Z"/><polygon class="d" points="278.4 44.1 319.8 44.7 338.1 70.5 256.8 68.4 278.4 44.1"/><polygon class="i" points="278.4 44.1 319.8 44.7 338.1 70.5 278.4 44.1"/><rect class="v" x="264.6" y="81.6" width="1.85" height="9.43"/><path class="v" d="M237.6,93c.3-.3,3-6,3-6h3.3l-2.4,6.3Z"/><path class="i" d="M209.7,90.9h15l3.9-9.3h1.8l-3.6,9.3h39.6v11.4h.9v4.5h-2.1v-.3a10.5,10.5,0,0,0-21,0v.3h-9.9v-.3a10.5,10.5,0,0,0-21,0v.3h-5.7V95.4h1.5v6.9h.6Z"/><path class="e" d="M266.4,102.3h.9v4.5h-2.1v-.6h0a1.1,1.1,0,0,0-.3-.9h0V105h0v-.3h0v-.3h0v-.3h0a.29.29,0,0,0-.3-.3h0v-.3h0v-.3h0v-.3h-.3v-.3h0a10.46,10.46,0,0,0-19.2,0h0v.3h-.3v.3h0v.3h0v.3h-.3v.3h0v.3h0v.3h0v.3h0a.29.29,0,0,1-.3.3h0v.9h0v.6h-9.9v-.6h0v-.9h0a.29.29,0,0,0-.3-.3h0v-.3h0v-.3h0v-.3h0v-.3h0a.29.29,0,0,1-.3-.3h0v-.3h0v-.3h-.3v-.3h0a10.46,10.46,0,0,0-19.2,0h0v.3h-.3v.3h0v.3h0v.3h0l-.3.3h0v.3h0v.3h0v.3h0v.3h0c0,.3-.3.6-.3.9h0v.6h-5.7V95.4h1.5v6.9h3a12.5,12.5,0,0,1,23.4,0H243a12.5,12.5,0,0,1,23.4,0Z"/><polygon class="v" points="230.4 81.6 266.1 81.6 266.1 83.7 229.8 83.7 230.4 81.6"/><path class="v" d="M223.8,97.5a9,9,0,1,1-9,9A9,9,0,0,1,223.8,97.5Z"/><path class="x" d="M223.8,102.3a4.2,4.2,0,1,1-4.2,4.2A4.2,4.2,0,0,1,223.8,102.3Z"/><path class="z" d="M223.8,103.8a2.7,2.7,0,1,1-2.7,2.7A2.7,2.7,0,0,1,223.8,103.8Z"/><path class="v" d="M254.7,97.5a9,9,0,1,1-9,9A9,9,0,0,1,254.7,97.5Z"/><path class="x" d="M254.7,102.3a4.2,4.2,0,1,1-4.2,4.2A4.2,4.2,0,0,1,254.7,102.3Z"/><path class="z" d="M254.7,103.8a2.7,2.7,0,1,1-2.7,2.7A2.7,2.7,0,0,1,254.7,103.8Z"/><polygon class="a" points="70.2 353.7 75 334.2 84.6 336.3 75.9 355.2 70.2 353.7"/><polygon class="b" points="66 353.7 63.9 328.8 75.6 331.8 72 356.1 66 353.7"/><polygon class="a" points="64.2 355.2 54.9 328.8 64.5 335.4 67.8 357.6 64.2 355.2"/><polygon class="a" points="71.4 336.9 78.3 312.6 51.6 289.8 60.9 330.3 71.4 336.9"/><polygon class="a" points="66.9 327.6 83.1 315.3 92.4 313.8 126.6 334.2 71.4 336.9 66.9 327.6"/><polygon class="b" points="61.5 332.1 17.1 345.9 55.5 306.3 61.5 332.1"/><polygon class="c" points="71.4 336.9 29.1 310.5 0 322.5 71.4 336.9"/><polygon class="c" points="71.4 336.9 93.6 322.5 120 346.8 71.4 336.9"/><polygon class="c" points="71.4 336.9 92.4 313.8 120 304.2 75 306.3 71.4 336.9"/><polygon class="d" points="53.4 395.7 88.5 395.7 101.1 352.8 40.8 352.8 53.4 395.7"/><polygon class="e" points="48 377.4 43.5 361.2 98.7 361.2 93.9 377.4 48 377.4"/><polygon class="e" points="49.8 382.8 92.4 382.8 90.6 388.5 51.3 388.5 49.8 382.8"/><polygon class="f" points="81.6 369.9 85.5 373.5 89.4 369.9 85.5 366 81.6 369.9"/><polygon class="f" points="67.5 369.9 71.1 373.5 75 369.9 71.1 366 67.5 369.9"/><polygon class="f" points="53.1 369.9 57 373.5 60.6 369.9 57 366 53.1 369.9"/><polygon class="v" points="193.8 374.1 195.6 381.9 195 390.3 188.7 394.5 184.5 392.4 193.8 374.1"/><polygon class="aa" points="208.41 400.9 207 404.1 195.6 398.4 193.8 374.1 203.1 372 208.41 400.9"/><polygon class="ab" points="207.3 348.9 193.8 374.1 209.4 382.8 207.3 348.9"/><polygon class="c" points="174.3 309 161.4 323.39 173.7 349.2 205.5 349.2 193.8 317.1 184.8 312.6 174.3 309"/><polygon class="c" points="194.7 226.5 204.6 228.3 219.6 231.9 230.4 269.1 219 276.6 194.7 226.5"/><polygon class="b" points="212.4 227.1 227.7 270.3 241.8 252.9 219.9 221.1 212.4 227.1"/><polygon class="h" points="227.7 259.8 225 263.4 222.3 279.9 239.7 264.3 241.8 252.9 227.7 259.8"/><polygon class="v" points="231 382.5 236.7 388.2 240.9 395.7 237.9 402.6 233.1 402.9 231 382.5"/><polygon class="aa" points="245.7 382.5 259.97 398.11 260.4 400.8 245.7 401.7 231 382.5 237.6 375.6 245.7 382.5"/><polygon class="ac" points="175.2 231.6 190.5 239.1 208.5 252.9 191.4 258.3 173.7 260.7 173.1 248.1 175.2 231.6"/><polygon class="ac" points="204.6 228.3 220.2 249.9 213.9 252.6 208.5 252.9 203.7 239.4 204.6 228.3"/><polygon class="ab" points="220.2 249.9 227.7 259.8 217.2 300 224.7 321.9 184.8 312.6 161.4 323.39 171.6 298.5 172.8 280.8 173.7 260.7 208.5 255 220.2 249.9"/><polygon class="h" points="227.7 259.8 172.8 280.8 171.9 267.9 173.7 260.7 208.5 252.9 220.2 249.9 227.7 259.8"/><polygon class="h" points="175.2 231.6 159.9 246 167.4 248.4 174.6 246.9 175.2 231.6"/><polygon class="c" points="159.9 246 155.7 273.9 172.8 280.8 173.7 260.7 174.6 246.9 159.9 246"/><polygon class="b" points="155.7 273.9 172.8 280.8 195 291.9 191.7 301.5 151.5 295.2 155.7 273.9"/><polygon class="s" points="195 291.9 204.3 291 213.6 291.3 213.3 297.9 209.7 306.9 191.7 301.5 195 291.9"/><polygon class="k" points="213.6 291.3 219 292.2 219 305.1 209.7 306.9 213.6 291.3"/><polygon class="k" points="195 291.9 204.3 287.7 213.6 291.3 195 291.9"/><polygon class="s" points="209.1 157.2 211.2 162.9 211.5 168.6 219.9 208.8 202.2 214.2 204.6 239.4 208.5 252.9 189.6 238.5 175.2 231.6 172.5 222.9 166.8 216 160.5 204.3 159 206.4 156.9 207 151.5 200.4 148.5 194.1 153 189 158.1 187.2 160.8 188.4 161.7 193.8 161.7 180 165.9 166.8 174.9 157.8 187.2 152.1 200.1 152.7 209.1 157.2"/><polygon class="k" points="165.9 166.8 174 174 184.2 219.3 205.5 233.4 208.5 252.9 175.2 231.6 160.5 204.3 161.7 197.4 161.7 193.8 161.7 186.9 163.2 183.3 162.6 177.9 165.9 166.8"/><polygon class="j" points="153 195.6 156.6 192.9 160.2 195.9 153 195.6"/><polygon class="d" points="158.1 199.8 160.5 204.3 162.3 207.3 165.9 204.9 161.7 197.4 158.1 199.8"/><polygon class="u" points="166.8 216 159.3 212.1 153.3 210.9 148.8 207 140.1 202.5 144.3 195.9 148.5 194.1 156.9 207 160.5 204.3 166.8 216"/><polygon class="u" points="158.1 187.2 158.7 184.5 163.2 183.3 161.7 193.8 158.1 187.2"/><polygon class="v" points="140.1 202.5 139.8 184.5 151.8 174 165.9 166.8 163.2 183.3 158.1 187.2 148.5 194.1 140.1 202.5"/><polygon class="u" points="213.6 158.4 211.5 168.6 209.1 157.2 213.6 158.4"/><polygon class="v" points="148.8 207 141 222.9 156.3 237.3 159.3 212.1 148.8 207"/><polygon class="v" points="174.6 132.3 214.5 149.7 213.6 158.4 209.1 157.2 187.2 152.1 180.3 145.5 174.6 132.3"/><polygon class="z" points="139.8 184.5 139.8 162.9 174.6 132.3 187.2 152.1 165.9 166.8 139.8 184.5"/><polygon class="j" points="202.2 214.2 178.5 220.8 205.5 233.4 202.2 214.2"/><polygon class="j" points="165.9 204.9 166.8 216 162.3 207.3 165.9 204.9"/><polygon class="t" points="219.9 221.1 212.4 227.1 203.1 220.5 213 206.1 219.9 221.1"/><polygon class="k" points="203.4 208.8 213 206.1 203.1 220.5 202.2 214.2 203.4 208.8"/><polygon class="k" points="195 189.3 183.3 176.7 174 174 183.9 170.1 188.1 169.5 195 189.3"/><polygon class="k" points="193.8 167.7 197.4 166.5 207.3 165.9 201 171.3 198 179.7 193.8 167.7"/><polygon class="j" points="200.7 187.5 198.6 191.4 195 189.3 200.7 187.5"/><polygon class="v" points="197.4 166.5 202.2 163.5 207.3 165.9 197.4 166.5"/><polygon class="v" points="183.9 170.1 178.5 169.5 174 174 183.9 170.1"/><polygon class="t" points="188.1 169.5 195 189.3 200.7 187.5 193.8 167.7 188.1 169.5"/><polygon class="ab" points="183.3 200.4 199.2 193.8 210 194.7 199.2 199.2 183.3 200.4"/><polygon class="h" points="183.3 200.4 202.2 207 210 194.7 199.2 199.2 183.3 200.4"/><polygon class="w" points="186.9 200.1 197.4 203.4 203.7 202.2 207.6 195.6 199.2 199.2 186.9 200.1"/><polygon class="h" points="184.8 312.6 226.8 303.3 260.7 295.8 245.7 382.5 209.4 382.8 184.8 312.6"/><polygon class="b" points="184.8 312.6 226.8 303.3 231 382.5 209.4 382.8 184.8 312.6"/><circle class="u" cx="183.9" cy="179.26" r="2.63"/><circle class="u" cx="201.63" cy="174.38" r="2.63"/></svg>