<svg xmlns="http://www.w3.org/2000/svg" viewBox="0 0 600 450"><defs><style>.a,.b,.u{fill:#2b2b2b;}.a{opacity:0.2;}.b{opacity:0.11;}.c{fill:#d1a1b8;}.d{fill:#96637c;}.e{fill:#734d60;}.f{fill:#27788c;}.g{fill:#318fa6;}.h{fill:#8ce0dc;}.i{fill:#b3889d;}.j{fill:#d8bca9;}.k{fill:#ececeb;}.l{fill:#5ec0d9;}.m{fill:#fff;}.n{fill:#9da1a2;}.o{fill:#3f8f6f;}.p{fill:#54b08b;}.q{fill:#72c9a6;}.r{fill:#35785d;}.s{fill-opacity:0.1;}.t{fill:#474747;}.v{fill:#737373;}.w{fill:#738d57;}.x{fill:#5a753d;}.y{fill:#99c26d;}.z{fill:#916a59;}.aa{fill:#c3987b;}.ab{fill:#e8cab6;}.ac{fill:#dfbda5;}.ad{fill:#8b6651;}.ae{fill:#446125;}.af{fill:#dddddc;}.ag{fill:#369496;}.ah{fill:#1c7678;}.ai{fill:#b18d79;}.aj{fill:#ba9e8e;}.ak{fill:#66483a;}.al{fill:#cececd;}.am{fill:#3aa0ba;}.an{fill:#165e60;}.ao{fill:#50a9aa;}</style></defs><title>scene_trait_feeling</title><polygon class="a" points="600 172.54 565.65 431.68 522.75 424.12 502.48 246.27 543.09 117.81 600 172.54"/><path class="b" d="M482.32,447.09l83.33-15.41-42.9-7.56-36.57,4.63s-4.24,18.22-3.72,18.34Z"/><polygon class="c" points="338.86 111.01 276.5 125.25 482.57 142.58 543.09 117.81 338.86 111.01"/><polygon class="d" points="276.5 125.25 482.58 129.88 491.82 190.7 499.52 364.07 482.32 447.09 284.97 401.67 276.5 125.25"/><polygon class="d" points="482.46 280.14 482.46 293.36 280.99 271.8 280.47 256.79 482.46 280.14"/><path class="e" d="M482.32,447.09l40.43-23,20.34-306.31-60.51,11.94s-.26,314.39-.26,317.22Z"/><polygon class="d" points="532.16 282.45 533.35 264.49 482.46 280.14 478.73 287.84 482.46 293.36 532.16 282.45"/><polygon class="c" points="286.5 135.52 364.39 138.34 361.19 266.15 290.23 257.94 286.5 135.52"/><polygon class="c" points="383.77 140.66 466.28 142.32 466.16 278.35 381.46 268.47 383.77 140.66"/><polygon class="c" points="290.74 272.83 292.79 391.27 360.8 405.52 362.34 280.53 290.74 272.83"/><polygon class="c" points="381.72 282.58 379.54 410.13 460.51 426.56 465.77 291.57 381.72 282.58"/><polygon class="d" points="302.93 153.23 302.41 161.19 348.23 164.01 348.74 153.74 302.93 153.23"/><polygon class="d" points="302.03 167.22 301.52 175.18 347.33 177.87 347.84 167.6 302.03 167.22"/><polygon class="d" points="301.38 182.87 300.87 190.83 346.69 193.53 347.2 183.26 301.38 182.87"/><polygon class="d" points="401.09 156.44 400.58 164.52 446.39 167.86 446.91 157.72 401.09 156.44"/><polygon class="d" points="400.2 170.43 399.81 178.38 445.5 181.85 446.01 171.58 400.2 170.43"/><polygon class="d" points="399.56 186.08 399.17 194.04 444.85 197.5 445.37 187.24 399.56 186.08"/><polygon class="d" points="340.78 203.02 356.18 203.92 355.41 236.38 338.34 234.33 340.78 203.02"/><polygon class="e" points="351.95 203.66 356.18 203.92 355.41 236.38 349.89 235.75 343.6 229.2 345.28 207.64 351.95 203.66"/><polygon class="d" points="437.54 206.87 455.51 207.9 457.95 245.76 437.8 243.44 437.54 206.87"/><polygon class="e" points="450.5 207.64 455.51 207.9 457.95 245.76 451.4 244.98 443.45 237.41 443.19 212.26 450.5 207.64"/><polygon class="d" points="306.01 290.28 305.62 297.6 347.72 302.22 348.23 292.72 306.01 290.28"/><polygon class="d" points="305.24 303.11 304.73 310.43 346.94 315.05 347.46 305.55 305.24 303.11"/><polygon class="d" points="304.6 317.49 304.21 324.8 346.3 329.42 346.81 319.92 304.6 317.49"/><polygon class="d" points="395.57 301.19 395.06 309.02 439.72 314.79 440.24 304.91 395.57 301.19"/><polygon class="d" points="394.68 314.79 394.3 322.49 438.82 328.39 439.33 318.38 394.68 314.79"/><polygon class="d" points="394.04 330.06 393.65 337.76 438.31 343.66 438.7 333.65 394.04 330.06"/><polygon class="d" points="338.34 344.44 351.18 346.1 350.54 373.31 336.29 370.61 338.34 344.44"/><polygon class="e" points="347.58 345.59 351.18 346.1 350.54 373.31 345.92 372.41 340.66 366.63 342.07 348.54 347.58 345.59"/><polygon class="d" points="430.23 361.37 448.19 362.4 448.83 400.26 428.81 397.95 430.23 361.37"/><polygon class="e" points="443.31 362.02 448.19 362.4 448.83 400.26 442.29 399.49 434.72 391.91 435.75 366.63 443.31 362.02"/><polygon class="b" points="341.68 424.26 263.66 410.39 176.3 422.1 121.09 417.07 18.82 423.35 125.45 434.64 206.84 426.99 261.48 439.9 341.68 424.26"/><polygon class="a" points="372.74 51.47 373.37 85.47 392.37 103.7 426.12 107.16 455.25 86.89 457.43 45.69 447.04 29.91 400.71 20.93 381.72 36.58 372.74 51.47"/><polygon class="f" points="434.33 13.23 418.68 10.92 415.34 16.82 430.48 34.92 433.18 63.4 417.14 85.35 410.98 88.56 414.96 91.51 426.51 91.51 445.63 74.82 447.04 29.91 434.33 13.23"/><polygon class="g" points="354.26 43.9 359.78 77.52 381.07 92.92 414.96 91.51 436.64 70.46 436.13 31.96 418.68 10.92 377.61 9.76 361.19 27.99 354.26 43.9"/><polygon class="h" points="362.85 43.64 368.88 29.91 384.29 19.13 404.69 19.13 425.86 33.63 428.69 60.96 419.32 77.78 401.35 85.22 382.49 83.81 368.25 73.03 363.75 59.04 362.85 43.64"/><polygon class="h" points="404.69 19.13 419.83 29.53 382.49 83.81 368.25 73.03 404.69 19.13"/><polygon class="e" points="392.37 22.34 392.75 27.86 396.09 27.47 396.35 22.72 392.37 22.34"/><polygon class="e" points="392.24 75.72 392.62 81.11 395.97 80.86 396.22 75.98 392.24 75.72"/><polygon class="e" points="423.55 51.6 418.16 51.98 418.42 55.32 423.3 55.58 423.55 51.6"/><polygon class="e" points="365.42 49.16 370.81 49.67 370.55 52.88 365.68 53.14 365.42 49.16"/><polygon class="d" points="395.45 51.34 402.25 50.31 415.98 51.98 403.02 55.83 395.45 51.34"/><polygon class="c" points="395.45 51.34 402.76 47.36 415.98 51.98 395.45 51.34"/><polygon class="c" points="374.92 74.31 383.9 57.89 395.45 51.34 391.47 61.74 374.92 74.31"/><polygon class="d" points="395.45 51.34 391.47 61.74 374.92 74.31 395.45 51.34"/><polygon class="e" points="393.01 45.82 400.97 48.39 398.15 58.27 390.31 54.04 393.01 45.82"/><polygon class="i" points="395.45 51.34 402.25 50.31 405.33 50.7 402.12 55.32 395.45 51.34"/><polygon class="j" points="395.45 51.34 402.76 47.36 406.74 48.78 404.69 51.6 395.45 51.34"/><polygon class="j" points="374.92 74.31 383.9 57.89 395.45 51.34 391.47 61.74 374.92 74.31"/><polygon class="i" points="395.45 51.34 391.47 61.74 374.92 74.31 395.45 51.34"/><polygon class="d" points="393.01 45.82 400.97 48.39 398.15 58.27 390.31 54.04 393.01 45.82"/><polygon class="k" points="137.87 124.25 150.34 95.98 138.31 64.37 164.4 12.98 283.14 0 308.8 80.32 248.35 139.18 164.98 115.11 137.87 124.25"/><polygon class="l" points="190.5 43.93 197.75 46.1 220.8 29.58 225.44 31.32 232.83 30.3 251.39 41.76 258.93 37.26 267.48 42.91 269.95 45.67 280.68 77.86 270.53 87.71 162.81 89.6 190.5 43.93"/><polygon class="m" points="258.93 33.49 250.23 39.58 231.67 20.3 225.15 27.84 220.8 24.65 197.75 46.1 190.5 43.93 180.35 53.93 187.89 48.71 188.76 53.06 193.54 47.99 193.25 50.74 204.13 45.52 210.51 39 212.97 39.44 220.22 34.07 216.6 40.74 222.83 34.94 223.12 39.44 229.21 34.22 233.41 43.64 237.91 37.41 240.52 41.03 242.11 37.12 256.32 48.13 253.13 42.77 256.32 39.87 259.65 42.62 260.81 40.16 267.48 42.91 258.93 33.49"/><polygon class="n" points="189.34 71.62 188.76 86.7 192.38 85.83 192.38 71.62 189.34 71.62"/><polygon class="o" points="180.78 65.1 171.94 72.34 210.51 75.68 203.84 66.11 180.78 65.1"/><polygon class="p" points="186.44 54.08 172.23 66.25 213.12 68.28 202.97 54.08 186.44 54.08"/><polygon class="o" points="187.31 44.94 180.5 55.82 208.62 54.51 199.05 39.44 187.31 44.94"/><polygon class="p" points="181.66 49.15 195.28 29.58 204.42 39.73 181.66 49.15"/><polygon class="n" points="242.11 66.25 242.69 78.15 245.01 78.15 244.14 65.67 242.11 66.25"/><polygon class="o" points="233.85 68.72 255.45 66.25 248.2 61.47 235.88 61.76 233.85 68.72"/><polygon class="p" points="232.54 63.36 253.13 61.76 246.17 57.85 238.34 56.69 232.54 63.36"/><polygon class="o" points="234.14 58.14 251.68 58.86 244.87 48.71 239.79 50.6 234.14 58.14"/><polygon class="p" points="236.31 52.48 248.93 50.6 241.68 42.19 236.31 52.48"/><polygon class="o" points="258.35 78.87 268.06 83.65 270.53 87.71 254.44 90.61 246.75 88.15 258.35 78.87"/><polygon class="p" points="216.74 84.52 226.89 74.38 258.35 78.87 243.56 91.34 216.74 84.52"/><polygon class="o" points="199.49 81.48 186.15 82.35 181.8 92.79 207.9 89.74 199.49 81.48"/><polygon class="p" points="186.15 82.35 200.65 76.98 199.49 81.48 186.15 82.35"/><polygon class="q" points="200.65 76.98 214.56 87.42 207.9 89.74 199.49 81.48 200.65 76.98"/><polygon class="o" points="227.03 96.41 223.41 94.96 224.57 91.92 223.84 85.11 230.22 80.32 258.35 92.06 227.03 96.41"/><polygon class="o" points="162.81 89.6 178.61 83.51 192.82 91.05 171.36 94.53 162.81 89.6"/><polygon class="p" points="201.22 88.29 215.14 88.73 224.57 91.92 225.73 94.09 227.03 96.41 201.81 102.5 201.22 88.29"/><polygon class="q" points="230.22 80.32 201.22 88.29 224.57 91.92 230.22 80.32"/><polygon class="q" points="81.44 397.43 80.03 407.06 74.77 409.37 55.77 409.11 55.77 424.38 96.97 424.77 96.71 410.27 93.89 397.95 81.44 397.43"/><polygon class="r" points="96.71 410.27 91.06 421.3 74.77 409.37 81.44 397.43 87.6 394.74 96.45 397.95 96.71 410.27"/><polygon class="s" points="81.44 397.43 96.45 397.95 96.71 405.9 81.44 397.43"/><polygon class="q" points="151.12 399.23 152.4 408.85 157.66 411.16 168.83 410.9 168.83 426.18 135.59 426.56 135.85 412.06 138.67 399.75 151.12 399.23"/><polygon class="r" points="135.85 412.06 141.37 423.1 146.63 411.42 157.66 411.16 151.12 399.23 144.96 396.54 135.98 399.75 135.85 412.06"/><polygon class="s" points="151.12 399.23 135.98 399.75 135.85 407.7 151.12 399.23"/><polygon class="t" points="77.72 396.92 71.56 318.38 144.96 326.99 156.38 399.1 132.77 399.87 108.77 358.55 99.4 399.49 77.72 396.92"/><polygon class="u" points="81.95 319.67 144.96 326.99 154.84 389.48 151.89 393.71 148.94 389.99 137.9 343.28 136.75 337.25 131.74 339.69 130.97 348.41 138.93 390.89 136.11 393.33 131.74 391.4 122.12 354.96 123.02 329.04 109.16 328.14 108.77 333.4 112.62 367.28 102.23 391.02 97.22 393.46 94.91 389.61 102.74 339.05 105.18 335.96 91.58 329.81 92.22 349.18 88.75 388.45 85.54 390.25 82.08 387.17 81.95 319.67"/><path class="v" d="M77.72,396.92l-.64-10.78,25,4.88-2.83,8.47-21.68-2.57Zm77.12-7.57,1.54,9.63-23.61.89L128,391.79l26.82-2.31h0Z"/><polygon class="w" points="90.81 257.94 81.95 285.66 77.46 299.52 65.14 337.89 91.96 351.5 108.77 333.4 122.12 354.96 152.02 332.76 146.24 271.67 90.81 257.94"/><polygon class="x" points="88.5 269.36 81.95 285.66 76.56 290.41 77.46 299.52 103.9 283.86 88.5 269.36"/><polygon class="x" points="150.61 317.87 147.27 282.71 109.8 283.74 150.61 317.87"/><polygon class="y" points="90.81 257.94 81.95 285.66 109.8 283.74 90.81 257.94"/><polygon class="y" points="148.68 296.7 146.24 259.1 109.8 283.74 148.68 296.7"/><path class="t" d="M100.69,319.15l7.57-24.76s10.39,25.79,10.14,25.41-9.76,13.73-9.76,13.73l-8-14.25Z"/><polygon class="u" points="102.87 284.25 108.26 294.26 119.29 286.95 109.8 283.74 102.87 284.25"/><polygon class="w" points="77.46 299.52 81.95 285.66 90.81 257.94 58.85 275.39 77.46 299.52"/><polygon class="y" points="23.18 262.69 50.64 295.8 77.46 299.52 43.84 245.76 23.18 262.69"/><polygon class="w" points="177.68 292.59 171.52 273.86 146.24 259.1 148.68 296.7 175.5 297.72 177.68 292.59"/><polygon class="y" points="208.99 268.34 185.25 267.18 171.52 273.86 175.5 297.72 200.65 284.63 210.28 275.78 208.99 268.34"/><polygon class="z" points="241.2 278.35 209.89 268.47 210.53 283.1 240.31 283.35 241.2 278.35"/><polygon class="aa" points="39.99 248.96 30.11 229.71 18.69 235.23 17.92 251.27 27.03 259.61 39.99 248.96"/><polygon class="aa" points="23.43 223.56 5.08 207.9 1.11 212 20.74 232.79 23.43 223.56"/><polygon class="ab" points="31.65 230.61 23.43 223.56 8.55 241.26 17.92 251.27 30.11 240.75 32.16 236.13 31.65 230.61"/><polygon class="ac" points="30.11 240.75 33.32 220.22 39.86 220.47 39.99 248.96 30.11 240.75"/><polygon class="ac" points="82.08 169.91 76.3 202.77 76.56 224.45 75.02 239.21 101.71 244.73 102.35 259.87 104.92 260.77 134.69 261.66 154.71 230.1 133.67 187.75 105.82 158.24 82.08 169.91"/><polygon class="r" points="168.7 258.33 145.86 243.96 147.27 236.26 154.71 230.1 162.15 240.11 168.7 258.33"/><polygon class="ad" points="111.21 163.88 81.83 170.04 95.04 160.42 105.82 158.24 110.31 159.52 111.21 163.88"/><polygon class="aa" points="104.54 210.85 116.34 193.14 125.33 185.31 112.36 179.92 109.8 185.7 104.54 210.85"/><polygon class="aa" points="103.77 184.54 102.48 178.38 89.27 179.54 100.56 201.48 103.77 184.54"/><polygon class="ad" points="98.89 209.82 101.07 214.31 104.54 210.85 98.89 209.82"/><polygon class="aa" points="133.67 187.75 123.91 248.32 110.44 252.94 96.71 265 101.58 273.34 109.8 283.74 125.58 273.09 143.29 260.77 143.81 260.26 145.86 243.96 147.27 236.26 154.71 230.1 133.67 187.75"/><polygon class="ab" points="103.77 184.54 98.89 209.82 104.54 210.85 109.8 185.7 103.77 184.54"/><polygon class="ad" points="133.67 187.75 138.03 211.88 146.88 224.07 132.64 224.07 145.86 243.96 154.71 230.1 147.78 212.52 133.67 187.75"/><polygon class="x" points="102.48 178.38 95.55 174.15 89.27 179.54 102.48 178.38"/><polygon class="x" points="112.36 179.92 119.29 178.51 125.33 185.31 112.36 179.92"/><polygon class="w" points="85.03 219.44 97.48 235.87 118.78 226.25 85.03 219.44"/><polygon class="m" points="89.01 221.37 99.02 225.6 114.29 226.25 102.35 230.87 95.68 229.46 89.01 221.37"/><polygon class="ae" points="85.03 219.44 100.04 220.34 118.78 226.25 98.89 226.12 85.03 219.44"/><polygon class="p" points="105.82 158.24 133.67 187.75 159.07 217.91 185.13 242.29 195.26 227.66 198.73 214.18 170.63 195.58 145.86 182.36 130.07 171.2 105.82 158.24"/><polygon class="o" points="133.67 187.75 185.13 242.29 168.7 258.33 133.67 187.75"/><polygon class="o" points="145.86 182.36 151.5 167.6 172.68 162.47 198.73 214.18 145.86 182.36"/><polygon class="o" points="198.73 214.18 209.25 236.26 185.13 242.29 198.73 214.18"/><polygon class="q" points="105.82 158.24 108.26 149.51 120.45 142.58 172.68 162.47 159.84 172.1 145.86 182.36 105.82 158.24"/><polygon class="o" points="82.08 169.91 79.64 194.17 76.3 202.77 78.49 205.72 77.59 214.44 71.56 217.01 66.04 213.03 60.78 207.38 75.15 173.25 77.59 169.27 82.08 169.91"/><polygon class="p" points="105.82 158.24 75.15 173.25 68.99 154.39 120.45 142.58 112.49 151.05 105.82 158.24"/><polygon class="y" points="141.62 203.66 132.64 224.07 157.92 236.64 153.3 227.4 140.34 220.73 144.7 210.08 141.62 203.66"/><polygon class="y" points="79.64 194.17 66.04 213.03 76.56 224.45 77.59 214.44 74.38 211.23 78.49 205.72 79.64 194.17"/><polygon class="ae" points="123.02 274.88 146.12 243.96 146.24 259.1 123.02 274.88"/><polygon class="ae" points="101.58 273.34 90.81 257.94 101.71 244.73 104.41 253.07 101.58 263.59 101.58 273.34"/><polygon class="ad" points="101.71 244.73 129.82 249.09 101.58 273.34 101.71 252.42 101.71 244.73"/><path class="u" d="M100.69,319.15l17.71.51c-1,.39-9.63,13.74-9.63,13.74l-8-14.25Z"/><circle cx="94.64" cy="191.29" r="3.2"/><circle cx="115.93" cy="195.39" r="3.2"/><polygon class="af" points="97.48 323.9 148.68 296.7 165.88 337.51 179.48 355.85 188.46 369.07 141.62 397.56 112.62 367.28 97.48 323.9"/><polygon class="ag" points="190 302.73 215.67 258.71 218.36 286.56 210.92 325.32 200.65 320.95 190 302.73"/><polygon class="ah" points="280.34 252.04 292.4 278.22 302.03 345.85 254.42 350.98 210.02 338.91 213.23 293.1 215.67 258.2 280.34 252.04"/><polygon class="ai" points="183.07 183.13 186.02 183.13 197.57 191.22 221.82 180.44 244.28 184.67 248 210.98 239.02 229.71 245.31 232.4 253.01 214.7 266.48 219.96 260.71 237.15 265.2 245.88 264.69 264.62 233.12 267.57 208.99 268.34 185.25 267.18 183.07 183.13"/><polygon class="z" points="184.35 216.62 195.65 226.25 196.42 238.82 207.58 238.44 216.31 222.14 225.55 215.08 206.81 209.69 194.88 209.95 184.35 216.62"/><polygon class="aj" points="206.81 209.69 207.58 238.44 196.42 238.82 194.88 209.95 206.81 209.69"/><polygon class="z" points="233.12 267.57 208.99 268.34 257.76 271.93 280.34 252.04 265.2 245.37 260.71 237.15 245.31 232.4 253.01 214.7 248 210.98 242.23 184.28 233.12 267.57"/><polygon class="t" points="194.88 209.95 184.35 216.62 183.58 210.08 194.88 209.95"/><polygon class="t" points="206.81 209.69 225.55 215.08 225.55 208.41 206.81 209.69"/><polygon class="ak" points="194.62 253.84 204.63 250.5 219.13 253.84 217.85 255.89 204.63 253.58 194.62 257.05 194.62 253.84"/><polygon class="t" points="183.07 183.13 233.76 162.98 251.21 166.96 239.02 175.18 221.82 180.44 197.57 191.22 183.07 183.13"/><polygon class="v" points="221.82 180.44 251.21 166.96 268.28 171.45 259.04 181.08 242.23 184.28 221.82 180.44"/><polygon class="u" points="242.23 184.28 268.28 171.45 279.44 223.04 265.2 245.88 260.71 237.15 266.48 219.96 266.48 219.96 253.01 214.7 250.06 213.8 248 210.98 242.23 184.28"/><polygon class="v" points="248 210.98 239.02 229.71 245.31 232.4 253.01 214.7 250.57 212.9 248 210.98"/><polygon class="ak" points="245.44 266.92 257.76 271.93 208.99 268.34 245.44 266.92"/><polygon class="ak" points="245.31 232.4 269.05 262.05 280.34 252.04 265.2 245.37 260.71 237.15 245.31 232.4"/><polygon class="h" points="219.26 226.38 215.02 235.23 220.03 237.92 222.98 235.87 219.26 226.38"/><polygon class="l" points="215.02 235.23 218.87 241.52 222.98 235.87 220.03 237.92 215.02 235.23"/><polygon class="ak" points="251.34 230.1 254.68 220.86 261.99 222.91 251.34 230.1"/><polygon class="m" points="280.34 252.04 257.76 271.93 267.51 279.88 281.37 282.45 280.34 252.04"/><polygon class="m" points="236.58 270.39 257.76 271.93 249.42 281.04 233.5 285.4 236.58 270.39"/><polygon class="al" points="233.5 285.4 248.13 297.21 256.6 296.95 265.33 296.57 281.37 282.45 257.76 271.93 233.5 285.4"/><polygon class="t" points="257.76 271.93 250.44 276.04 257.37 284.51 248.13 297.21 256.6 303.63 265.33 296.57 257.37 284.51 265.45 275.39 257.76 271.93"/><polygon class="g" points="210.02 338.91 255.06 342.26 302.03 345.85 275.47 366.25 254.68 371.89 254.03 371.89 230.42 357.91 210.02 338.91"/><polygon class="l" points="254.68 371.12 256.22 396.66 263.79 420.02 296.64 407.83 302.03 345.85 254.68 371.12"/><polygon class="am" points="210.02 338.91 236.84 358.29 253.65 370.49 254.68 371.12 258.91 394.35 263.79 420.02 242.23 405.39 210.02 338.91"/><polygon class="an" points="296.64 407.83 313.49 421.67 263.79 420.02 296.64 407.83"/><polygon class="an" points="242.23 405.39 222.6 421.17 263.79 420.02 242.23 405.39"/><polygon class="ao" points="168.19 333.91 190 302.73 210.92 325.32 182.81 349.95 177.3 347.77 168.19 333.91"/><polygon class="k" points="156 342 165.88 337.51 191.15 367.79 140.34 398.33 112.62 367.28 156 342"/><path class="v" d="M139.18,381.39l26-14.5.77,1.54-26,14.5Zm-23.35-39.13,33.62-19,.77,1.54-33.62,19Zm1.93,9.36,36.44-19.88.77,1.53-36.45,19.89Zm9,17.58,34.64-20.53.77,1.54-34.64,20.53Zm7.82,6,36.58-21.95.77,1.41-36.58,21.94Z"/><polygon class="i" points="120.19 320.31 124.3 345.46 126.35 344.82 126.74 331.99 137.52 331.6 135.33 326.85 124.69 329.16 124.43 321.59 137 318.64 134.56 314.54 120.19 320.31"/><polygon class="ak" points="180.12 354.57 182.81 349.95 168.19 333.91 165.88 337.51 180.12 354.57"/><polygon class="ai" points="161.26 354.19 165.11 351.24 165.24 345.08 174.86 341.35 168.19 333.91 156 342 161.26 354.19"/><polygon class="ak" points="196.42 238.82 207.58 238.44 202.19 244.22 196.42 238.82"/><polygon class="ao" points="280.34 252.04 283.55 344.44 311.52 343.28 313.45 261.28 280.34 252.04"/><polygon class="ai" points="308.32 361.25 311.52 343.28 288.04 344.31 286.76 351.24 289.97 358.29 301 361.76 308.32 361.25"/><polygon class="ak" points="293.94 371.89 289.97 358.29 308.32 361.25 306.91 368.3 293.94 371.89"/><polygon class="z" points="289.97 358.29 285.09 354.83 283.55 344.44 288.04 344.31 289.97 358.29"/><polygon class="ag" points="222.6 421.17 222.6 426.09 263.79 425.67 263.79 420.02 222.6 421.17"/><polygon class="ah" points="263.79 420.02 263.79 425.67 313.49 426.8 313.49 421.67 263.79 420.02"/><circle cx="190.51" cy="222.94" r="3.19"/><circle cx="215.82" cy="222.94" r="3.19"/></svg>